<svg width="500" height="421" viewBox="0 0 500 421" fill="none" xmlns="http://www.w3.org/2000/svg">
<g clip-path="url(#clip0_23_12826)">
<path d="M77.71 309.27C86.1654 309.27 93.02 302.416 93.02 293.96C93.02 285.505 86.1654 278.65 77.71 278.65C69.2545 278.65 62.4 285.505 62.4 293.96C62.4 302.416 69.2545 309.27 77.71 309.27Z" fill="#E0E0E0"/>
<path d="M118.403 304.532C124.382 298.553 124.382 288.859 118.403 282.88C112.424 276.902 102.73 276.902 96.7515 282.88C90.7726 288.859 90.7726 298.553 96.7515 304.532C102.73 310.511 112.424 310.511 118.403 304.532Z" fill="#EBEBEB"/>
<path d="M58.6706 304.535C64.6495 298.556 64.6495 288.862 58.6706 282.883C52.6917 276.904 42.9979 276.904 37.019 282.883C31.0401 288.862 31.0401 298.556 37.019 304.535C42.9979 310.514 52.6917 310.514 58.6706 304.535Z" fill="#EBEBEB"/>
<path d="M27.5 297H127.5C127.5 297 126.5 338.23 99.63 343.27L99.2 352H54.2V343.09C54.2 343.09 27.5 336.29 27.5 297Z" fill="#E0E0E0"/>
<path d="M99.62 343.27C99.62 343.42 89.41 343.53 76.82 343.53C64.23 343.53 54.02 343.42 54.02 343.27C54.02 343.12 64.23 343.01 76.82 343.01C89.41 343.01 99.62 343.13 99.62 343.27Z" fill="white"/>
<path d="M123.62 318.24C123.62 318.24 123.4 318.24 122.98 318.32L121.09 318.48C118.666 318.716 116.22 318.598 113.83 318.13C112.096 317.78 110.439 317.119 108.94 316.18C107.144 315.048 105.708 313.428 104.8 311.51C104.32 310.424 104.081 309.247 104.1 308.06C104.143 306.784 104.583 305.553 105.36 304.54C105.776 304.008 106.31 303.58 106.92 303.29C107.551 303.023 108.241 302.93 108.92 303.02C109.625 303.158 110.291 303.45 110.87 303.876C111.449 304.301 111.927 304.849 112.27 305.48C112.961 306.816 113.166 308.35 112.85 309.82C112.541 311.327 111.958 312.764 111.13 314.06C109.364 316.816 106.749 318.922 103.68 320.06C100.392 321.279 96.773 321.258 93.5 320C91.7939 319.347 90.2214 318.388 88.86 317.17C87.4048 315.953 86.3145 314.358 85.71 312.56C85.4302 311.61 85.4302 310.6 85.71 309.65C85.9911 308.661 86.6527 307.823 87.55 307.32C88.4888 306.903 89.5371 306.801 90.5389 307.028C91.5407 307.255 92.4424 307.799 93.11 308.58C94.4065 310.151 95.2163 312.066 95.44 314.09C95.7501 316.114 95.6891 318.178 95.26 320.18C94.4117 324.329 92.119 328.043 88.79 330.66C87.0823 331.969 85.131 332.924 83.05 333.47C80.9361 333.998 78.745 334.143 76.58 333.9C72.233 333.465 68.2161 331.387 65.35 328.09C63.9482 326.473 62.9994 324.513 62.6 322.41C62.2174 320.304 62.6771 318.131 63.88 316.36C64.4368 315.465 65.2134 314.728 66.136 314.219C67.0585 313.709 68.0961 313.445 69.15 313.45C70.187 313.508 71.1898 313.841 72.0548 314.416C72.9198 314.991 73.6155 315.786 74.07 316.72C74.4911 317.665 74.562 318.728 74.27 319.72C73.9746 320.688 73.4296 321.56 72.69 322.25C71.2525 323.552 69.5079 324.467 67.62 324.91C64.1562 325.859 60.506 325.898 57.023 325.022C53.5401 324.146 50.3424 322.385 47.74 319.91C46.5475 318.745 45.6258 317.331 45.04 315.77C44.4789 314.249 44.3849 312.595 44.77 311.02C45.1114 309.485 45.9822 308.118 47.23 307.16C48.4597 306.288 49.9804 305.93 51.47 306.16C52.8971 306.337 54.2028 307.052 55.12 308.16C55.9742 309.214 56.4497 310.524 56.47 311.88C56.475 313.159 56.0644 314.405 55.3 315.43C54.5892 316.376 53.6947 317.169 52.67 317.76C50.841 318.799 48.8653 319.554 46.81 320C45.1023 320.408 43.368 320.696 41.62 320.86C39.1995 321.105 36.7604 321.105 34.34 320.86C32.69 320.67 31.83 320.48 31.83 320.48C31.83 320.48 32.05 320.48 32.48 320.55C32.91 320.62 33.53 320.68 34.35 320.75C36.7627 320.964 39.1904 320.947 41.6 320.7C43.3349 320.516 45.0554 320.215 46.75 319.8C48.7752 319.359 50.721 318.61 52.52 317.58C53.5099 317.005 54.3737 316.236 55.06 315.32C55.7776 314.348 56.1601 313.169 56.15 311.96C56.1215 310.679 55.6677 309.444 54.86 308.45C53.9939 307.416 52.7684 306.748 51.43 306.58C50.0174 306.382 48.5832 306.741 47.43 307.58C46.2678 308.491 45.4583 309.778 45.14 311.22C44.7749 312.72 44.869 314.295 45.41 315.74C45.9794 317.247 46.87 318.612 48.02 319.74C50.579 322.143 53.713 323.848 57.1209 324.69C60.5288 325.532 64.0961 325.484 67.48 324.55C69.2858 324.123 70.9543 323.246 72.33 322C73.0062 321.369 73.506 320.573 73.78 319.69C74.0387 318.803 73.9713 317.852 73.59 317.01C73.1808 316.154 72.549 315.424 71.7608 314.896C70.9727 314.369 70.0571 314.063 69.11 314.01C68.1511 313.972 67.202 314.215 66.38 314.71C65.537 315.208 64.8188 315.892 64.28 316.71C63.1537 318.374 62.7263 320.414 63.09 322.39C63.4797 324.4 64.39 326.272 65.73 327.82C68.5112 331.014 72.4057 333.028 76.62 333.45C78.7217 333.682 80.8479 333.54 82.9 333.03C84.9146 332.494 86.8039 331.566 88.46 330.3C91.7278 327.732 93.9666 324.078 94.77 320C95.1888 318.057 95.2498 316.055 94.95 314.09C94.7364 312.167 93.9764 310.345 92.76 308.84C92.1642 308.132 91.3555 307.635 90.4543 307.424C89.5532 307.214 88.6081 307.3 87.76 307.67C86.9849 308.101 86.4103 308.819 86.16 309.67C85.9049 310.532 85.9049 311.449 86.16 312.31C86.7439 314.021 87.7806 315.542 89.16 316.71C90.4843 317.885 92.0083 318.813 93.66 319.45C96.8327 320.701 100.353 320.751 103.56 319.59C106.546 318.481 109.092 316.436 110.82 313.76C111.628 312.513 112.198 311.126 112.5 309.67C112.803 308.288 112.62 306.843 111.98 305.58C111.667 304.995 111.229 304.486 110.696 304.09C110.164 303.694 109.55 303.421 108.9 303.29C108.274 303.194 107.633 303.274 107.05 303.52C106.49 303.787 105.998 304.177 105.61 304.66C104.867 305.615 104.443 306.781 104.4 307.99C104.372 309.131 104.594 310.264 105.05 311.31C105.922 313.185 107.31 314.773 109.05 315.89C110.513 316.846 112.141 317.524 113.85 317.89C116.22 318.377 118.647 318.528 121.06 318.34L122.94 318.23C123.4 318.24 123.62 318.24 123.62 318.24Z" fill="white"/>
<path d="M424.42 120.52C424.03 121.83 417.37 132.33 407.76 135.9C398.15 139.47 391.01 143.42 393.68 148.12C396.35 152.82 408.15 150.26 408.15 150.26C408.15 150.26 384.2 176.26 406.75 191.17C434.24 209.32 463 144.38 463 144.38L424.42 120.52Z" fill="#EBEBEB"/>
<path d="M458.44 153.29C458.37 153.41 449.31 148.01 438.2 141.23C427.09 134.45 418.15 128.84 418.2 128.72C418.25 128.6 427.34 134 438.44 140.78C449.54 147.56 458.52 153.17 458.44 153.29Z" fill="#E0E0E0"/>
<path d="M454.19 161.08C454.11 161.2 444.32 155.45 432.32 148.25C420.32 141.05 410.65 135.09 410.72 134.97C410.79 134.85 420.59 140.59 432.59 147.8C444.59 155.01 454.26 161 454.19 161.08Z" fill="#E0E0E0"/>
<path d="M449.05 168.46C448.98 168.58 437.98 162.11 424.5 154.01C411.02 145.91 400.14 139.24 400.21 139.12C400.28 139 411.28 145.46 424.77 153.56C438.26 161.66 449.12 168.33 449.05 168.46Z" fill="#E0E0E0"/>
<path d="M442.64 177.59C442.56 177.71 434.04 172.51 423.64 165.98C413.24 159.45 404.81 154.06 404.89 153.98C404.97 153.9 413.48 159.06 423.89 165.59C434.3 172.12 442.71 177.47 442.64 177.59Z" fill="#E0E0E0"/>
<path d="M435.1 186.4C435.02 186.52 427.1 181.4 417.38 174.97C407.66 168.54 399.87 163.22 400 163.1C400.13 162.98 408 168.1 417.72 174.54C427.44 180.98 435.18 186.28 435.1 186.4Z" fill="#E0E0E0"/>
<path d="M425.48 192.52C425.062 192.374 424.66 192.186 424.28 191.96C423.52 191.56 422.44 190.96 421.11 190.22C418.45 188.73 414.83 186.58 410.91 184.07C406.99 181.56 403.52 179.16 401.05 177.37C399.82 176.47 398.83 175.73 398.16 175.21C397.796 174.961 397.461 174.673 397.16 174.35C397.558 174.542 397.937 174.773 398.29 175.04L401.29 177.04C403.81 178.75 407.29 181.1 411.22 183.61C415.15 186.12 418.72 188.31 421.33 189.89L424.41 191.76C424.79 191.979 425.148 192.234 425.48 192.52Z" fill="#E0E0E0"/>
<path d="M402.93 150.86C401.028 150.372 399.229 149.546 397.62 148.42C395.919 147.441 394.411 146.16 393.17 144.64C393.27 144.52 395.17 146.28 397.9 147.98C400.63 149.68 403 150.71 402.93 150.86Z" fill="#E0E0E0"/>
<path d="M461.18 143C461.095 143.205 460.98 143.397 460.84 143.57L459.77 145.12C458.84 146.47 457.46 148.4 455.77 150.76C452.32 155.5 447.45 161.97 441.89 168.97C436.33 175.97 431.12 182.18 427.29 186.62C425.38 188.84 423.81 190.62 422.71 191.83C422.19 192.4 421.77 192.83 421.44 193.22C421.3 193.393 421.143 193.55 420.97 193.69C421.081 193.5 421.212 193.322 421.36 193.16L422.56 191.7L427 186.4C430.76 181.91 435.91 175.66 441.47 168.67C447.03 161.68 451.94 155.24 455.47 150.56L459.65 145.02L460.79 143.53C460.906 143.343 461.036 143.166 461.18 143Z" fill="#E0E0E0"/>
<path d="M453.39 137.47C453.5 137.56 443.95 150.02 432.06 165.3C420.17 180.58 410.44 192.9 410.32 192.81C410.2 192.72 419.76 180.27 431.65 164.98C443.54 149.69 453.28 137.38 453.39 137.47Z" fill="#E0E0E0"/>
<path d="M442.52 131.31C442.435 131.526 442.331 131.733 442.21 131.93L441.21 133.65C440.35 135.14 439.05 137.27 437.38 139.85C434.04 145.02 429.08 151.93 423.23 159.28C417.38 166.63 411.85 173.08 407.86 177.76L403.11 183.27L401.79 184.76C401.645 184.937 401.484 185.101 401.31 185.25C401.43 185.054 401.564 184.867 401.71 184.69L402.95 183.14L407.58 177.52C411.5 172.78 416.98 166.29 422.82 158.95C428.66 151.61 433.66 144.75 437.07 139.64C438.78 137.09 440.12 135 441.07 133.54L442.13 131.87C442.238 131.669 442.369 131.481 442.52 131.31Z" fill="#E0E0E0"/>
<path d="M433.6 126.2C433.71 126.29 425.6 137.06 415.42 150.26C405.24 163.46 397 174.09 396.83 174C396.66 173.91 404.83 163.14 415.01 149.93C425.19 136.72 433.48 126.11 433.6 126.2Z" fill="#E0E0E0"/>
<path d="M426.89 121.83C426.641 122.332 426.354 122.813 426.03 123.27C425.75 123.72 425.38 124.27 424.93 124.89C424.48 125.51 423.98 126.23 423.36 126.97C421.95 128.725 420.437 130.394 418.83 131.97C414.88 135.864 410.387 139.165 405.49 141.77C403.494 142.828 401.437 143.767 399.33 144.58C398.44 144.95 397.6 145.2 396.88 145.45C396.263 145.672 395.636 145.862 395 146.02C394.467 146.189 393.922 146.319 393.37 146.41C393.875 146.171 394.401 145.977 394.94 145.83C395.45 145.66 396.07 145.46 396.78 145.18C397.49 144.9 398.32 144.63 399.19 144.24C401.262 143.382 403.288 142.417 405.26 141.35C407.665 140.021 409.986 138.545 412.21 136.93C414.415 135.293 416.516 133.52 418.5 131.62C420.114 130.063 421.64 128.417 423.07 126.69C423.71 125.97 424.22 125.27 424.69 124.69C425.16 124.11 425.56 123.56 425.87 123.12C426.171 122.661 426.512 122.229 426.89 121.83Z" fill="#E0E0E0"/>
<path d="M473.53 107.48H345.66V120.98H473.53V107.48Z" fill="#E0E0E0"/>
<path d="M386.2 120.52C385.81 121.83 379.15 132.33 369.54 135.9C359.93 139.47 352.79 143.42 355.46 148.12C358.13 152.82 369.93 150.26 369.93 150.26C369.93 150.26 345.98 176.26 368.53 191.17C396.02 209.32 424.75 144.38 424.75 144.38L386.2 120.52Z" fill="#F5F5F5"/>
<path d="M420.22 153.29C420.15 153.41 411.09 148.01 399.98 141.23C388.87 134.45 379.93 128.84 379.98 128.72C380.03 128.6 389.12 134 400.22 140.78C411.32 147.56 420.3 153.17 420.22 153.29Z" fill="#E0E0E0"/>
<path d="M416 161.08C415.92 161.2 406.13 155.45 394.13 148.25C382.13 141.05 372.43 135.09 372.5 135C372.57 134.91 382.37 140.62 394.37 147.83C406.37 155.04 416 161 416 161.08Z" fill="#E0E0E0"/>
<path d="M410.83 168.46C410.76 168.58 399.76 162.11 386.28 154.01C372.8 145.91 361.92 139.24 362 139.12C362.08 139 373.07 145.46 386.56 153.56C400.05 161.66 410.9 168.33 410.83 168.46Z" fill="#E0E0E0"/>
<path d="M404.42 177.59C404.34 177.71 395.82 172.51 385.42 165.98C375.02 159.45 366.59 154.06 366.67 153.98C366.75 153.9 375.26 159.06 385.67 165.59C396.08 172.12 404.49 177.47 404.42 177.59Z" fill="#E0E0E0"/>
<path d="M396.88 186.4C396.8 186.52 388.88 181.4 379.16 174.97C369.44 168.54 361.65 163.22 361.73 163.1C361.81 162.98 369.73 168.1 379.45 174.54C389.17 180.98 397 186.28 396.88 186.4Z" fill="#E0E0E0"/>
<path d="M387.26 192.52C386.842 192.374 386.44 192.186 386.06 191.96C385.3 191.56 384.22 190.96 382.89 190.22C380.23 188.73 376.61 186.58 372.69 184.07C368.77 181.56 365.3 179.16 362.83 177.37C361.6 176.47 360.61 175.73 359.94 175.21C359.576 174.961 359.241 174.673 358.94 174.35C359.338 174.542 359.717 174.773 360.07 175.04L363.07 177.04C365.59 178.75 369.07 181.1 373 183.61C376.93 186.12 380.5 188.31 383.1 189.89L386.19 191.76C386.57 191.979 386.928 192.234 387.26 192.52Z" fill="#E0E0E0"/>
<path d="M364.71 150.86C362.808 150.372 361.009 149.546 359.4 148.42C357.699 147.441 356.191 146.16 354.95 144.64C355.05 144.52 356.95 146.28 359.68 147.98C362.41 149.68 364.77 150.71 364.71 150.86Z" fill="#E0E0E0"/>
<path d="M423 143C422.915 143.205 422.8 143.397 422.66 143.57L421.59 145.12C420.66 146.47 419.28 148.4 417.59 150.76C414.14 155.5 409.27 161.97 403.71 168.97C398.15 175.97 392.86 182.2 389 186.64C387.09 188.86 385.52 190.64 384.42 191.85C383.9 192.42 383.48 192.85 383.15 193.24C383.01 193.413 382.853 193.57 382.68 193.71C382.791 193.52 382.922 193.342 383.07 193.18L384.27 191.72L388.72 186.4C392.48 181.91 397.63 175.66 403.19 168.67C408.75 161.68 413.66 155.24 417.19 150.56L421.37 145.02L422.51 143.53C422.658 143.34 422.822 143.162 423 143Z" fill="#E0E0E0"/>
<path d="M415.17 137.47C415.28 137.56 405.73 150.02 393.84 165.3C381.95 180.58 372.22 192.9 372.1 192.81C371.98 192.72 381.54 180.27 393.43 164.98C405.32 149.69 415.06 137.38 415.17 137.47Z" fill="#E0E0E0"/>
<path d="M404.3 131.31C404.215 131.526 404.111 131.733 403.99 131.93L402.99 133.65C402.13 135.14 400.83 137.27 399.16 139.85C395.82 145.02 390.86 151.93 385.01 159.28C379.16 166.63 373.63 173.08 369.64 177.76L364.89 183.27L363.57 184.76C363.425 184.937 363.264 185.101 363.09 185.25C363.206 185.051 363.339 184.864 363.49 184.69L364.73 183.14L369.36 177.52C373.28 172.78 378.76 166.29 384.6 158.95C390.44 151.61 395.44 144.75 398.85 139.64C400.56 137.09 401.9 135 402.85 133.54C403.28 132.85 403.64 132.3 403.91 131.87C404.018 131.669 404.149 131.481 404.3 131.31Z" fill="#E0E0E0"/>
<path d="M395.38 126.2C395.49 126.29 387.38 137.06 377.2 150.26C367.02 163.46 358.73 174.09 358.61 174C358.49 173.91 366.61 163.14 376.79 149.93C386.97 136.72 395.26 126.11 395.38 126.2Z" fill="#E0E0E0"/>
<path d="M388.67 121.83C388.421 122.332 388.134 122.813 387.81 123.27C387.53 123.72 387.16 124.27 386.71 124.89C386.26 125.51 385.76 126.23 385.14 126.97C383.73 128.725 382.217 130.394 380.61 131.97C376.66 135.864 372.167 139.165 367.27 141.77C365.273 142.827 363.217 143.765 361.11 144.58C360.22 144.95 359.38 145.2 358.66 145.45C358.043 145.672 357.416 145.862 356.78 146.02C356.247 146.189 355.702 146.319 355.15 146.41C355.655 146.171 356.181 145.977 356.72 145.83C357.23 145.66 357.85 145.46 358.56 145.18C359.27 144.9 360.1 144.63 360.97 144.24C363.042 143.382 365.068 142.417 367.04 141.35C369.447 140.044 371.771 138.591 374 137C376.205 135.363 378.306 133.59 380.29 131.69C381.904 130.133 383.43 128.487 384.86 126.76C385.5 126.04 386.01 125.34 386.48 124.76C386.95 124.18 387.34 123.63 387.65 123.19C387.949 122.708 388.291 122.253 388.67 121.83Z" fill="#E0E0E0"/>
<path d="M413.76 39.92H405.58V48.1H413.76V39.92Z" fill="#E0E0E0"/>
<path d="M447.97 58.9801H371.75V107.08H447.97V58.9801Z" fill="#F5F5F5"/>
<path d="M371.75 59C371.75 59 383.42 46.81 412.68 47.3C441.94 47.79 448 59 448 59H371.75Z" fill="#F5F5F5"/>
<path d="M447.68 59.77C447.68 59.91 430.54 60.03 409.41 60.03C388.28 60.03 371.14 59.91 371.14 59.77C371.14 59.63 388.27 59.5 409.41 59.5C430.55 59.5 447.68 59.62 447.68 59.77Z" fill="#E0E0E0"/>
<path d="M447.68 59.77H464.9C465.632 59.77 466.334 60.0608 466.852 60.5784C467.369 61.096 467.66 61.798 467.66 62.53V63.59C467.66 64.322 467.369 65.024 466.852 65.5416C466.334 66.0592 465.632 66.35 464.9 66.35H447.68V59.76V59.77Z" fill="#E0E0E0"/>
<path d="M372.03 66.3501H354.81C354.078 66.3501 353.376 66.0593 352.858 65.5417C352.341 65.0241 352.05 64.3221 352.05 63.5901V62.5301C352.05 61.7981 352.341 61.0961 352.858 60.5785C353.376 60.0609 354.078 59.7701 354.81 59.7701H372.03V66.3601V66.3501Z" fill="#E0E0E0"/>
<path d="M418.2 37.5601H401.53C400.436 37.5601 399.55 38.4465 399.55 39.5401V40.3001C399.55 41.3936 400.436 42.2801 401.53 42.2801H418.2C419.294 42.2801 420.18 41.3936 420.18 40.3001V39.5401C420.18 38.4465 419.294 37.5601 418.2 37.5601Z" fill="#E0E0E0"/>
<path d="M470.5 351.77C470.5 351.91 371.77 352.03 250.01 352.03C128.25 352.03 29.5 351.91 29.5 351.77C29.5 351.63 128.21 351.51 250.01 351.51C371.81 351.51 470.5 351.63 470.5 351.77Z" fill="#263238"/>
<path d="M323.92 205.56C323.52 207.27 315.01 284.75 315.01 284.75L307.31 295.7L305.22 312.46L321.22 352.03H202.84C202.84 352.03 200.97 331.12 201.13 325.53C201.29 319.94 204.13 299.43 204.13 299.43L203.86 278.6L199.38 187.81L239.48 174.87C263.71 170.7 299.37 188.87 299.37 188.87L323.92 205.56Z" fill="#9F9070"/>
<path d="M308.54 147.81C313.81 147.48 317.85 143.08 320.75 138.67C323.47 134.55 325.75 129.93 325.81 125C325.81 120.72 324.13 116.64 322.45 112.7C320.77 108.76 318.96 104.54 316.25 101.07C313.54 97.6 309.7 94.78 305.32 94.24" fill="#263238"/>
<path d="M246.94 168.46L247 167.15L250.09 91.5L251.8 87.21L289.64 82C292.574 81.7714 295.523 82.1397 298.311 83.0826C301.098 84.0255 303.666 85.5235 305.858 87.4861C308.051 89.4487 309.823 91.8352 311.067 94.5016C312.312 97.168 313.004 100.059 313.1 103C313.58 116.77 313.64 133.6 311.72 143.81C307.88 164.29 292 166.48 292 166.48C292 166.48 291.73 171.85 291.43 179.62C291.21 185.48 286.03 202.39 280.16 202.56C277.64 202.63 270.76 200.44 267.48 199.96C246.79 196.94 246.94 168.46 246.94 168.46Z" fill="#FFBE9D"/>
<path d="M306.11 114.94C306.1 115.63 305.82 116.288 305.33 116.774C304.84 117.26 304.18 117.535 303.49 117.54C303.153 117.557 302.816 117.507 302.498 117.392C302.181 117.277 301.889 117.1 301.641 116.871C301.393 116.642 301.194 116.365 301.055 116.057C300.915 115.75 300.839 115.417 300.83 115.08C300.84 114.39 301.12 113.732 301.61 113.246C302.1 112.76 302.76 112.485 303.45 112.48C303.787 112.462 304.124 112.513 304.442 112.628C304.759 112.743 305.051 112.92 305.299 113.149C305.547 113.378 305.746 113.655 305.885 113.963C306.025 114.27 306.101 114.602 306.11 114.94Z" fill="#263238"/>
<path d="M309.21 111.59C308.87 111.93 306.91 110.39 304.06 110.32C301.21 110.25 299.06 111.61 298.79 111.25C298.64 111.1 298.99 110.48 299.92 109.85C301.173 109.026 302.652 108.614 304.15 108.67C305.631 108.705 307.063 109.209 308.24 110.11C309.09 110.81 309.37 111.44 309.21 111.59Z" fill="#263238"/>
<path d="M278.26 114.67C278.25 115.36 277.97 116.018 277.48 116.504C276.99 116.99 276.33 117.265 275.64 117.27C275.303 117.288 274.966 117.237 274.648 117.122C274.331 117.007 274.039 116.83 273.791 116.601C273.543 116.372 273.344 116.095 273.205 115.787C273.065 115.48 272.989 115.148 272.98 114.81C272.99 114.12 273.27 113.462 273.76 112.976C274.25 112.49 274.91 112.215 275.6 112.21C275.937 112.193 276.274 112.243 276.592 112.358C276.909 112.473 277.201 112.65 277.449 112.879C277.697 113.108 277.896 113.385 278.035 113.693C278.175 114 278.251 114.333 278.26 114.67Z" fill="#263238"/>
<path d="M281.22 111.35C280.88 111.69 278.91 110.15 276.07 110.08C273.23 110.01 271.07 111.37 270.8 111.01C270.65 110.86 271 110.24 271.93 109.61C273.182 108.785 274.661 108.373 276.16 108.43C277.641 108.465 279.073 108.969 280.25 109.87C281.1 110.57 281.38 111.2 281.22 111.35Z" fill="#263238"/>
<path d="M291 132.74C291 132.58 292.77 132.32 295.65 132.04C296.38 131.98 297.07 131.85 297.21 131.36C297.287 130.61 297.138 129.854 296.78 129.19L294.78 123.6C292.02 115.6 290.03 109.1 290.36 108.99C290.69 108.88 293.18 115.25 295.95 123.21C296.61 125.21 297.25 127.04 297.85 128.83C298.287 129.721 298.393 130.738 298.15 131.7C298.034 131.947 297.864 132.165 297.653 132.338C297.442 132.511 297.195 132.635 296.93 132.7C296.524 132.797 296.107 132.841 295.69 132.83C292.76 132.94 291 132.9 291 132.74Z" fill="#263238"/>
<path d="M292 166.48C282.284 166.359 272.792 163.544 264.58 158.35C264.58 158.35 270.89 172.7 291.58 171.35L292 166.48Z" fill="#EB996E"/>
<path d="M289.57 139.57C289.045 138.879 288.353 138.333 287.558 137.983C286.764 137.634 285.894 137.491 285.03 137.57C284.4 137.609 283.784 137.775 283.219 138.057C282.654 138.338 282.151 138.731 281.74 139.21C281.351 139.677 281.113 140.251 281.058 140.857C281.002 141.462 281.132 142.07 281.43 142.6C281.877 143.116 282.468 143.487 283.127 143.665C283.786 143.843 284.484 143.821 285.13 143.6C286.489 143.164 287.747 142.46 288.83 141.53C289.156 141.312 289.438 141.034 289.66 140.71C289.767 140.554 289.824 140.369 289.824 140.18C289.824 139.991 289.767 139.806 289.66 139.65" fill="#EB996E"/>
<path d="M282.53 134.48C283 134.48 282.92 137.55 285.53 139.82C288.14 142.09 291.41 141.82 291.43 142.27C291.43 142.46 290.68 142.85 289.28 142.85C287.471 142.827 285.728 142.165 284.36 140.98C283.044 139.845 282.223 138.241 282.07 136.51C282 135.21 282.32 134.46 282.53 134.48Z" fill="#263238"/>
<path d="M282.26 100.22C281.96 100.98 279.13 100.54 275.78 100.85C272.43 101.16 269.7 101.99 269.28 101.29C269.09 100.95 269.58 100.29 270.69 99.52C272.168 98.6418 273.827 98.1116 275.54 97.9695C277.254 97.8275 278.977 98.0772 280.58 98.7C281.79 99.23 282.39 99.85 282.26 100.22Z" fill="#263238"/>
<path d="M308.39 103.32C307.87 103.96 305.93 103.23 303.57 103.14C301.21 103.05 299.2 103.45 298.76 102.76C298.57 102.43 298.9 101.76 299.76 101.2C300.953 100.5 302.327 100.169 303.708 100.249C305.089 100.329 306.416 100.817 307.52 101.65C308.36 102.34 308.62 103 308.39 103.32Z" fill="#263238"/>
<path d="M246.74 114.62C242.724 117.082 239.201 120.27 236.35 124.02C233.07 128.13 230.94 133.45 231.76 138.65C232.89 145.86 239.14 150.98 244.95 155.4C248.29 155.88 250.78 152.19 251.3 148.85C251.82 145.51 251.36 141.9 252.94 138.91C254.36 136.23 257.16 134.59 259.03 132.2C262.51 127.76 262.28 121.51 261.43 115.93C260.58 110.35 261.43 101.93 268.6 93.9299C268.6 93.9999 251.16 100.81 246.74 114.62Z" fill="#263238"/>
<path d="M240.56 133.19C243.56 128.86 242.8 122.51 239.33 118.5C235.86 114.49 230.26 112.75 224.98 113.2C221.14 113.53 217.25 115.04 214.77 117.99C212.29 120.94 211.54 125.49 213.6 128.75C214.74 130.55 216.72 132.25 216.27 134.34C215.82 136.43 213.45 137.1 211.77 138.28C210.327 139.364 209.261 140.874 208.723 142.596C208.184 144.319 208.201 146.167 208.77 147.88C209.392 149.57 210.43 151.077 211.788 152.26C213.146 153.443 214.78 154.265 216.54 154.65C220.098 155.367 223.795 154.702 226.88 152.79C226.88 156 230.33 158.45 233.52 158.18C236.71 157.91 239.42 155.58 241.13 152.87C243.427 148.938 244.519 144.417 244.27 139.87C244.02 135.346 243.326 130.858 242.2 126.47" fill="#263238"/>
<path d="M245.84 156.38C245.671 156.302 245.512 156.201 245.37 156.08L244.07 155.14C242.96 154.31 241.35 153.14 239.48 151.46C237.253 149.56 235.286 147.374 233.63 144.96C231.579 141.969 230.392 138.471 230.2 134.85C230.114 132.97 230.41 131.092 231.07 129.33C231.713 127.697 232.663 126.204 233.87 124.93C235.96 122.887 238.267 121.08 240.75 119.54C242.38 118.469 243.934 117.286 245.4 116C245.91 115.53 246.29 115.15 246.54 114.88C246.659 114.739 246.793 114.612 246.94 114.5C246.94 114.5 246.84 114.67 246.61 114.95C246.282 115.372 245.925 115.769 245.54 116.14C244.118 117.501 242.586 118.742 240.96 119.85C238.533 121.42 236.274 123.236 234.22 125.27C233.065 126.502 232.158 127.945 231.55 129.52C230.922 131.22 230.639 133.029 230.72 134.84C230.901 138.363 232.035 141.771 234 144.7C235.62 147.094 237.535 149.275 239.7 151.19C241.53 152.85 243.1 154.1 244.17 154.98L245.4 155.98C245.561 156.097 245.708 156.231 245.84 156.38Z" fill="#455A64"/>
<path d="M231.14 130.28C231.05 130.33 230.53 129.22 229.21 127.82C227.52 125.966 225.317 124.658 222.88 124.061C220.444 123.464 217.885 123.607 215.53 124.47C213.72 125.11 212.74 125.84 212.69 125.76C212.64 125.68 212.89 125.53 213.34 125.21C213.987 124.776 214.677 124.411 215.4 124.12C217.813 123.137 220.474 122.941 223.004 123.561C225.535 124.18 227.805 125.583 229.49 127.57C230 128.159 230.442 128.803 230.81 129.49C230.965 129.732 231.077 130 231.14 130.28Z" fill="#455A64"/>
<path d="M215.09 135.76C215.03 135.76 215.4 134.76 216.75 133.92C217.537 133.453 218.406 133.141 219.31 133C220.398 132.832 221.5 132.769 222.6 132.81C224.592 132.864 226.569 133.177 228.48 133.74C229.284 133.924 230.054 134.234 230.76 134.66C229.957 134.514 229.162 134.324 228.38 134.09C226.477 133.644 224.534 133.39 222.58 133.33C220.65 133.145 218.705 133.459 216.93 134.24C216.242 134.648 215.621 135.161 215.09 135.76Z" fill="#455A64"/>
<path d="M211.65 152.1C211.65 152.01 213.08 152.04 215.33 151.6C218.247 151.034 221.015 149.87 223.46 148.18C225.88 146.459 227.922 144.26 229.46 141.72C230.64 139.77 231.11 138.41 231.2 138.45C231.157 138.794 231.066 139.131 230.93 139.45C230.611 140.308 230.226 141.14 229.78 141.94C228.302 144.599 226.238 146.886 223.745 148.629C221.252 150.372 218.395 151.525 215.39 152C214.487 152.141 213.574 152.211 212.66 152.21C212.319 152.233 211.978 152.195 211.65 152.1Z" fill="#455A64"/>
<path d="M232.14 130C232.14 129.95 232.75 130.54 234.01 131.23C235.815 132.17 237.838 132.612 239.87 132.51C241.262 132.461 242.638 132.198 243.95 131.73C245.454 131.166 246.858 130.366 248.11 129.36C250.937 126.979 253.187 123.987 254.69 120.61C256.171 117.208 257.44 113.718 258.49 110.16C259.379 107.24 260.489 104.392 261.81 101.64C262.709 99.7834 263.827 98.0411 265.14 96.45C265.61 95.9 266 95.45 266.28 95.22C266.414 95.0797 266.562 94.9525 266.72 94.84C266.72 94.84 266.18 95.44 265.3 96.58C264.063 98.202 263.004 99.952 262.14 101.8C260.873 104.556 259.807 107.4 258.95 110.31C257.92 113.896 256.654 117.411 255.16 120.83C253.628 124.284 251.314 127.334 248.4 129.74C247.106 130.765 245.653 131.572 244.1 132.13C242.742 132.602 241.318 132.856 239.88 132.88C237.781 132.96 235.701 132.447 233.88 131.4C233.593 131.247 233.322 131.066 233.07 130.86C232.874 130.727 232.69 130.576 232.52 130.41C232.381 130.285 232.254 130.148 232.14 130Z" fill="#455A64"/>
<path d="M261.49 111.42C261.54 111.42 261.13 112.02 260.67 113.19C260.078 114.86 259.741 116.61 259.67 118.38C259.617 121.042 259.319 123.693 258.78 126.3C257.892 129.493 256.066 132.345 253.54 134.49C251.04 136.676 247.916 138.023 244.61 138.34C241.928 138.572 239.229 138.157 236.74 137.13C235.07 136.449 233.528 135.489 232.18 134.29C231.825 133.979 231.491 133.645 231.18 133.29C231.058 133.169 230.951 133.035 230.86 132.89C230.91 132.89 231.36 133.39 232.34 134.17C233.711 135.295 235.254 136.193 236.91 136.83C239.354 137.783 241.988 138.15 244.6 137.9C247.798 137.568 250.814 136.251 253.23 134.13C255.682 132.054 257.464 129.298 258.35 126.21C258.908 123.637 259.242 121.021 259.35 118.39C259.46 116.591 259.859 114.822 260.53 113.15C260.73 112.703 260.964 112.272 261.23 111.86C261.299 111.704 261.387 111.556 261.49 111.42Z" fill="#455A64"/>
<path d="M320.75 137.33C320.75 137.33 321.09 137.02 321.62 136.41C322.381 135.547 322.975 134.55 323.37 133.47C323.959 131.873 324.201 130.168 324.08 128.47C323.902 126.379 323.321 124.341 322.37 122.47C320.37 118.47 317.67 115.4 315.88 113.06C315.169 112.131 314.521 111.156 313.94 110.14C313.706 109.778 313.518 109.388 313.38 108.98C313.657 109.309 313.902 109.664 314.11 110.04C314.56 110.72 315.25 111.69 316.17 112.83C318.01 115.1 320.82 118.15 322.84 122.24C323.818 124.158 324.403 126.253 324.56 128.4C324.665 130.161 324.378 131.923 323.72 133.56C323.259 134.665 322.579 135.665 321.72 136.5C321.492 136.721 321.248 136.925 320.99 137.11C320.86 137.29 320.76 137.35 320.75 137.33Z" fill="#455A64"/>
<path d="M317.79 143.19C318.782 142.122 319.614 140.917 320.26 139.61C320.906 138.176 321.247 136.623 321.26 135.05C321.259 133.12 320.865 131.211 320.1 129.44C319.304 127.661 318.402 125.931 317.4 124.26C316.53 122.68 315.78 121.26 315.17 120.01C314.56 118.76 314.1 117.79 313.8 117.09C313.616 116.736 313.478 116.359 313.39 115.97C313.617 116.285 313.814 116.619 313.98 116.97L315.5 119.81C316.15 121.01 316.93 122.43 317.82 124C318.857 125.672 319.779 127.413 320.58 129.21C321.372 131.047 321.767 133.03 321.74 135.03C321.701 136.662 321.316 138.268 320.61 139.74C320.125 140.722 319.487 141.619 318.72 142.4C318.511 142.608 318.29 142.805 318.06 142.99C317.89 143.14 317.8 143.2 317.79 143.19Z" fill="#455A64"/>
<path d="M245.76 117.27C252.61 105.58 262.19 94.71 275.37 91.56C281.803 89.9705 288.494 89.7157 295.029 90.8113C301.565 91.9069 307.807 94.3295 313.37 97.93V74.88L296.92 21.78L284.11 15L253.83 32.32L246 96.19L245.76 117.27Z" fill="#9F9070"/>
<g opacity="0.7">
<path d="M245.76 117.27C252.61 105.58 262.19 94.71 275.37 91.56C281.803 89.9705 288.494 89.7157 295.029 90.8113C301.565 91.9069 307.807 94.3295 313.37 97.93V74.88L296.92 21.78L284.11 15L253.83 32.32L246 96.19L245.76 117.27Z" fill="white"/>
</g>
<path d="M312.74 75.72C312.486 75.6315 312.241 75.5176 312.01 75.38C311.54 75.15 310.88 74.75 310.01 74.38C307.49 73.1518 304.858 72.1673 302.15 71.44C298.137 70.3538 294.007 69.7594 289.85 69.67C287.397 69.6137 284.942 69.7039 282.5 69.94C279.881 70.1355 277.29 70.6081 274.77 71.35C269.936 72.9417 265.361 75.2327 261.19 78.15C257.762 80.4953 254.659 83.2827 251.96 86.44C250.15 88.5897 248.59 90.9381 247.31 93.44C246.93 94.31 246.62 95 246.38 95.52C246.289 95.7718 246.172 96.0131 246.03 96.24C246.093 95.9823 246.18 95.7311 246.29 95.49C246.48 95 246.74 94.27 247.13 93.35C248.35 90.799 249.875 88.4049 251.67 86.22C254.361 83.0022 257.473 80.1602 260.92 77.77C265.117 74.8 269.735 72.4743 274.62 70.87C277.176 70.1224 279.804 69.6464 282.46 69.45C284.919 69.2184 287.391 69.1382 289.86 69.21C294.052 69.3237 298.214 69.9586 302.25 71.1C304.967 71.8669 307.598 72.9125 310.1 74.22C311 74.65 311.65 75.08 312.1 75.34C312.323 75.4498 312.537 75.5769 312.74 75.72Z" fill="#263238"/>
<path d="M292.73 69.55C292.59 69.55 290.44 57.44 287.94 42.45C285.44 27.46 283.52 15.29 283.66 15.27C283.8 15.25 285.95 27.3801 288.45 42.3701C290.95 57.3601 292.87 69.53 292.73 69.55Z" fill="#263238"/>
<path d="M272.66 71.74C272.52 71.74 272.74 60.23 273.17 46.03C273.6 31.83 274.05 20.33 274.17 20.33C274.29 20.33 274.08 31.85 273.66 46.05C273.24 60.25 272.81 71.75 272.66 71.74Z" fill="#263238"/>
<path d="M255.58 81.3101C255.556 81.1275 255.556 80.9426 255.58 80.7601C255.58 80.3401 255.58 79.8201 255.64 79.1901C255.71 77.8301 255.84 75.8501 256.03 73.4201C256.41 68.5601 257.03 61.8401 258.03 54.4201C259.03 47.0001 260.03 40.4201 260.82 35.5601C261.24 33.1501 261.6 31.2101 261.88 29.8701C262.01 29.2501 262.12 28.7501 262.2 28.3401C262.224 28.1571 262.275 27.9785 262.35 27.8101C262.372 27.9927 262.372 28.1774 262.35 28.3601C262.28 28.7701 262.21 29.2801 262.12 29.9101C261.9 31.3301 261.59 33.2601 261.23 35.6201C260.48 40.4401 259.52 47.1101 258.59 54.4901C257.66 61.8701 256.94 68.5701 256.47 73.4201C256.24 75.8001 256.05 77.7401 255.92 79.1701C255.85 79.8101 255.8 80.3201 255.75 80.7401C255.721 80.9373 255.664 81.1293 255.58 81.3101Z" fill="#263238"/>
<path d="M295.65 73.4399C295.732 74.2111 295.732 74.9888 295.65 75.7599C295.53 77.3799 295.39 79.2499 295.24 81.3199C295.09 83.3899 294.94 85.2599 294.82 86.8799C294.806 87.6548 294.709 88.4259 294.53 89.1799C294.409 88.4127 294.382 87.6336 294.45 86.8599C294.45 85.4299 294.56 83.4599 294.72 81.2799C294.88 79.0999 295.09 77.1399 295.28 75.7199C295.315 74.9482 295.439 74.1831 295.65 73.4399Z" fill="#263238"/>
<path d="M200.22 300.85C198.96 299.01 195.57 297.37 193.35 297.13C185.67 296.29 178.67 299.6 172.61 304.4L171.42 306.57C168.16 309.11 164.76 312.01 163.75 316.02C162.826 320.197 162.36 324.462 162.36 328.74C162.455 331.011 163.376 333.17 164.95 334.81C166.399 336.414 168.414 337.393 170.57 337.54C174.647 337.857 178.726 336.944 182.28 334.92C185.81 332.888 188.925 330.208 191.46 327.02C196.193 321.234 199.409 314.36 200.82 307.02C201.22 305 201.42 302.62 200.22 300.85Z" fill="#9F9070"/>
<g opacity="0.4">
<path d="M200.22 300.85C198.96 299.01 195.57 297.37 193.35 297.13C185.67 296.29 178.67 299.6 172.61 304.4L171.42 306.57C168.16 309.11 164.76 312.01 163.75 316.02C162.826 320.197 162.36 324.462 162.36 328.74C162.455 331.011 163.376 333.17 164.95 334.81C166.399 336.414 168.414 337.393 170.57 337.54C174.647 337.857 178.726 336.944 182.28 334.92C185.81 332.888 188.925 330.208 191.46 327.02C196.193 321.234 199.409 314.36 200.82 307.02C201.22 305 201.42 302.62 200.22 300.85Z" fill="black"/>
</g>
<path d="M199.39 187.81C198.18 188.21 138.25 273.15 136.64 278.81C135.03 284.47 126.26 297.92 138.64 310.55C146.318 318.326 154.503 325.586 163.14 332.28C160.36 310.87 181.43 293.61 196.14 298.09L184.89 290.46L210.6 256.31" fill="#9F9070"/>
<path d="M323.92 205.56C323.92 205.56 333.35 217.35 335.7 224.98C337.7 231.5 348.4 261.67 348.4 261.67L367.87 309.92C367.87 309.92 364.87 314.18 364.2 317.79C363.92 319.23 361.45 341.4 355.55 350.79L324.32 336.79L320.38 308.84L315 284.75L320.56 219.9L323.92 205.56Z" fill="#9F9070"/>
<path d="M236.27 175.55C236.27 175.55 244.27 168.17 246.49 167.13C246.49 167.13 249.03 175.8 256.49 179.9C263.95 184 268.76 188.42 268.76 189.01V199.76C268.76 199.76 238.19 191.41 236.27 175.55Z" fill="#9F9070"/>
<path d="M241.38 230.24L300.78 226.65L298 192.72L295.45 187L291.45 179.78C291.244 182.221 290.259 184.532 288.64 186.37C285.369 189.688 281.154 191.916 276.57 192.75L275.4 199.75L245.3 187.32C245.3 187.32 241.38 228.32 241.38 229.26" fill="#9F9070"/>
<path d="M276.55 192.72C276.566 192.873 276.566 193.027 276.55 193.18C276.5 193.51 276.43 193.96 276.35 194.53C276.157 195.75 275.883 197.5 275.53 199.78V199.87H275.43L251 200.62L247 200.73L244.91 200.79C244.234 200.771 243.559 200.859 242.91 201.05C242.254 201.278 241.659 201.653 241.169 202.145C240.678 202.637 240.306 203.233 240.08 203.89C239.861 204.577 239.783 205.302 239.85 206.02C239.85 206.78 239.85 207.54 239.85 208.3C239.98 214.42 240.12 220.9 240.26 227.6C240.72 246.38 241.01 263.39 240.92 275.7C240.92 281.86 240.82 286.84 240.74 290.28C240.69 291.97 240.66 293.28 240.63 294.28C240.63 294.71 240.63 295.05 240.63 295.28C240.643 295.396 240.643 295.514 240.63 295.63C240.615 295.514 240.615 295.396 240.63 295.28C240.63 295.02 240.63 294.68 240.63 294.28C240.63 293.34 240.63 292.01 240.63 290.28C240.63 286.81 240.63 281.84 240.63 275.71C240.63 263.4 240.28 246.4 239.82 227.62C239.69 220.92 239.56 214.44 239.43 208.32V206.04C239.371 205.266 239.463 204.489 239.7 203.75C239.949 203.023 240.36 202.363 240.903 201.819C241.445 201.275 242.104 200.861 242.83 200.61C243.534 200.404 244.267 200.313 245 200.34L247.08 200.29L251.08 200.19L275.52 199.65L275.41 199.75C275.81 197.477 276.117 195.733 276.33 194.52L276.59 193.18C276.566 193.028 276.553 192.874 276.55 192.72Z" fill="#263238"/>
<path d="M246.75 215.4C248.153 215.4 249.29 214.263 249.29 212.86C249.29 211.457 248.153 210.32 246.75 210.32C245.347 210.32 244.21 211.457 244.21 212.86C244.21 214.263 245.347 215.4 246.75 215.4Z" fill="#263238"/>
<path d="M261 210.13C261 210.29 258.14 210.66 254.66 211.47C251.18 212.28 248.43 213.2 248.38 213.06C250.323 212.072 252.398 211.364 254.54 210.96C256.645 210.388 258.819 210.109 261 210.13Z" fill="#263238"/>
<path d="M256.69 215.18C255.194 214.95 253.712 214.64 252.25 214.25C250.754 214.023 249.272 213.712 247.81 213.32C250.873 213.252 253.912 213.888 256.69 215.18Z" fill="#263238"/>
<path d="M246.75 244.12C248.153 244.12 249.29 242.983 249.29 241.58C249.29 240.177 248.153 239.04 246.75 239.04C245.347 239.04 244.21 240.177 244.21 241.58C244.21 242.983 245.347 244.12 246.75 244.12Z" fill="#263238"/>
<path d="M261 238.86C261 239.01 258.14 239.38 254.66 240.19C251.18 241 248.43 241.92 248.38 241.78C250.323 240.792 252.397 240.088 254.54 239.69C256.644 239.112 258.818 238.833 261 238.86Z" fill="#263238"/>
<path d="M256.69 243.9C255.194 243.67 253.712 243.36 252.25 242.97C250.754 242.743 249.272 242.432 247.81 242.04C250.873 241.972 253.912 242.608 256.69 243.9Z" fill="#263238"/>
<path d="M246.75 272.85C248.153 272.85 249.29 271.713 249.29 270.31C249.29 268.907 248.153 267.77 246.75 267.77C245.347 267.77 244.21 268.907 244.21 270.31C244.21 271.713 245.347 272.85 246.75 272.85Z" fill="#263238"/>
<path d="M261 267.58C261 267.73 258.14 268.1 254.66 268.91C251.18 269.72 248.43 270.64 248.38 270.5C250.323 269.512 252.397 268.808 254.54 268.41C256.644 267.833 258.818 267.553 261 267.58Z" fill="#263238"/>
<path d="M256.69 272.62C255.194 272.39 253.712 272.08 252.25 271.69C250.754 271.463 249.272 271.152 247.81 270.76C249.34 270.641 250.878 270.783 252.36 271.18C253.876 271.406 255.341 271.893 256.69 272.62Z" fill="#263238"/>
<path d="M207 264C207.02 263.752 207.067 263.508 207.14 263.27C207.26 262.75 207.43 262.07 207.64 261.22C208.08 259.43 208.74 256.86 209.49 253.67C210.24 250.48 211.07 246.67 211.72 242.37C212.446 237.74 212.754 233.055 212.64 228.37C212.478 223.68 211.677 219.034 210.26 214.56C209.112 210.906 207.449 207.434 205.32 204.25C203.887 202.103 202.209 200.129 200.32 198.37C199.68 197.72 199.09 197.31 198.74 196.98C198.541 196.831 198.36 196.66 198.2 196.47C198.41 196.595 198.611 196.735 198.8 196.89C199.18 197.2 199.8 197.59 200.46 198.22C202.417 199.939 204.153 201.894 205.63 204.04C207.822 207.232 209.54 210.725 210.73 214.41C212.183 218.922 213.004 223.613 213.17 228.35C213.282 233.078 212.947 237.805 212.17 242.47C211.5 246.77 210.62 250.59 209.83 253.78C209.04 256.97 208.32 259.53 207.83 261.3C207.59 262.14 207.39 262.82 207.24 263.3C207.176 263.539 207.096 263.772 207 264Z" fill="#263238"/>
<path d="M206 263.14C205.849 262.707 205.735 262.262 205.66 261.81C205.47 260.95 205.25 259.69 205.02 258.12C204.441 254.036 204.177 249.914 204.23 245.79C204.29 241.663 204.671 237.548 205.37 233.48C205.64 231.93 205.9 230.67 206.12 229.82C206.201 229.365 206.329 228.919 206.5 228.49C206.483 228.951 206.422 229.41 206.32 229.86C206.16 230.72 205.96 231.98 205.74 233.54C205.143 237.601 204.809 241.696 204.74 245.8C204.693 249.899 204.906 253.998 205.38 258.07C205.56 259.64 205.72 260.9 205.85 261.77C205.952 262.219 206.002 262.679 206 263.14Z" fill="#263238"/>
<path d="M149.15 289.2C149.657 289.033 150.175 288.902 150.7 288.81C152.084 288.405 153.424 287.862 154.7 287.19C156.33 286.35 158.18 285.19 160.29 283.92C162.545 282.46 165.045 281.42 167.67 280.85C170.361 280.415 173.12 280.868 175.53 282.14C177.461 283.169 179.244 284.454 180.83 285.96C181.899 286.953 182.901 288.015 183.83 289.14C184.202 289.539 184.536 289.971 184.83 290.43C184.431 290.073 184.056 289.689 183.71 289.28C182.721 288.228 181.68 287.227 180.59 286.28C178.996 284.839 177.225 283.606 175.32 282.61C172.994 281.409 170.343 280.988 167.76 281.41C165.191 281.974 162.743 282.99 160.53 284.41C158.42 285.63 156.53 286.78 154.86 287.59C153.544 288.246 152.154 288.743 150.72 289.07C150.327 289.152 149.93 289.212 149.53 289.25C149.402 289.249 149.274 289.232 149.15 289.2Z" fill="#263238"/>
<path d="M169.86 268.39C170.192 268.471 170.511 268.596 170.81 268.76C171.181 268.906 171.539 269.083 171.88 269.29C172.347 269.54 172.801 269.814 173.24 270.11C174.395 270.867 175.476 271.731 176.47 272.69C178.916 275.043 180.817 277.904 182.04 281.07C182.542 282.365 182.92 283.704 183.17 285.07C183.274 285.589 183.351 286.113 183.4 286.64C183.452 287.035 183.479 287.432 183.48 287.83C183.53 288.161 183.53 288.499 183.48 288.83C183.38 288.83 183.34 287.38 182.84 285.12C182.542 283.799 182.137 282.505 181.63 281.25C180.983 279.725 180.203 278.259 179.3 276.87C178.373 275.499 177.322 274.217 176.16 273.04C175.201 272.083 174.164 271.206 173.06 270.42C171.14 269.07 169.82 268.48 169.86 268.39Z" fill="#263238"/>
<g opacity="0.4">
<path d="M183 287.58C181.186 283.449 178.264 279.9 174.557 277.327C170.851 274.753 166.505 273.256 162 273C160.786 272.883 159.562 273.072 158.44 273.55C157.885 273.801 157.417 274.21 157.093 274.726C156.77 275.242 156.605 275.841 156.62 276.45C156.772 277.022 156.865 277.609 156.9 278.2C156.75 279.53 155.1 280.01 153.81 280.38C151.294 281.098 149.053 282.558 147.38 284.57C146.51 285.57 145.81 287.18 146.64 288.26C147.33 289.14 148.64 289.14 149.75 288.94C153.87 288.22 157.54 286 161.3 284.18C165.06 282.36 169.3 280.89 173.38 281.81C177.89 282.81 181.24 286.51 184.27 290" fill="black"/>
</g>
<path d="M315 284.75C314.89 284.907 314.766 285.054 314.63 285.19L313.48 286.37C312.99 286.88 312.37 287.49 311.62 288.17C310.87 288.85 310.04 289.66 309.06 290.47C306.79 292.408 304.424 294.231 301.97 295.93C295.947 300.106 289.426 303.516 282.56 306.08C279.39 307.24 276.49 308.15 274.02 308.78C272.79 309.12 271.66 309.35 270.67 309.57C269.68 309.79 268.83 309.96 268.12 310.07L266.51 310.33C266.324 310.376 266.132 310.397 265.94 310.39C266.115 310.312 266.3 310.258 266.49 310.23L268.09 309.87C268.78 309.73 269.63 309.54 270.61 309.29C271.59 309.04 272.71 308.79 273.92 308.42C276.37 307.75 279.25 306.81 282.39 305.63C289.196 303.034 295.674 299.648 301.69 295.54C304.46 293.64 306.87 291.81 308.82 290.18C309.82 289.4 310.66 288.62 311.42 287.96C312.18 287.3 312.83 286.71 313.34 286.22L314.55 285.11C314.685 284.973 314.836 284.852 315 284.75Z" fill="#263238"/>
<path d="M324.32 219C324.319 219.225 324.296 219.45 324.25 219.67C324.18 220.16 324.08 220.8 323.96 221.59L322.86 228.59C321.94 234.52 320.73 242.74 319.49 251.82C318.25 260.9 317.17 269.09 316.36 275.1L315.42 282.15C315.3 282.94 315.21 283.58 315.14 284.07C315.118 284.294 315.075 284.515 315.01 284.73C314.983 284.504 314.983 284.276 315.01 284.05C315.05 283.557 315.11 282.917 315.19 282.13C315.38 280.39 315.64 277.99 315.97 275.05C316.66 269.05 317.69 260.84 318.97 251.75C320.25 242.66 321.48 234.45 322.49 228.53C323.01 225.53 323.43 223.17 323.77 221.53C323.92 220.75 324.05 220.12 324.15 219.63C324.18 219.414 324.237 219.202 324.32 219Z" fill="#263238"/>
<path d="M290.48 317.86C290.615 317.504 290.796 317.168 291.02 316.86C291.4 316.27 291.96 315.42 292.67 314.37C294.1 312.29 296.13 309.45 298.46 306.37C300.79 303.29 302.99 300.59 304.63 298.67C305.44 297.67 306.11 296.94 306.63 296.41C307.15 295.88 307.38 295.61 307.41 295.64C307.238 295.963 307.03 296.265 306.79 296.54L304.91 299C303.36 301 301.21 303.72 298.91 306.78C296.61 309.84 294.51 312.64 293.01 314.67L291.19 317C290.99 317.315 290.751 317.604 290.48 317.86Z" fill="#263238"/>
<path d="M354.85 297C354.303 296.813 353.769 296.593 353.25 296.34C352.25 295.9 350.75 295.27 348.88 294.62C344.018 292.865 338.879 292.001 333.71 292.07C332.259 292.102 330.826 292.397 329.48 292.94C328.24 293.476 327.11 294.239 326.15 295.19C324.523 296.856 323.248 298.832 322.4 301C321.799 302.449 321.272 303.928 320.82 305.43C320.672 305.99 320.481 306.539 320.25 307.07C320.332 306.495 320.455 305.927 320.62 305.37C321.009 303.839 321.49 302.333 322.06 300.86C322.892 298.642 324.172 296.62 325.82 294.92C326.813 293.916 327.987 293.108 329.28 292.54C330.679 291.969 332.17 291.657 333.68 291.62C338.912 291.522 344.114 292.436 349 294.31C350.48 294.861 351.929 295.492 353.34 296.2C353.84 296.44 354.22 296.66 354.48 296.8C354.612 296.849 354.736 296.917 354.85 297Z" fill="#263238"/>
<path d="M347.37 281.34C347.37 281.45 345.8 281.4 343.37 281.83C341.928 282.084 340.509 282.459 339.13 282.95C335.75 284.17 332.654 286.065 330.03 288.52C328.962 289.525 327.982 290.619 327.1 291.79C325.6 293.79 324.93 295.21 324.83 295.16C324.934 294.811 325.078 294.475 325.26 294.16C325.443 293.768 325.65 293.387 325.88 293.02C326.162 292.525 326.469 292.044 326.8 291.58C327.66 290.36 328.631 289.221 329.7 288.18C332.332 285.627 335.498 283.69 338.97 282.51C340.382 282.041 341.835 281.706 343.31 281.51C343.94 281.4 344.52 281.38 345.02 281.34C345.45 281.317 345.88 281.317 346.31 281.34C346.662 281.303 347.018 281.303 347.37 281.34Z" fill="#263238"/>
<path d="M355.41 344.71C354.924 341.442 353.624 338.348 351.63 335.713C349.637 333.078 347.013 330.986 344 329.63C339.23 327.5 332.65 327.01 328.12 329.63C323.59 332.25 317.53 338.69 318.76 343.76L329.15 361.21C331.826 363.149 335.021 364.242 338.324 364.347C341.628 364.452 344.886 363.565 347.68 361.8C350.415 359.937 352.583 357.356 353.947 354.341C355.311 351.326 355.817 347.994 355.41 344.71Z" fill="#9F9070"/>
<g opacity="0.4">
<path d="M355.41 344.71C354.924 341.442 353.624 338.348 351.63 335.713C349.637 333.078 347.013 330.986 344 329.63C339.23 327.5 332.65 327.01 328.12 329.63C323.59 332.25 317.53 338.69 318.76 343.76L329.15 361.21C331.826 363.149 335.021 364.242 338.324 364.347C341.628 364.452 344.886 363.565 347.68 361.8C350.415 359.937 352.583 357.356 353.947 354.341C355.311 351.326 355.817 347.994 355.41 344.71Z" fill="black"/>
</g>
<path d="M352.17 357.43C352.17 357.43 352.54 356.73 353.17 355.49C354.041 353.701 354.644 351.794 354.96 349.83C355.414 346.915 355.153 343.932 354.2 341.14C353.914 340.337 353.58 339.552 353.2 338.79C352.802 338.001 352.351 337.239 351.85 336.51C349.774 333.401 346.818 330.981 343.36 329.56C338.943 327.888 334.067 327.888 329.65 329.56C327.779 330.235 326.014 331.174 324.41 332.35C323.28 333.2 322.7 333.73 322.66 333.69C322.781 333.542 322.915 333.405 323.06 333.28C323.444 332.892 323.851 332.528 324.28 332.19C325.861 330.924 327.628 329.912 329.52 329.19C334.013 327.419 339.005 327.387 343.52 329.1C345.295 329.811 346.95 330.789 348.43 332C349.907 333.215 351.197 334.64 352.26 336.23C352.764 336.985 353.221 337.77 353.63 338.58C354.015 339.364 354.349 340.173 354.63 341C355.592 343.864 355.823 346.924 355.3 349.9C354.943 351.892 354.268 353.813 353.3 355.59C352.96 356.21 352.63 356.67 352.43 356.98C352.365 357.141 352.277 357.293 352.17 357.43Z" fill="#263238"/>
<path d="M323.6 332.89C323.45 332.89 322.24 326.07 320.88 317.6C319.52 309.13 318.54 302.25 318.68 302.22C318.82 302.19 320.04 309.05 321.4 317.52C322.76 325.99 323.74 332.87 323.6 332.89Z" fill="#263238"/>
<g opacity="0.4">
<path d="M316.82 292.92L322.13 292.55C325.648 287.149 331.158 283.357 337.46 282C338.909 281.621 340.427 281.59 341.89 281.91C342.619 282.079 343.291 282.434 343.842 282.94C344.392 283.447 344.802 284.088 345.03 284.8C345.214 285.524 345.108 286.291 344.735 286.937C344.361 287.584 343.749 288.059 343.03 288.26C344.506 288.647 345.885 289.337 347.079 290.285C348.274 291.234 349.259 292.421 349.97 293.77C350.27 294.34 350.49 295.12 350.04 295.58C349.697 295.839 349.266 295.954 348.84 295.9C346.39 295.9 343.96 295.35 341.51 295.24C339.058 294.99 336.593 295.571 334.51 296.89C332.51 298.32 331.43 300.65 330.51 302.89C327.136 310.969 324.642 319.387 323.07 328C321.84 323.13 321.73 318 320.84 313.38C319.57 306.83 318.34 300.13 316.84 292.94" fill="black"/>
</g>
<g opacity="0.4">
<path d="M201.65 337.08C208.26 344.13 217.18 347.43 226.73 348.99C236.28 350.55 246.03 349.99 255.73 349.45C258.11 349.31 260.93 348.9 261.97 346.75C262.71 345.22 262.2 343.41 261.61 341.83C257.35 330.56 248.93 321.45 240.7 312.66C237.7 309.44 234.48 306.1 230.27 304.8C225.64 303.38 220.38 304.63 215.99 302.59C210.71 300.14 208.56 293.92 206.93 288.33L203.57 276.83C204.31 289.36 204.18 299.43 204.18 299.43C204.18 299.43 200.72 322.59 201.18 327.84C201.64 333.09 201.65 337.08 201.65 337.08Z" fill="black"/>
</g>
<path d="M267.48 194.12C267.034 194.072 266.595 193.975 266.17 193.83C265.33 193.62 264.17 193.25 262.67 192.73C258.868 191.366 255.221 189.603 251.79 187.47C248.356 185.337 245.156 182.85 242.24 180.05C241.13 178.97 240.24 178.05 239.71 177.4C239.39 177.084 239.108 176.732 238.87 176.35C239.228 176.625 239.563 176.929 239.87 177.26C240.47 177.88 241.37 178.74 242.51 179.78C248.434 185.208 255.318 189.485 262.81 192.39C264.24 192.95 265.42 193.39 266.24 193.64C266.667 193.764 267.081 193.924 267.48 194.12Z" fill="#263238"/>
<path d="M295.36 188.57C295.278 188.837 295.149 189.087 294.98 189.31C294.597 189.962 294.166 190.583 293.69 191.17C290.537 195.092 286.208 197.896 281.34 199.17C280.612 199.369 279.87 199.513 279.12 199.6C278.848 199.661 278.568 199.677 278.29 199.65C278.29 199.56 279.44 199.37 281.24 198.82C283.584 198.088 285.817 197.042 287.88 195.71C289.931 194.367 291.789 192.748 293.4 190.9C294.64 189.51 295.28 188.52 295.36 188.57Z" fill="#263238"/>
<path d="M300 194.74C298.47 198.659 295.576 201.895 291.85 203.85C293.426 202.541 294.931 201.149 296.36 199.68C297.659 198.098 298.874 196.449 300 194.74Z" fill="#263238"/>
<path d="M247.54 313.65L248.16 313.52C250.38 313.09 257.74 311.75 258.93 312.94C260.32 314.34 270.29 324.13 270.29 324.13C270.29 324.13 268.37 327.28 262.07 324.13C255.77 320.98 247.54 313.65 247.54 313.65Z" fill="#FFBE9D"/>
<path d="M233.4 293.76C234.484 293.04 235.803 292.765 237.084 292.992C238.366 293.219 239.51 293.931 240.28 294.98L270.67 335.29L262.88 341L232.19 301.08C231.763 300.529 231.455 299.897 231.284 299.222C231.114 298.546 231.084 297.843 231.198 297.156C231.311 296.469 231.566 295.813 231.945 295.228C232.323 294.644 232.819 294.144 233.4 293.76Z" fill="#263238"/>
<path d="M163.91 320.75C163.91 320.75 200 326.61 205 327C210 327.39 223.69 341.91 227.66 343.3C231.63 344.69 242.38 344.49 242.38 344.49C242.38 344.49 261.86 345.49 262.46 344.49C263.06 343.49 264.25 343.69 262.46 339.91C261.351 337.594 260.011 335.397 258.46 333.35C258.46 333.35 263.46 339.51 264.83 339.71C266.2 339.91 269.2 340.27 269 337.61C268.8 334.95 263.63 324.01 263.63 324.01C263.63 324.01 261.45 318.9 257.47 317.77C253.49 316.64 236.19 308.3 236.19 308.3H217.69L196.11 298.04C196.11 298.04 183.05 293.84 170.62 307.55C168.199 310.273 166.358 313.462 165.21 316.92L163.91 320.75Z" fill="#FFBE9D"/>
<path d="M267.1 332.25C266.875 331.925 266.693 331.572 266.56 331.2C266.21 330.4 265.78 329.42 265.28 328.26C264.78 327.1 264.11 325.5 263.43 323.88C262.868 322.064 261.77 320.461 260.28 319.28C259.467 318.72 258.599 318.244 257.69 317.86L255.14 316.72C253.5 316 252.02 315.38 250.78 314.86L247.78 313.63C247.41 313.501 247.055 313.333 246.72 313.13C247.11 313.193 247.492 313.297 247.86 313.44C248.57 313.68 249.61 314.04 250.86 314.51C252.11 314.98 253.63 315.58 255.28 316.28L257.85 317.4C258.798 317.786 259.7 318.276 260.54 318.86C262.11 320.104 263.258 321.801 263.83 323.72C264.48 325.35 265.06 326.84 265.57 328.13C266.08 329.42 266.39 330.31 266.7 331.13C266.872 331.489 267.006 331.864 267.1 332.25Z" fill="#EB996E"/>
<path d="M249 322.23C249.697 322.641 250.338 323.138 250.91 323.71C252.341 325.01 253.678 326.41 254.91 327.9C256.164 329.387 257.307 330.965 258.33 332.62C258.795 333.278 259.172 333.994 259.45 334.75C258.918 334.149 258.44 333.503 258.02 332.82C257.17 331.61 255.96 329.96 254.51 328.23C253.06 326.5 251.66 325.03 250.61 323.98C250.023 323.445 249.484 322.86 249 322.23Z" fill="#EB996E"/>
<path d="M259.27 344.79C259.001 344.737 258.743 344.635 258.51 344.49C257.847 344.155 257.211 343.767 256.61 343.33C254.669 341.843 252.901 340.142 251.34 338.26C249.47 336.11 247.8 334.15 246.62 332.71C245.939 331.965 245.321 331.166 244.77 330.32C245.54 330.972 246.249 331.691 246.89 332.47C248.15 333.85 249.89 335.77 251.73 337.91C253.275 339.764 254.982 341.477 256.83 343.03C258.28 344.19 259.31 344.72 259.27 344.79Z" fill="#EB996E"/>
<path d="M248.55 344.77C247.89 344.548 247.264 344.235 246.69 343.84C245.251 342.988 243.862 342.053 242.53 341.04C241.202 340.03 239.927 338.952 238.71 337.81C238.172 337.365 237.692 336.854 237.28 336.29C237.39 336.17 239.76 338.29 242.85 340.63C245.94 342.97 248.63 344.64 248.55 344.77Z" fill="#EB996E"/>
<path d="M307.76 359.77C307.76 359.77 304.59 354.87 304.15 353.12C303.71 351.37 304.15 343.04 298.31 344.35V345C298.46 345.71 298.31 362.65 298.31 362.65L307.76 359.77Z" fill="#FFBE9D"/>
<path d="M232.93 368.64C232.93 368.64 227.54 418.38 285.78 416.93C333.26 415.75 332.43 369.47 332.43 369.47L232.93 368.64Z" fill="#9F9070"/>
<path d="M281.81 382.23C311.782 382.23 336.08 376.356 336.08 369.11C336.08 361.864 311.782 355.99 281.81 355.99C251.837 355.99 227.54 361.864 227.54 369.11C227.54 376.356 251.837 382.23 281.81 382.23Z" fill="#9F9070"/>
<path opacity="0.4" d="M282.62 376.93C310.129 376.93 332.43 373.218 332.43 368.64C332.43 364.062 310.129 360.35 282.62 360.35C255.111 360.35 232.81 364.062 232.81 368.64C232.81 373.218 255.111 376.93 282.62 376.93Z" fill="black"/>
<path d="M334.24 372.86L334 373L333.33 373.42C332.74 373.79 331.84 374.3 330.66 374.9C327.301 376.581 323.775 377.905 320.14 378.85C314.749 380.211 309.279 381.233 303.76 381.91C296.995 382.672 290.188 383.006 283.38 382.91C276.15 382.85 269.25 382.61 263 382.06C257.456 381.602 251.952 380.746 246.53 379.5C242.877 378.659 239.294 377.543 235.81 376.16C234.57 375.69 233.64 375.23 233 374.95L232.29 374.61C232.12 374.54 232.04 374.49 232.05 374.48C232.139 374.503 232.226 374.533 232.31 374.57L233.05 374.86C233.7 375.11 234.63 375.53 235.88 375.97C239.382 377.275 242.971 378.334 246.62 379.14C252.03 380.331 257.517 381.146 263.04 381.58C269.28 382.1 276.16 382.33 283.39 382.39C290.174 382.475 296.957 382.142 303.7 381.39C309.201 380.743 314.658 379.762 320.04 378.45C323.666 377.545 327.193 376.282 330.57 374.68C331.75 374.1 332.67 373.63 333.27 373.29L333.97 372.91C334.15 372.89 334.23 372.85 334.24 372.86Z" fill="#263238"/>
<path d="M301 367.52C301 367.52 306.94 347.61 309 344.96C310.69 342.77 322.66 333.71 326.77 330.64C327.783 329.876 328.934 329.316 330.16 328.99C334.23 327.92 338.3 327.2 345 330.1C347.114 331.036 349.015 332.393 350.586 334.088C352.158 335.783 353.367 337.781 354.14 339.96L331.79 353.85L330.92 363.25L312.92 358.66C313.007 357.715 312.823 356.765 312.39 355.92C312.39 355.92 306.67 369.78 301 367.52Z" fill="#FFBE9D"/>
<path d="M279.42 353.38C277.15 350.38 275.26 347.49 273.76 345.04C272.26 342.59 271.19 340.53 270.48 339.04C270.154 338.268 269.763 337.525 269.31 336.82C269.542 337.626 269.839 338.412 270.2 339.17C271.114 341.262 272.142 343.301 273.28 345.28C274.987 348.2 276.843 351.03 278.84 353.76C281.08 356.85 283.71 360.13 286.5 363.52C290.4 368.2 294 372.57 296.93 376.4H297.74C294.81 372.4 291.12 367.87 287.11 363.05C284.32 359.68 281.69 356.43 279.42 353.38Z" fill="#F5F5F5"/>
<path d="M265.14 339.12C265.391 339.914 265.706 340.686 266.08 341.43C266.73 342.91 267.67 345.04 268.78 347.69C271.664 354.598 274.177 361.655 276.31 368.83C277.09 371.64 277.92 374.37 278.9 376.9H279.7C278.7 374.33 277.88 371.55 277.06 368.62C274.937 361.41 272.341 354.349 269.29 347.48C268.11 344.85 267.09 342.75 266.36 341.31C266.013 340.548 265.605 339.816 265.14 339.12Z" fill="#F5F5F5"/>
<path d="M267.1 336.73C267.396 337.517 267.753 338.28 268.17 339.01C268.91 340.46 270 342.54 271.37 345.1C274.12 350.21 277.97 357.26 282.66 364.79C285.38 369.17 288.11 373.18 290.66 376.69H291.5C288.96 373.08 286.16 368.93 283.36 364.4C278.68 356.89 274.76 349.9 271.89 344.86L268.47 338.86C268.073 338.114 267.614 337.401 267.1 336.73Z" fill="#F5F5F5"/>
<path d="M310.83 370.91C308.855 366.241 305.834 362.087 302 358.77C298.567 355.795 294.887 353.119 291 350.77C287.41 348.5 284 346.44 281.1 344.35C276.452 341.057 272.227 337.205 268.52 332.88C267.21 331.35 266.24 330.11 265.6 329.27L264.86 328.27C264.786 328.154 264.695 328.049 264.59 327.96C264.644 328.089 264.715 328.21 264.8 328.32L265.47 329.32C266.08 330.2 267 331.47 268.29 333.04C271.931 337.469 276.129 341.408 280.78 344.76C283.71 346.89 287.08 348.99 290.65 351.28C294.492 353.635 298.129 356.312 301.52 359.28C305.268 362.535 308.221 366.606 310.15 371.18C310.725 372.542 311.17 373.955 311.48 375.4L312.26 375.32C311.92 373.809 311.441 372.333 310.83 370.91Z" fill="#F5F5F5"/>
<path d="M309 374.21C307.696 370.915 305.895 367.84 303.66 365.09C300.907 361.751 297.787 358.732 294.36 356.09C290.77 353.24 287.18 350.78 283.98 348.47C280.78 346.16 277.98 344 275.7 342.06C273.914 340.529 272.218 338.896 270.62 337.17C270.068 336.499 269.477 335.862 268.85 335.26C268.94 335.471 269.061 335.666 269.21 335.84C269.46 336.2 269.86 336.72 270.39 337.37C271.91 339.188 273.561 340.893 275.33 342.47C277.958 344.799 280.702 346.995 283.55 349.05C286.74 351.4 290.31 353.88 293.87 356.7C297.251 359.304 300.345 362.261 303.1 365.52C305.318 368.193 307.131 371.179 308.48 374.38C308.66 374.81 308.81 375.23 308.96 375.64L309.48 375.59C309.36 375.16 309.22 374.7 309 374.21Z" fill="#F5F5F5"/>
<path d="M282.81 369.58C278.97 362.58 275.74 356.06 273.45 351.33L270.75 345.73C270.454 345.035 270.099 344.365 269.69 343.73C269.886 344.468 270.147 345.188 270.47 345.88C271.03 347.24 271.86 349.19 272.94 351.59C275.11 356.38 278.27 362.93 282.11 369.98C283.42 372.37 284.71 374.66 285.96 376.82H286.82C285.53 374.51 284.18 372.1 282.81 369.58Z" fill="#F5F5F5"/>
<path d="M290.8 360.6C285.413 355.298 280.319 349.706 275.54 343.85C273.71 341.6 272.27 339.75 271.26 338.47C270.777 337.762 270.239 337.093 269.65 336.47C270.047 337.216 270.505 337.929 271.02 338.6C271.95 339.94 273.32 341.85 275.11 344.15C279.772 350.148 284.83 355.827 290.25 361.15C293.41 364.28 296.62 367.04 299.31 369.75C301.258 371.662 303.016 373.759 304.56 376.01H305.22C303.678 373.574 301.87 371.317 299.83 369.28C297.13 366.48 293.94 363.71 290.8 360.6Z" fill="#F5F5F5"/>
<path d="M274.38 374.37C273.05 370.37 272.15 366.49 271.31 362.98C269.69 355.98 268.18 350.25 266.57 346.52C265.818 344.559 264.855 342.684 263.7 340.93C263.7 340.93 263.7 341.07 263.86 341.31L264.42 342.39C264.89 343.34 265.57 344.75 266.29 346.63C267.8 350.38 269.22 356.05 270.76 363.11C271.58 366.63 272.45 370.5 273.76 374.57C274.02 375.34 274.31 376.12 274.6 376.91H275.32C275 376.06 274.67 375.2 274.38 374.37Z" fill="#F5F5F5"/>
<path d="M314.68 362.29C314.76 362.279 314.84 362.279 314.92 362.29C315.153 362.278 315.387 362.278 315.62 362.29C316.23 362.34 317.13 362.44 318.28 362.6C321.536 363.049 324.75 363.761 327.89 364.73C328.923 365.095 329.926 365.54 330.89 366.06C331.431 366.344 331.899 366.747 332.26 367.24C332.44 367.518 332.559 367.832 332.607 368.16C332.655 368.487 332.632 368.822 332.54 369.14C332.431 369.459 332.26 369.752 332.036 370.005C331.813 370.257 331.543 370.463 331.24 370.61C330.693 370.97 330.114 371.278 329.51 371.53C328.272 372.06 326.999 372.504 325.7 372.86C319.941 374.427 314.07 375.553 308.14 376.23C297.37 377.378 286.527 377.678 275.71 377.13C271.56 376.97 268.21 376.77 265.89 376.63L263.22 376.44L262.53 376.38C262.451 376.397 262.369 376.397 262.29 376.38H263.23L265.9 376.47L275.72 376.8C286.517 377.25 297.332 376.916 308.08 375.8C313.983 375.12 319.828 374.01 325.57 372.48C326.85 372.132 328.106 371.701 329.33 371.19C329.913 370.954 330.473 370.663 331 370.32C331.517 370.076 331.922 369.643 332.13 369.11C332.208 368.849 332.228 368.575 332.19 368.306C332.152 368.037 332.057 367.779 331.91 367.55C331.587 367.108 331.17 366.743 330.69 366.48C329.748 365.968 328.768 365.526 327.76 365.16C324.644 364.165 321.459 363.403 318.23 362.88C317.09 362.69 316.23 362.55 315.6 362.47C314.97 362.39 314.68 362.31 314.68 362.29Z" fill="#263238"/>
<path d="M319.53 350C319.62 350.12 317.76 351.57 315.63 353.54C313.5 355.51 311.91 357.25 311.79 357.15C313.832 354.243 316.47 351.805 319.53 350Z" fill="#EB996E"/>
<path d="M319.09 357.88C318.062 357.491 316.978 357.265 315.88 357.21C314.782 357.312 313.706 357.582 312.69 358.01C312.69 357.96 312.91 357.66 313.47 357.34C314.2 356.926 315.021 356.703 315.86 356.69C316.703 356.67 317.538 356.859 318.29 357.24C318.86 357.54 319.13 357.83 319.09 357.88Z" fill="#EB996E"/>
<path d="M137.69 151.48C137.11 151.94 105.4 166.18 105.4 166.18C105.4 166.18 114.13 184.72 131.07 176.46C146.54 168.92 137.69 151.48 137.69 151.48Z" fill="#455A64"/>
<path d="M137.34 49.0701C138.05 49.0701 138.64 73.6901 138.64 104.07C138.64 134.45 138.05 159.07 137.34 159.07C136.63 159.07 136.03 134.46 136.03 104.07C136.03 73.6801 136.62 49.0701 137.34 49.0701Z" fill="#455A64"/>
<path d="M114.77 123.34C114.19 123.8 82.48 138.04 82.48 138.04C82.48 138.04 91.21 156.58 108.16 148.32C123.63 140.78 114.77 123.34 114.77 123.34Z" fill="#455A64"/>
<path d="M114.42 47.2101C115.14 47.2101 115.72 65.9501 115.72 89.0601C115.72 112.17 115.14 130.91 114.42 130.91C113.7 130.91 113.12 112.17 113.12 89.0601C113.12 65.9501 113.7 47.2101 114.42 47.2101Z" fill="#455A64"/>
<path d="M87 95.5901C86.41 96.0401 54.7 110.28 54.7 110.28C54.7 110.28 63.44 128.82 80.38 120.56C95.87 113 87 95.5901 87 95.5901Z" fill="#455A64"/>
<path d="M86.66 50C87.38 50 87.96 61.89 87.96 76.55C87.96 91.21 87.38 103.11 86.66 103.11C85.94 103.11 85.36 91.22 85.36 76.55C85.36 61.88 85.94 50 86.66 50Z" fill="#455A64"/>
<path d="M175.06 156.53C192.954 156.53 207.46 142.024 207.46 124.13C207.46 106.236 192.954 91.73 175.06 91.73C157.166 91.73 142.66 106.236 142.66 124.13C142.66 142.024 157.166 156.53 175.06 156.53Z" fill="#455A64"/>
<path d="M173.85 95.3601L171.31 53.6901H183.25L179.94 95.3601H173.85Z" fill="#455A64"/>
<path d="M188.69 146.86L188.48 147.01L187.82 147.39C187.53 147.55 187.18 147.78 186.74 147.99L185.2 148.68C181.861 150.032 178.282 150.692 174.68 150.62C169.32 150.529 164.104 148.867 159.68 145.84C157.077 144.031 154.852 141.732 153.13 139.07C149.4 133.319 147.929 126.391 149 119.62C149.484 116.489 150.574 113.483 152.21 110.77C155.028 106.192 159.128 102.541 164 100.27C167.261 98.7376 170.799 97.8804 174.4 97.75H176C176.49 97.75 176.9 97.83 177.23 97.85L177.98 97.94C178.066 97.9298 178.154 97.9298 178.24 97.94H178H177.24C176.91 97.94 176.5 97.88 176.01 97.88H174.34C170.784 98.0936 167.304 98.9935 164.09 100.53C159.319 102.83 155.32 106.467 152.58 111C150.982 113.666 149.919 116.618 149.45 119.69C148.42 126.337 149.869 133.131 153.52 138.78C155.198 141.393 157.368 143.656 159.91 145.44C163.559 147.939 167.756 149.521 172.147 150.052C176.537 150.583 180.991 150.047 185.13 148.49L186.67 147.84C187.12 147.64 187.47 147.44 187.77 147.29L188.45 146.95L188.69 146.86Z" fill="#263238"/>
<path d="M45.16 -0.209961L56.63 41.29H105.22L116.7 -0.209961H45.16Z" fill="#455A64"/>
<path d="M114.42 7.99999C114.42 8.14999 99.42 8.26999 80.93 8.26999C62.44 8.26999 47.44 8.15999 47.44 7.99999C47.44 7.83999 62.44 7.73999 80.93 7.73999C99.42 7.73999 114.42 7.86999 114.42 7.99999Z" fill="#263238"/>
<path d="M123.33 10.49H113.33L114.93 6.15002H123.28C123.856 6.15002 124.407 6.37865 124.814 6.7856C125.221 7.19256 125.45 7.7445 125.45 8.32002C125.45 8.88698 125.228 9.43149 124.832 9.83703C124.436 10.2426 123.897 10.477 123.33 10.49Z" fill="#263238"/>
<path d="M38.45 10.49H48.4L46.81 6.15002H38.45C37.8745 6.15002 37.3226 6.37865 36.9156 6.7856C36.5087 7.19256 36.28 7.7445 36.28 8.32002C36.28 8.89554 36.5087 9.44749 36.9156 9.85445C37.3226 10.2614 37.8745 10.49 38.45 10.49Z" fill="#263238"/>
<path d="M214.35 40.73H32.88V53.7H214.35V40.73Z" fill="#9F9070"/>
<path d="M449.12 225.42C447.786 224.9 446.3 224.93 444.988 225.503C443.675 226.077 442.644 227.147 442.12 228.48L434.07 250.05L444.07 253.73L452.19 232.37C452.697 231.041 452.659 229.565 452.084 228.264C451.509 226.962 450.444 225.94 449.12 225.42Z" fill="#9F9070"/>
<path d="M448.9 232.24C448.9 232.695 448.765 233.14 448.512 233.519C448.259 233.897 447.899 234.192 447.478 234.366C447.057 234.54 446.594 234.585 446.148 234.495C445.701 234.405 445.291 234.185 444.97 233.863C444.649 233.54 444.431 233.129 444.343 232.683C444.255 232.236 444.302 231.773 444.478 231.353C444.654 230.933 444.95 230.574 445.329 230.323C445.709 230.071 446.155 229.938 446.61 229.94C446.912 229.939 447.211 229.997 447.49 230.113C447.769 230.228 448.023 230.397 448.236 230.611C448.449 230.825 448.617 231.079 448.731 231.359C448.845 231.639 448.903 231.938 448.9 232.24Z" fill="#FAFAFA"/>
<path d="M443.2 246.38C443.202 246.835 443.069 247.281 442.817 247.66C442.566 248.04 442.207 248.336 441.787 248.512C441.367 248.688 440.904 248.735 440.457 248.647C440.011 248.559 439.6 248.341 439.277 248.02C438.955 247.699 438.735 247.289 438.645 246.842C438.555 246.396 438.6 245.933 438.774 245.512C438.948 245.091 439.243 244.731 439.621 244.478C440 244.225 440.445 244.09 440.9 244.09C441.508 244.09 442.092 244.331 442.523 244.76C442.954 245.189 443.197 245.772 443.2 246.38Z" fill="#FAFAFA"/>
<path d="M434.09 250.05L418.58 290.51L437.67 290.27L453.24 256.84L434.09 250.05Z" fill="#E0E0E0"/>
<path d="M448.51 290.51H395.01V352.04H448.51V290.51Z" fill="#9F9070"/>
<path d="M448.51 305.83C448.51 305.98 436.51 306.1 421.76 306.1C407.01 306.1 395 306 395 305.83C395 305.66 407 305.57 421.75 305.57C436.5 305.57 448.51 305.69 448.51 305.83Z" fill="white"/>
<path d="M448.51 312.46C448.51 312.6 436.51 312.72 421.76 312.72C407.01 312.72 395 312.6 395 312.46C395 312.32 407 312.2 421.75 312.2C436.5 312.2 448.51 312.31 448.51 312.46Z" fill="white"/>
<path d="M448.51 319.08C448.51 319.23 436.51 319.34 421.76 319.34C407.01 319.34 395.01 319.23 395.01 319.08C395.01 318.93 407.01 318.82 421.76 318.82C436.51 318.82 448.51 318.94 448.51 319.08Z" fill="white"/>
<path d="M448.51 325.71C448.51 325.85 436.51 325.97 421.76 325.97C407.01 325.97 395.01 325.85 395.01 325.71C395.01 325.57 407.01 325.45 421.76 325.45C436.51 325.45 448.51 325.56 448.51 325.71Z" fill="white"/>
<path d="M448.51 332.33C448.51 332.47 436.51 332.59 421.76 332.59C407.01 332.59 395.01 332.47 395.01 332.33C395.01 332.19 407.01 332.07 421.76 332.07C436.51 332.07 448.51 332.19 448.51 332.33Z" fill="white"/>
<path d="M448.51 339C448.51 339.15 436.51 339.26 421.76 339.26C407.01 339.26 395 339.1 395 339C395 338.9 407 338.74 421.75 338.74C436.5 338.74 448.51 338.81 448.51 339Z" fill="white"/>
<path d="M363.57 256.64L399.34 259.5C399.34 259.5 400.34 242.13 383.6 240.29C366.86 238.45 363.57 256.64 363.57 256.64Z" fill="#455A64"/>
<path d="M409.15 290.51C408.47 290.74 404.75 281.83 400.85 270.6C396.95 259.37 394.33 250.06 395.01 249.83C395.69 249.6 399.4 258.51 403.31 269.74C407.22 280.97 409.83 290.27 409.15 290.51Z" fill="#455A64"/>
<path d="M411.29 408.34C411.059 408.416 410.821 408.469 410.58 408.5L408.53 408.84L407.05 409.07C406.5 409.14 405.91 409.18 405.27 409.25C403.99 409.36 402.54 409.55 400.93 409.57L398.4 409.65C397.52 409.65 396.6 409.65 395.65 409.65C393.75 409.65 391.73 409.46 389.65 409.29C380.391 408.396 371.351 405.931 362.92 402C361.01 401.06 359.17 400.19 357.53 399.22C356.71 398.75 355.9 398.32 355.15 397.85L353 396.44C351.62 395.6 350.47 394.69 349.43 393.95C348.91 393.57 348.43 393.23 347.99 392.89L346.83 391.89L345.24 390.56C345.05 390.412 344.872 390.248 344.71 390.07C344.927 390.18 345.128 390.318 345.31 390.48L346.96 391.73L348.14 392.65C348.58 392.98 349.07 393.31 349.6 393.65C350.65 394.37 351.81 395.25 353.2 396.07L355.34 397.4C356.09 397.86 356.9 398.27 357.72 398.73C359.36 399.68 361.19 400.53 363.1 401.46C367.31 403.355 371.655 404.933 376.1 406.18C380.55 407.366 385.083 408.215 389.66 408.72C391.77 408.9 393.78 409.11 395.66 409.12C396.61 409.12 397.52 409.21 398.39 409.19L400.92 409.14C402.52 409.14 403.97 408.98 405.25 408.9C405.88 408.9 406.48 408.82 407.02 408.76L408.5 408.58L410.56 408.33C410.803 408.315 411.047 408.319 411.29 408.34Z" fill="#455A64"/>
<path d="M368.71 404.4C361.21 403.4 351.41 406.3 345.79 411.4C353.76 410.329 361.502 407.965 368.71 404.4Z" fill="#455A64"/>
<path d="M369.09 404.49C371.84 397.43 367.78 387.49 367.78 387.49C366.99 386.15 367.34 396.66 369.09 404.49Z" fill="#455A64"/>
<path d="M357.25 398.89C359.25 393.71 356.34 386.43 356.34 386.43C355.78 385.43 356.01 393.16 357.25 398.89Z" fill="#455A64"/>
<path d="M379.69 407C381.69 401.82 378.78 394.54 378.78 394.54C378.21 393.54 378.44 401.27 379.69 407Z" fill="#455A64"/>
<path d="M357.48 399C351.89 398.26 344.6 400.42 340.43 404.2C346.359 403.407 352.118 401.651 357.48 399Z" fill="#455A64"/>
<path d="M380.83 407.79C372.9 407.9 363.2 412.4 358.15 418.51C366.244 416.196 373.904 412.575 380.83 407.79Z" fill="#455A64"/>
<path d="M411.05 369.92C409.433 367.492 407.189 365.546 404.556 364.29C401.923 363.034 398.999 362.515 396.094 362.786C393.189 363.058 390.412 364.111 388.057 365.834C385.703 367.556 383.858 369.884 382.72 372.57C380.904 377.169 380.987 382.301 382.95 386.84C384.942 391.328 388.184 395.147 392.29 397.84C402.86 405.04 418.19 404.71 428.01 396.52C431.66 393.52 434.59 389.33 435.26 384.63C435.649 381.896 435.265 379.107 434.153 376.579C433.04 374.052 431.243 371.885 428.964 370.325C426.685 368.765 424.015 367.873 421.256 367.75C418.497 367.627 415.759 368.278 413.35 369.63" fill="#9F9070"/>
<path d="M411.09 369.9C410.739 368.614 409.944 367.494 408.845 366.74C407.747 365.986 406.416 365.645 405.09 365.78L408.63 369.99C407.668 370.122 406.758 370.507 405.994 371.106C405.229 371.706 404.638 372.497 404.28 373.4C404.12 373.83 404.07 374.4 404.48 374.66C404.625 374.708 404.779 374.724 404.931 374.706C405.083 374.689 405.229 374.639 405.36 374.56L409.66 372.78C409.955 375.179 410.834 377.469 412.22 379.45C413.204 377.344 413.755 375.063 413.84 372.74L418.59 374.84C418.215 373.473 417.438 372.25 416.36 371.33C417.777 371.061 419.132 370.536 420.36 369.78C420.73 369.55 421.13 369.16 420.97 368.78C420.81 368.4 420.45 368.39 420.12 368.36C416.983 368.062 413.829 368.718 411.07 370.24" fill="#455A64"/>
<path d="M410.78 371.68C411.517 366.874 411.113 361.961 409.6 357.34C410.73 357.09 412.12 356.92 412.86 357.82C413.226 358.386 413.395 359.058 413.34 359.73C413.394 364.279 412.531 368.793 410.8 373" fill="#455A64"/>
<path d="M387.72 388.89C387.439 388.68 387.19 388.431 386.98 388.15C386.365 387.414 385.832 386.612 385.39 385.76C383.887 382.925 383.356 379.676 383.88 376.51C384.404 373.345 385.954 370.439 388.29 368.24C388.978 367.573 389.739 366.985 390.56 366.49C390.853 366.295 391.168 366.137 391.5 366.02C390.467 366.785 389.481 367.613 388.55 368.5C386.352 370.696 384.897 373.525 384.389 376.59C383.882 379.656 384.347 382.803 385.72 385.59C386.316 386.731 386.984 387.833 387.72 388.89Z" fill="white"/>
<path d="M392.49 392.49C392.44 392.62 391.69 392.49 390.93 391.92C390.17 391.35 389.78 390.72 389.93 390.63C390.08 390.54 390.58 391 391.27 391.5C391.96 392 392.54 392.35 392.49 392.49Z" fill="white"/>
<path d="M191.53 315.05C191.09 315.15 194.32 331.37 194.32 331.37H202.58L206.23 315.7C201.494 314.076 196.391 313.85 191.53 315.05Z" fill="#455A64"/>
<path d="M186.55 406.36C186.55 406.36 174.39 372.3 176.09 363.06C177.79 353.82 181.44 351.87 184.36 348.95C187.28 346.03 189.71 343.6 190.44 340.68C191.17 337.76 190.44 326.09 190.44 326.09C190.44 326.09 188.25 322.68 188.98 321.47C189.71 320.26 207.71 321.47 207.71 321.47C207.608 322.954 207.103 324.382 206.25 325.6C206.25 325.6 205.77 339.22 206.5 340.68C207.23 342.14 218.42 354.55 220.12 360.87C221.82 367.19 213.4 406.36 213.4 406.36H186.55Z" fill="#F5F5F5"/>
<path d="M186.55 406.36H187.02H188.39H193.67L213.4 406.27L213.24 406.4C214.24 401.45 215.39 395.84 216.53 389.67C217.67 383.5 218.86 376.76 219.69 369.53C219.88 367.72 220.05 365.89 220.09 364.02C220.263 362.148 219.862 360.268 218.94 358.63C217.08 355.166 214.908 351.879 212.45 348.81C211.23 347.21 209.95 345.62 208.66 344.02C208.02 343.21 207.37 342.41 206.74 341.57C206.571 341.352 206.414 341.125 206.27 340.89C206.169 340.623 206.102 340.344 206.07 340.06C205.994 339.533 205.947 339.002 205.93 338.47C205.74 334.26 205.87 330 205.99 325.67V325.6V325.54C206.17 325.24 206.37 324.92 206.54 324.54C207.027 323.608 207.319 322.588 207.4 321.54L207.64 321.79C203.54 321.53 199.48 321.33 195.51 321.26C193.564 321.19 191.615 321.266 189.68 321.49C189.498 321.52 189.322 321.581 189.16 321.67C189.072 321.832 189.03 322.016 189.04 322.2C189.069 322.653 189.17 323.099 189.34 323.52C189.683 324.39 190.105 325.227 190.6 326.02V326.08V326.14C190.78 329.25 190.91 332.31 190.92 335.32C190.944 336.819 190.887 338.317 190.75 339.81C190.563 341.302 190.002 342.722 189.12 343.94C188.292 345.117 187.365 346.221 186.35 347.24C185.35 348.24 184.35 349.24 183.35 350.19C182.331 351.079 181.369 352.031 180.47 353.04C179.624 354.037 178.905 355.135 178.33 356.31C177.26 358.59 176.522 361.011 176.14 363.5C176.015 364.69 176.015 365.89 176.14 367.08C176.22 368.25 176.38 369.41 176.54 370.54C177.245 374.703 178.16 378.829 179.28 382.9C181.28 390.34 183.16 396.2 184.45 400.23C185.11 402.23 185.62 403.76 185.97 404.83C186.14 405.34 186.26 405.74 186.36 406.02C186.46 406.3 186.48 406.43 186.48 406.43C186.417 406.304 186.364 406.174 186.32 406.04L185.88 404.86C185.51 403.86 184.97 402.28 184.29 400.28C182.94 396.28 181 390.43 178.96 382.98C177.96 379.26 176.91 375.14 176.16 370.6C175.99 369.46 175.83 368.3 175.74 367.1C175.605 365.884 175.605 364.656 175.74 363.44C176.122 360.907 176.866 358.442 177.95 356.12C178.537 354.91 179.273 353.778 180.14 352.75C181.047 351.725 182.019 350.76 183.05 349.86C184.05 348.93 185.05 347.93 186 346.92C186.997 345.916 187.907 344.828 188.72 343.67C189.555 342.514 190.085 341.165 190.26 339.75C190.389 338.277 190.443 336.798 190.42 335.32C190.42 332.32 190.27 329.27 190.09 326.17V326.29C189.565 325.469 189.123 324.598 188.77 323.69C188.585 323.213 188.474 322.71 188.44 322.2C188.423 321.902 188.503 321.607 188.67 321.36C188.896 321.156 189.178 321.027 189.48 320.99C191.454 320.755 193.443 320.675 195.43 320.75C199.43 320.81 203.43 321.01 207.59 321.28H208V321.53C207.924 322.668 207.614 323.777 207.09 324.79C206.912 325.134 206.715 325.468 206.5 325.79V325.66C206.38 329.97 206.25 334.24 206.43 338.41C206.451 338.925 206.498 339.439 206.57 339.95C206.596 340.181 206.646 340.409 206.72 340.63C206.85 340.83 206.98 341.03 207.14 341.24C207.75 342.06 208.41 342.86 209.05 343.66C210.34 345.27 211.62 346.86 212.84 348.47C215.318 351.568 217.504 354.889 219.37 358.39C220.318 360.099 220.732 362.053 220.56 364C220.56 365.89 220.34 367.74 220.14 369.55C219.3 376.8 218.07 383.55 216.93 389.71C215.79 395.87 214.62 401.5 213.55 406.44V406.58H213.41L193.6 406.49H188.35H187.01L186.55 406.36Z" fill="#263238"/>
<path d="M211.07 402.83C214.152 391.449 216.193 379.811 217.17 368.06C217.28 366.72 217.28 365.17 216.26 364.28C215.02 363.2 213.13 363.78 211.56 364.28C206.946 365.744 202.034 366.006 197.29 365.04C192.68 364.04 188.1 361.98 183.46 362.75C182.87 362.8 182.295 362.968 181.771 363.245C181.247 363.521 180.784 363.901 180.41 364.36C179.66 365.48 179.84 366.95 180.05 368.28C181.88 379.72 185.61 392.86 188.64 402.83H211.07Z" fill="#9F9070"/>
<path d="M214.12 365.69C213.869 366.04 213.577 366.359 213.25 366.64C212.392 367.451 211.469 368.191 210.49 368.85C207.26 371.075 203.544 372.491 199.652 372.98C195.761 373.469 191.81 373.016 188.13 371.66C187.018 371.264 185.941 370.776 184.91 370.2C184.52 370.013 184.157 369.774 183.83 369.49C183.83 369.4 185.45 370.38 188.25 371.32C191.889 372.544 195.757 372.93 199.567 372.45C203.376 371.971 207.028 370.638 210.25 368.55C212.77 367 214.05 365.61 214.12 365.69Z" fill="white"/>
</g>
<defs>
<clipPath id="clip0_23_12826">
<rect width="500" height="421" fill="white"/>
</clipPath>
</defs>
</svg>
