<svg width="200" height="200" viewBox="0 0 200 200" fill="none" xmlns="http://www.w3.org/2000/svg">
<path d="M57.2401 24.52H18.0801V110.124H57.2401V24.52Z" fill="white"/>
<path d="M59.6402 112.524H15.6802V22.1201H59.6402V112.524ZM20.4802 107.724H54.8402V26.9201H20.4802V107.724Z" fill="#EBEBEB"/>
<path d="M57.2401 65.972H18.0801V68.3961H57.2401V65.972Z" fill="#EBEBEB"/>
<path d="M57.2401 47.9H18.0801V50.324H57.2401V47.9Z" fill="#EBEBEB"/>
<path d="M45.7601 29.1121V66.688H47.9601V29.1121H45.7601Z" fill="#EBEBEB"/>
<path d="M36.5602 29.1121V66.688H38.7602V29.1121H36.5602Z" fill="#EBEBEB"/>
<path d="M27.3601 29.1121L27.3601 66.688H29.5601L29.5601 29.1121H27.3601Z" fill="#EBEBEB"/>
<path d="M61.6961 21.7241H13.6241V30.5001H61.6961V21.7241Z" fill="#EBEBEB"/>
<path d="M61.6961 21.7241H13.6241V27.8441H61.6961V21.7241Z" fill="#DBDBDB"/>
<path d="M64.7202 17.332H10.5962V26.108H64.7202V17.332Z" fill="#EBEBEB"/>
<path d="M131.624 24.52H92.4641V110.124H131.624V24.52Z" fill="white"/>
<path d="M134.028 112.524H90.0681V22.1201H134.028V112.524ZM94.8681 107.724H129.228V26.9201H94.8681V107.724Z" fill="#EBEBEB"/>
<path d="M131.624 65.972H92.4641V68.3961H131.624V65.972Z" fill="#EBEBEB"/>
<path d="M131.624 47.9H92.4641V50.324H131.624V47.9Z" fill="#EBEBEB"/>
<path d="M120.148 29.108V66.684H122.348V29.108H120.148Z" fill="#EBEBEB"/>
<path d="M110.948 29.108V66.684H113.148V29.108H110.948Z" fill="#EBEBEB"/>
<path d="M101.748 29.108V66.684H103.948V29.108H101.748Z" fill="#EBEBEB"/>
<path d="M136.084 21.7241H88.0121V30.5001H136.084V21.7241Z" fill="#EBEBEB"/>
<path d="M136.084 21.7241H88.0121V27.8441H136.084V21.7241Z" fill="#DBDBDB"/>
<path d="M139.108 17.332H84.9841V26.108H139.108V17.332Z" fill="#EBEBEB"/>
<path d="M149.516 139.08L154.86 138.968L157.492 138.924C158.368 138.904 159.236 138.924 160.108 138.9L159.932 139.08L159.908 134.604L160.108 134.804L154.8 134.8C153.036 134.8 151.272 134.752 149.504 134.732L149.616 134.624C149.616 135.356 149.58 136.092 149.56 136.84L149.516 139.08ZM149.516 139.08L149.46 136.864C149.46 136.12 149.416 135.364 149.408 134.604V134.496H149.516C151.284 134.476 153.048 134.432 154.812 134.428L160.108 134.404H160.308V134.604V139.08V139.26H160.128C159.236 139.26 158.34 139.26 157.452 139.236L154.788 139.192L149.516 139.08Z" fill="#EBEBEB"/>
<path d="M155.424 144.724L160.768 144.612L163.4 144.568C164.276 144.548 165.144 144.568 166.016 144.544L165.84 144.724L165.82 140.248L166.016 140.448L160.72 140.424C158.956 140.424 157.192 140.376 155.424 140.356L155.536 140.248C155.536 140.98 155.5 141.716 155.484 142.464L155.424 144.724ZM155.424 144.724L155.368 142.508C155.368 141.764 155.324 141.008 155.316 140.248V140.14H155.424C157.192 140.12 158.956 140.076 160.72 140.072L166.016 140.048H166.22V140.248L166.2 144.724V144.904H166C165.108 144.904 164.216 144.904 163.324 144.88L160.66 144.836L155.424 144.724Z" fill="#EBEBEB"/>
<path d="M143.6 144.724L148.944 144.612L151.576 144.568C152.448 144.548 153.32 144.568 154.192 144.544L154.016 144.724L154 140.248L154.2 140.448L148.904 140.424C147.14 140.424 145.372 140.376 143.608 140.356L143.716 140.248C143.716 140.98 143.684 141.716 143.664 142.464L143.6 144.724ZM143.6 144.724L143.544 142.508C143.524 141.764 143.5 141.008 143.492 140.248V140.14H143.6C145.364 140.12 147.132 140.076 148.896 140.072L154.192 140.048H154.392V140.248L154.4 144.724V144.904H154.224C153.332 144.904 152.436 144.904 151.548 144.88L148.884 144.836L143.6 144.724Z" fill="#EBEBEB"/>
<path d="M7.0921 144.724L12.4321 144.612L15.0641 144.568C15.9401 144.548 16.8121 144.568 17.6841 144.544L17.5041 144.724L17.4841 140.248L17.6841 140.448L12.4001 140.424C10.6321 140.424 8.8681 140.376 7.1041 140.356L7.2121 140.248C7.2121 140.98 7.1761 141.716 7.1601 142.464L7.0921 144.724ZM7.0921 144.724L7.0321 142.508C7.0321 141.764 6.9881 141.008 6.9801 140.248V140.14H7.0921C8.8561 140.12 10.6201 140.076 12.3881 140.072L17.6841 140.048H17.8841V140.248L17.8601 144.724V144.904H17.6841C16.7921 144.904 15.8961 144.904 15.0041 144.88L12.3401 144.836L7.0921 144.724Z" fill="#EBEBEB"/>
<path d="M7.0921 23.944L12.4321 23.832L15.0641 23.784C15.9401 23.784 16.8121 23.784 17.6841 23.764L17.5041 23.94L17.4841 19.468L17.6841 19.664L12.4001 19.64C10.6321 19.64 8.8681 19.596 7.1041 19.576L7.2121 19.468C7.2121 20.2 7.1761 20.936 7.1601 21.68L7.0921 23.944ZM7.0921 23.944L7.0321 21.728C7.0321 20.98 6.9881 20.224 6.9801 19.468V19.36H7.0921C8.8561 19.36 10.6201 19.296 12.3881 19.296L17.6841 19.272H17.8841V19.476L17.8601 23.948V24.128H17.6841C16.7921 24.128 15.8961 24.128 15.0041 24.128L12.3401 24.08L7.0921 23.944Z" fill="#EBEBEB"/>
<path d="M1.20013 29.6L6.54013 29.492L9.17213 29.444C10.0481 29.444 10.9161 29.444 11.7921 29.444L11.6001 29.6V25.128L11.8001 25.324L6.48013 25.284C4.71213 25.284 2.94813 25.24 1.18413 25.22L1.29213 25.112C1.29213 25.844 1.25613 26.58 1.24013 27.324L1.20013 29.6ZM1.20013 29.6L1.14013 27.388C1.14013 26.64 1.09613 25.884 1.08813 25.128V25.02H1.20013C2.96413 25.02 4.72813 24.956 6.49614 24.956L11.7921 24.932H11.9921V25.136L11.9521 29.6V29.78H11.7761C10.8801 29.78 9.98814 29.78 9.09614 29.78L6.43214 29.732L1.20013 29.6Z" fill="#EBEBEB"/>
<path d="M155.424 23.948L160.768 23.836L163.4 23.792C164.276 23.792 165.144 23.792 166.016 23.768L165.84 23.948L165.82 19.472L166.016 19.672L160.72 19.644C158.956 19.644 157.192 19.6 155.424 19.58L155.536 19.472C155.536 20.204 155.5 20.94 155.484 21.684L155.424 23.948ZM155.424 23.948L155.368 21.732C155.368 20.984 155.324 20.232 155.316 19.472V19.364H155.424C157.192 19.364 158.956 19.304 160.72 19.3L166 19.272H166.204V19.472L166.184 23.948V24.128H166C165.108 24.128 164.216 24.128 163.324 24.108L160.66 24.064L155.424 23.948Z" fill="#EBEBEB"/>
<path d="M86.3201 72.728L80.9761 72.84L78.3441 72.884C77.4681 72.884 76.6001 72.884 75.7241 72.884L75.9041 72.708L75.9241 77.184L75.7241 76.984L81.0241 77.008C82.7881 77.008 84.5521 77.052 86.3201 77.072L86.2081 77.184C86.2081 76.452 86.2441 75.712 86.2601 74.968L86.3201 72.728ZM86.3201 72.728L86.3761 74.94C86.3761 75.688 86.4201 76.444 86.4281 77.204V77.312H86.3201C84.5521 77.332 82.7881 77.376 81.0241 77.376L75.7241 77.404H75.5241V77.2L75.5441 72.724V72.544H75.7201C76.6161 72.544 77.5081 72.544 78.4001 72.568L81.0641 72.612L86.3201 72.728Z" fill="#EBEBEB"/>
<path d="M80.4002 67.0841L75.0602 67.1961L72.4282 67.2401C71.5522 67.2601 70.6802 67.2401 69.8082 67.2601L69.9882 67.0841V71.5601L69.7882 71.3601L75.0842 71.3841C76.8522 71.3841 78.6162 71.4281 80.3802 71.4481L80.2722 71.5601C80.2722 70.8281 80.3082 70.0881 80.3242 69.3441L80.4002 67.0841ZM80.4002 67.0841L80.4602 69.2961C80.4602 70.0441 80.5042 70.8001 80.5122 71.5601V71.6681H80.4002C78.6362 71.6881 76.8722 71.7321 75.1042 71.7321L69.8082 71.7601H69.6002V71.5601L69.6242 67.0841V66.9041H69.8002C70.6922 66.9041 71.5882 66.9041 72.4802 66.9281L75.1442 66.9721L80.4002 67.0841Z" fill="#EBEBEB"/>
<path d="M99.7161 192.952C152.437 192.952 195.176 188.693 195.176 183.44C195.176 178.187 152.437 173.928 99.7161 173.928C46.995 173.928 4.2561 178.187 4.2561 183.44C4.2561 188.693 46.995 192.952 99.7161 192.952Z" fill="#EBEBEB"/>
<path d="M168.12 74.752L159.144 26.548L150.848 74.748L150.452 74.68L159.128 24.28L168.512 74.676L168.12 74.752Z" fill="#DBDBDB"/>
<path d="M165.72 114.58L159.24 90.788L153.248 114.576L152.86 114.48L159.224 89.212L166.104 114.476L165.72 114.58Z" fill="#DBDBDB"/>
<path d="M159.96 25.032C159.96 25.195 159.912 25.3543 159.821 25.4898C159.731 25.6253 159.602 25.7309 159.451 25.7933C159.301 25.8557 159.135 25.872 158.975 25.8402C158.815 25.8084 158.669 25.7299 158.553 25.6147C158.438 25.4994 158.36 25.3526 158.328 25.1928C158.296 25.0329 158.312 24.8673 158.375 24.7167C158.437 24.5661 158.543 24.4374 158.678 24.3469C158.814 24.2563 158.973 24.208 159.136 24.208C159.244 24.2075 159.352 24.2284 159.452 24.2697C159.552 24.3109 159.643 24.3716 159.72 24.4482C159.796 24.5248 159.857 24.6158 159.898 24.7161C159.94 24.8163 159.961 24.9237 159.96 25.032Z" fill="#A6A6A6"/>
<path d="M166.756 113.772L166.504 117.116L165.9 125.08H153.068L152.464 117.116L152.208 113.772H166.756Z" fill="#9F9070"/>
<path opacity="0.1" d="M166.756 113.772L166.504 117.116H152.464L152.208 113.772H166.756Z" fill="black"/>
<path d="M167.636 112.7H151.328V115.296H167.636V112.7Z" fill="#9F9070"/>
<path d="M168.08 112.164C168.069 112.269 168.038 112.371 167.988 112.464C167.938 112.556 167.871 112.638 167.789 112.705C167.707 112.772 167.613 112.821 167.512 112.851C167.411 112.881 167.305 112.891 167.2 112.88C167.093 113.018 166.945 113.118 166.778 113.167C166.611 113.216 166.432 113.211 166.268 113.152C166.187 113.329 166.054 113.476 165.886 113.575C165.719 113.673 165.526 113.718 165.332 113.704C165.399 113.931 165.379 114.176 165.277 114.389C165.174 114.603 164.995 114.771 164.776 114.86C164.737 114.989 164.655 115.101 164.544 115.178C164.433 115.254 164.299 115.29 164.164 115.28C164.013 115.258 163.869 115.201 163.744 115.114C163.619 115.026 163.516 114.91 163.444 114.776C163.381 114.859 163.302 114.927 163.212 114.978C163.121 115.028 163.021 115.059 162.918 115.068C162.815 115.078 162.711 115.065 162.613 115.032C162.515 114.999 162.424 114.946 162.348 114.876C162.262 114.791 162.204 114.683 162.18 114.564C162.157 114.446 162.169 114.323 162.216 114.212C162.164 114.188 162.116 114.157 162.072 114.12C161.97 114.016 161.894 113.889 161.85 113.75C161.805 113.611 161.794 113.464 161.816 113.32C161.603 113.406 161.365 113.406 161.152 113.32C161.128 113.428 161.069 113.524 160.986 113.596C160.902 113.668 160.798 113.712 160.688 113.72C160.727 113.856 160.734 113.999 160.708 114.138C160.681 114.277 160.622 114.408 160.536 114.52C160.433 114.637 160.303 114.727 160.157 114.782C160.011 114.837 159.855 114.855 159.7 114.836C159.792 115.276 159.812 115.772 159.416 116.064C159.323 116.133 159.212 116.176 159.097 116.187C158.981 116.198 158.865 116.178 158.76 116.128C158.738 116.24 158.694 116.346 158.63 116.44C158.566 116.534 158.483 116.614 158.387 116.675C158.29 116.736 158.182 116.776 158.07 116.793C157.957 116.811 157.842 116.805 157.732 116.776C157.804 117.046 157.768 117.332 157.632 117.576C157.575 117.674 157.496 117.758 157.4 117.819C157.305 117.881 157.197 117.92 157.084 117.932C157.084 118.36 156.9 118.824 156.4 118.816C156.326 118.814 156.254 118.795 156.189 118.762C156.123 118.728 156.066 118.681 156.02 118.623C155.975 118.565 155.943 118.498 155.926 118.426C155.909 118.354 155.909 118.28 155.924 118.208C155.815 118.183 155.715 118.13 155.633 118.054C155.552 117.978 155.492 117.882 155.459 117.775C155.426 117.669 155.422 117.556 155.446 117.447C155.471 117.338 155.524 117.238 155.6 117.156C155.491 117.07 155.403 116.96 155.342 116.835C155.282 116.71 155.25 116.573 155.25 116.434C155.25 116.295 155.282 116.158 155.342 116.033C155.403 115.908 155.491 115.798 155.6 115.712C155.541 115.654 155.494 115.584 155.463 115.507C155.432 115.43 155.417 115.348 155.42 115.265C155.422 115.182 155.441 115.1 155.476 115.025C155.511 114.95 155.562 114.883 155.624 114.828C155.531 114.75 155.456 114.652 155.406 114.541C155.355 114.43 155.33 114.31 155.332 114.188C155.343 114.039 155.392 113.896 155.473 113.771C155.554 113.646 155.665 113.543 155.796 113.472C155.745 113.452 155.699 113.422 155.661 113.383C155.622 113.345 155.592 113.299 155.572 113.248C155.57 113.225 155.57 113.203 155.572 113.18C155.498 113.213 155.417 113.229 155.336 113.229C155.255 113.229 155.174 113.213 155.1 113.18C155 113.135 154.918 113.059 154.864 112.964C154.741 113.08 154.591 113.163 154.427 113.204C154.263 113.244 154.091 113.242 153.928 113.196C153.872 113.298 153.795 113.388 153.701 113.457C153.607 113.526 153.499 113.574 153.385 113.597C153.27 113.621 153.152 113.619 153.039 113.591C152.925 113.564 152.819 113.513 152.728 113.44C152.436 113.704 152.032 113.96 151.648 113.72C151.577 113.674 151.52 113.609 151.482 113.533C151.444 113.457 151.427 113.373 151.432 113.288C151.332 113.29 151.233 113.264 151.147 113.213C151.061 113.162 150.991 113.089 150.944 113C150.893 112.897 150.879 112.779 150.903 112.666C150.928 112.553 150.99 112.453 151.08 112.38C150.988 112.313 150.922 112.215 150.896 112.104C150.887 112.026 150.894 111.947 150.918 111.872C150.941 111.797 150.98 111.728 151.031 111.669C151.083 111.61 151.146 111.562 151.217 111.529C151.288 111.496 151.366 111.478 151.444 111.476C151.395 111.341 151.384 111.196 151.411 111.055C151.437 110.915 151.501 110.784 151.596 110.676C151.715 110.557 151.858 110.465 152.017 110.409C152.175 110.352 152.345 110.331 152.512 110.348C152.478 110.147 152.507 109.941 152.594 109.757C152.681 109.573 152.823 109.421 153 109.32C153.167 109.238 153.358 109.217 153.539 109.261C153.72 109.305 153.88 109.411 153.992 109.56C154.102 109.395 154.249 109.257 154.421 109.158C154.593 109.059 154.785 109.001 154.983 108.988C155.181 108.975 155.38 109.008 155.563 109.085C155.746 109.161 155.909 109.278 156.04 109.428C156.109 109.284 156.229 109.171 156.377 109.111C156.525 109.051 156.69 109.048 156.84 109.104C157.037 109.195 157.2 109.344 157.308 109.532C157.417 109.72 157.464 109.936 157.444 110.152C157.646 110.052 157.871 110.009 158.096 110.027C158.32 110.044 158.536 110.122 158.72 110.252C158.88 110.377 159.009 110.538 159.094 110.722C159.18 110.907 159.22 111.109 159.212 111.312C159.399 111.211 159.61 111.164 159.822 111.176C160.034 111.189 160.239 111.261 160.412 111.384C160.717 110.929 161.164 110.587 161.684 110.412C161.863 110.366 162.049 110.362 162.23 110.401C162.41 110.439 162.579 110.518 162.724 110.632C162.802 110.366 162.955 110.127 163.167 109.947C163.378 109.767 163.637 109.652 163.912 109.618C164.188 109.583 164.467 109.629 164.717 109.751C164.966 109.873 165.174 110.065 165.316 110.304C165.462 110.185 165.638 110.109 165.824 110.085C166.011 110.06 166.201 110.089 166.372 110.168C166.601 110.293 166.802 110.465 166.961 110.671C167.121 110.878 167.236 111.115 167.3 111.368C167.404 111.367 167.507 111.387 167.604 111.427C167.7 111.466 167.787 111.525 167.86 111.6C167.933 111.674 167.99 111.762 168.028 111.859C168.065 111.956 168.083 112.06 168.08 112.164Z" fill="#37474F"/>
<path d="M169.204 74.888L168.864 79.36L168.056 90H150.912L150.104 79.36L149.76 74.888H169.204Z" fill="#9F9070"/>
<path opacity="0.1" d="M169.204 74.888L168.864 79.36H150.104L149.76 74.888H169.204Z" fill="black"/>
<path d="M170.384 73.456H148.588V76.928H170.384V73.456Z" fill="#9F9070"/>
<path d="M169.884 74.332C170.026 74.4933 170.125 74.688 170.171 74.8979C170.217 75.1078 170.209 75.326 170.148 75.532C170.017 75.8107 169.832 76.0603 169.603 76.2664C169.374 76.4725 169.107 76.6308 168.816 76.732C168.936 76.8963 169.019 77.0843 169.06 77.2834C169.101 77.4825 169.098 77.688 169.053 77.8862C169.008 78.0844 168.921 78.2706 168.798 78.4324C168.675 78.5941 168.519 78.7277 168.34 78.824C168.86 79.432 169.072 80.124 168.4 80.572C168.521 80.7471 168.605 80.9451 168.647 81.1538C168.689 81.3625 168.687 81.5775 168.643 81.7857C168.599 81.9939 168.513 82.1909 168.39 82.3646C168.267 82.5384 168.11 82.6852 167.928 82.796C168.076 83.276 167.612 84.712 166.628 84.712C166.448 84.7107 166.272 84.6626 166.116 84.5726C165.96 84.4826 165.83 84.3537 165.739 84.1985C165.648 84.0434 165.599 83.8672 165.596 83.6873C165.593 83.5073 165.637 83.3298 165.724 83.172C165.556 83.0841 165.411 82.9575 165.301 82.8027C165.191 82.6479 165.12 82.4693 165.093 82.2815C165.065 82.0938 165.083 81.9022 165.144 81.7225C165.205 81.5429 165.308 81.3803 165.444 81.248C165.444 81.248 164.836 81.376 164.544 81.068C164.466 80.9472 164.42 80.8081 164.412 80.6644C164.403 80.5206 164.432 80.3772 164.496 80.248C164.375 80.0972 164.286 79.9227 164.236 79.7358C164.186 79.5488 164.176 79.3535 164.206 79.1623C164.235 78.9711 164.305 78.7882 164.409 78.6253C164.514 78.4623 164.651 78.323 164.812 78.216C164.69 78.1083 164.593 77.9759 164.526 77.8277C164.459 77.6794 164.424 77.5187 164.424 77.356C164.424 77.1934 164.459 77.0326 164.526 76.8844C164.593 76.7361 164.69 76.6038 164.812 76.496C164.536 76.3706 164.302 76.1695 164.136 75.916C163.636 76.156 163.336 75.944 163.064 75.476C162.912 75.6474 162.713 75.7699 162.492 75.8283C162.27 75.8867 162.037 75.8782 161.82 75.804C161.762 76.0033 161.659 76.1867 161.52 76.3404C161.38 76.4941 161.208 76.614 161.015 76.6911C160.822 76.7681 160.614 76.8004 160.407 76.7853C160.2 76.7702 160 76.7082 159.82 76.604C159.796 76.9733 159.666 77.3278 159.444 77.624C159.372 77.7105 159.296 77.7932 159.216 77.872C159.13 77.9836 159.056 78.1043 158.996 78.232C158.885 78.4361 158.731 78.6136 158.544 78.752C158.383 78.885 158.178 78.9537 157.969 78.9448C157.76 78.936 157.562 78.8502 157.412 78.704C157.335 78.6122 157.284 78.501 157.266 78.3826C157.248 78.2641 157.262 78.1429 157.308 78.032C157.09 77.9574 156.91 77.7993 156.808 77.5924C156.706 77.3855 156.69 77.1466 156.764 76.928C156.549 76.9454 156.334 76.8969 156.148 76.789C155.961 76.6811 155.812 76.5189 155.72 76.324C155.618 76.4542 155.488 76.5601 155.34 76.6341C155.192 76.7081 155.029 76.7484 154.864 76.752C154.976 77.0595 154.963 77.3984 154.83 77.6969C154.696 77.9955 154.452 78.2305 154.148 78.352C154.242 78.5073 154.303 78.6807 154.325 78.8608C154.348 79.041 154.333 79.2239 154.28 79.3978C154.228 79.5716 154.14 79.7325 154.021 79.8701C153.902 80.0076 153.756 80.1186 153.592 80.196C153.706 80.3928 153.743 80.6252 153.694 80.8475C153.645 81.0697 153.514 81.2655 153.328 81.396C153.4 81.5621 153.433 81.7423 153.426 81.9231C153.418 82.1039 153.37 82.2806 153.284 82.44C153.208 82.5551 153.101 82.6471 152.977 82.7063C152.852 82.7655 152.713 82.7896 152.576 82.776C152.491 82.7546 152.413 82.7134 152.347 82.656C152.281 82.5985 152.23 82.5263 152.197 82.4453C152.164 82.3642 152.151 82.2766 152.159 82.1895C152.166 82.1024 152.194 82.0183 152.24 81.944C152.019 81.8628 151.821 81.727 151.666 81.5493C151.511 81.3716 151.403 81.1577 151.352 80.9273C151.302 80.6969 151.31 80.4574 151.376 80.231C151.443 80.0047 151.565 79.7986 151.732 79.632C151.554 79.5872 151.39 79.5005 151.253 79.379C151.116 79.2576 151.01 79.105 150.944 78.9341C150.878 78.7632 150.855 78.579 150.875 78.397C150.895 78.2149 150.958 78.0404 151.06 77.888C150.839 77.8366 150.637 77.7236 150.478 77.5622C150.319 77.4008 150.209 77.1976 150.16 76.976C150.133 76.8132 150.142 76.6466 150.184 76.4873C150.227 76.3279 150.303 76.1796 150.408 76.052C150.293 76.0697 150.175 76.0577 150.066 76.0171C149.957 75.9765 149.86 75.9086 149.784 75.82C149.696 75.7058 149.651 75.5642 149.656 75.42C149.475 75.4625 149.285 75.4466 149.113 75.3748C148.942 75.303 148.797 75.1788 148.7 75.02C148.618 74.8552 148.591 74.6685 148.623 74.4872C148.654 74.3059 148.743 74.1394 148.876 74.012C148.756 73.9737 148.647 73.905 148.561 73.8125C148.475 73.72 148.414 73.6069 148.384 73.484C148.353 73.3339 148.373 73.1778 148.44 73.04C148.326 73.0642 148.208 73.0646 148.093 73.0411C147.978 73.0177 147.87 72.9709 147.774 72.9038C147.679 72.8366 147.598 72.7505 147.537 72.6508C147.476 72.551 147.436 72.4398 147.42 72.324C147.404 72.1687 147.442 72.0126 147.526 71.8812C147.61 71.7498 147.736 71.6507 147.884 71.6C147.802 71.4268 147.78 71.2314 147.82 71.044C147.948 70.516 148.56 70.352 149.044 70.292C148.984 70.1147 148.971 69.9248 149.005 69.7408C149.04 69.5568 149.122 69.3848 149.242 69.2416C149.363 69.0984 149.519 68.9888 149.694 68.9233C149.87 68.8579 150.059 68.8388 150.244 68.868C150.227 68.6631 150.266 68.4574 150.358 68.2733C150.45 68.0892 150.59 67.9338 150.764 67.824C150.947 67.7211 151.157 67.675 151.366 67.6913C151.575 67.7077 151.775 67.7859 151.94 67.916H151.972C152.28 67.964 152.561 68.1191 152.766 68.3539C152.971 68.5888 153.086 68.8884 153.092 69.2C153.291 69.0926 153.514 69.0363 153.74 69.0363C153.966 69.0363 154.189 69.0926 154.388 69.2C154.623 69.3428 154.825 69.5346 154.98 69.7623C155.135 69.9901 155.238 70.2486 155.284 70.52C155.451 70.3424 155.658 70.2069 155.888 70.1248C156.118 70.0426 156.364 70.016 156.606 70.0472C156.848 70.0784 157.079 70.1666 157.28 70.3044C157.481 70.4422 157.647 70.6258 157.764 70.84C157.948 70.6418 158.185 70.5005 158.447 70.4328C158.709 70.3651 158.985 70.3738 159.242 70.458C159.499 70.5421 159.727 70.6982 159.898 70.9077C160.069 71.1172 160.177 71.3713 160.208 71.64C160.66 71.2653 161.198 71.0096 161.774 70.8964C162.349 70.7832 162.944 70.8161 163.504 70.992C163.585 70.7698 163.717 70.5692 163.887 70.4056C164.058 70.242 164.265 70.1197 164.49 70.0483C164.716 69.9768 164.955 69.958 165.189 69.9933C165.423 70.0287 165.646 70.1172 165.84 70.252C165.969 69.9428 166.194 69.6836 166.483 69.5133C166.771 69.3431 167.107 69.2711 167.44 69.308C167.831 69.3798 168.197 69.5506 168.503 69.8041C168.809 70.0576 169.045 70.3854 169.188 70.756C169.427 70.7729 169.66 70.8443 169.867 70.9649C170.075 71.0855 170.252 71.2519 170.385 71.4516C170.518 71.6512 170.604 71.8787 170.636 72.1166C170.668 72.3545 170.644 72.5965 170.568 72.824C170.626 72.9676 170.654 73.1214 170.651 73.2762C170.647 73.431 170.613 73.5835 170.549 73.7245C170.485 73.8655 170.393 73.992 170.279 74.0964C170.164 74.2009 170.03 74.281 169.884 74.332Z" fill="#37474F"/>
<path d="M69.8601 181.076C68.9441 181.372 42.9481 181.036 41.9681 180.392C41.5881 180.156 41.4201 176.364 41.3441 171.776C41.3441 171.728 41.3441 171.68 41.3441 171.632C41.3441 170.688 41.3161 169.716 41.3121 168.728C41.3121 168.592 41.3121 168.456 41.3121 168.328L42.5761 154.844L59.9641 155.016L58.2481 168.376V168.908L58.1441 171.672V171.956C58.1441 171.956 68.0361 176.536 69.0401 177.356C70.0441 178.176 70.7721 180.8 69.8601 181.076Z" fill="#AD6359"/>
<path d="M69.8601 181.076C68.9441 181.372 42.9481 181.036 41.9681 180.392C41.5881 180.156 41.4201 176.364 41.3441 171.776C41.3441 171.728 41.3441 171.68 41.3441 171.632C41.3441 170.688 41.3161 169.716 41.3121 168.728C41.3121 168.592 41.3121 168.456 41.3121 168.328L58.2481 168.376V168.908L58.1441 171.672V171.956C58.1441 171.956 68.0361 176.536 69.0401 177.356C70.0441 178.176 70.7721 180.8 69.8601 181.076Z" fill="#EBEBEB"/>
<path d="M69.8601 181.076C69.3921 181.228 62.3281 181.212 55.4241 181.076C54.0361 181.048 52.6561 181.016 51.3401 180.98C46.4161 180.844 42.3481 180.644 41.9681 180.396C41.5881 180.148 41.4241 176.476 41.3481 171.972C41.3481 171.908 41.3481 171.844 41.3481 171.78C41.3481 171.716 41.3481 171.68 41.3481 171.636H41.3681L58.1241 171.664V171.952C58.1241 171.952 68.0201 176.528 69.0201 177.348C70.0201 178.168 70.7721 180.8 69.8601 181.076Z" fill="#9F9070"/>
<path d="M69.5761 180.064C65.1961 179.9 47.5081 179.664 43.1761 179.82C43.1401 179.82 43.1401 179.848 43.1761 179.848C47.5121 180.108 65.2001 180.212 69.5761 180.136C69.6681 180.136 69.6681 180.068 69.5761 180.064Z" fill="#263238"/>
<path d="M60.0001 171.736C58.2801 171.392 56.1641 171.628 54.8321 172.84C54.7801 172.888 54.8321 172.96 54.9041 172.944C56.5582 172.432 58.2627 172.099 59.9881 171.952C60.0167 171.954 60.0448 171.944 60.0662 171.925C60.0876 171.906 60.1005 171.879 60.1021 171.85C60.1037 171.821 60.0938 171.793 60.0747 171.772C60.0556 171.751 60.0287 171.738 60.0001 171.736Z" fill="#263238"/>
<path d="M61.2001 172.504C59.4801 172.156 57.3681 172.396 56.0361 173.608C55.9841 173.652 56.0361 173.728 56.1081 173.708C57.7655 173.198 59.4725 172.867 61.2001 172.72C61.2288 172.72 61.2563 172.709 61.2765 172.688C61.2968 172.668 61.3081 172.641 61.3081 172.612C61.3081 172.583 61.2968 172.556 61.2765 172.536C61.2563 172.515 61.2288 172.504 61.2001 172.504Z" fill="#263238"/>
<path d="M62.4522 173.268C60.7322 172.924 58.6202 173.16 57.2882 174.372C57.2362 174.42 57.2882 174.492 57.3602 174.476C59.0144 173.965 60.7189 173.634 62.4442 173.488C62.47 173.484 62.4936 173.471 62.511 173.452C62.5284 173.432 62.5385 173.407 62.5394 173.381C62.5404 173.355 62.5322 173.33 62.5162 173.309C62.5003 173.288 62.4776 173.274 62.4522 173.268Z" fill="#263238"/>
<path d="M55.4241 181.072C54.0361 181.044 52.6561 181.012 51.3401 180.976C46.4161 180.84 42.3481 180.64 41.9681 180.392C41.5881 180.144 41.4241 176.472 41.3481 171.968C41.3481 171.904 41.3481 171.84 41.3481 171.776C41.3481 171.712 41.3481 171.676 41.3481 171.632H41.3681C43.6561 173.24 51.7441 178.624 55.4241 181.072Z" fill="#263238"/>
<path d="M59.1562 171.72H40.4322C40.4322 171.72 44.2002 128 44.0562 127.228C43.8682 126.248 36.8802 98.888 35.5402 93.716C33.5402 85.964 31.9402 79.944 31.9402 79.944H47.8082C47.8082 79.944 49.6562 85.804 51.9882 93.432C55.7882 105.832 60.8602 122.892 61.3642 127.032C62.1882 133.736 59.1562 171.72 59.1562 171.72Z" fill="#455A64"/>
<path d="M58.4281 168.528C55.5681 168.468 56.3921 168.444 53.5321 168.416C52.1321 168.416 42.9321 168.324 41.6241 168.54C41.6167 168.54 41.6096 168.543 41.6043 168.548C41.5991 168.553 41.5961 168.561 41.5961 168.568C41.5961 168.575 41.5991 168.583 41.6043 168.588C41.6096 168.593 41.6167 168.596 41.6241 168.596C42.9321 168.816 52.1321 168.736 53.5321 168.72C56.3921 168.692 55.5681 168.668 58.4281 168.612C58.4801 168.608 58.4801 168.528 58.4281 168.528Z" fill="#263238"/>
<path d="M47.6801 124.552C47.0641 121.848 46.1481 119.196 45.3481 116.552C43.7268 111.157 42.0948 105.763 40.4521 100.368C39.6334 97.672 38.8108 94.976 37.9841 92.28C37.5628 90.92 37.1414 89.5614 36.7201 88.204C36.3201 86.872 35.8281 85.556 35.4521 84.204C35.3001 83.656 35.2161 83.956 35.4121 84.648C35.8121 86.048 36.2121 87.448 36.6121 88.836C37.4121 91.596 38.2241 94.3534 39.0481 97.108C40.6694 102.596 42.3068 108.077 43.9601 113.552C44.7841 116.301 45.6094 119.048 46.4361 121.792C46.8549 123.103 47.1929 124.439 47.4481 125.792C47.6634 127.197 47.7144 128.623 47.6001 130.04C47.4201 132.904 47.0881 135.764 46.8241 138.624C46.5601 141.484 46.2921 144.352 46.0241 147.216C45.4908 152.917 44.9681 158.617 44.4561 164.316C44.3881 165.036 44.3281 165.76 44.2721 166.484C44.2521 166.724 44.6201 166.708 44.6441 166.484C45.2601 160.848 45.7321 155.192 46.2641 149.548C46.7961 143.904 47.3161 138.312 47.8401 132.696C47.9721 131.288 48.1241 129.872 48.1241 128.456C48.123 127.142 47.9741 125.833 47.6801 124.552Z" fill="#263238"/>
<path d="M46.1242 79.944C45.1562 87.468 43.8082 112.744 43.5082 124.58C41.7162 117.412 36.7522 97.992 35.6442 93.716L32.0882 80.052C32.0897 80.0281 32.0897 80.004 32.0882 79.98C32.0873 79.9721 32.0873 79.964 32.0882 79.956L46.1242 79.944Z" fill="#263238"/>
<path d="M50.3081 181.076C49.3961 181.372 23.4001 181.036 22.4161 180.392C22.0401 180.156 21.8681 176.364 21.7921 171.776V171.632C21.7921 170.688 21.7601 169.716 21.7601 168.728C21.7601 168.592 21.7601 168.456 21.7601 168.328L23.0201 154.844L40.4121 155.016L38.6961 168.376V168.908L38.5921 171.672V171.956C38.5921 171.956 48.4881 176.536 49.4921 177.356C50.4961 178.176 51.2201 180.8 50.3081 181.076Z" fill="#AD6359"/>
<path d="M50.3081 181.076C49.3961 181.372 23.4001 181.036 22.4161 180.392C22.0401 180.156 21.8681 176.364 21.7921 171.776V171.632C21.7921 170.688 21.7601 169.716 21.7601 168.728C21.7601 168.592 21.7601 168.456 21.7601 168.328L38.6961 168.376V168.908L38.5921 171.672V171.956C38.5921 171.956 48.4881 176.536 49.4921 177.356C50.4961 178.176 51.2201 180.8 50.3081 181.076Z" fill="#EBEBEB"/>
<path d="M50.3122 181.076C49.8402 181.228 42.7762 181.212 35.8722 181.076C34.4842 181.048 33.1042 181.016 31.7882 180.98C26.8642 180.84 22.8002 180.64 22.4202 180.4C22.0402 180.16 21.8762 176.48 21.8002 171.976C21.8002 171.912 21.8002 171.848 21.8002 171.784C21.8002 171.72 21.8002 171.684 21.8002 171.64L38.5562 171.668V171.956C38.5562 171.956 48.4482 176.532 49.4522 177.352C50.4562 178.172 51.2202 180.8 50.3122 181.076Z" fill="#9F9070"/>
<path d="M50.0281 180.064C45.6281 179.9 27.9601 179.664 23.6281 179.82C23.5921 179.82 23.5921 179.848 23.6281 179.848C27.9681 180.108 45.6561 180.212 50.0281 180.136C50.1201 180.136 50.1201 180.068 50.0281 180.064Z" fill="#263238"/>
<path d="M40.4321 171.736C38.7121 171.392 36.6001 171.628 35.2681 172.84C35.2161 172.888 35.2681 172.96 35.3401 172.944C36.9943 172.432 38.6988 172.099 40.4241 171.952C40.4383 171.953 40.4525 171.95 40.4658 171.945C40.4791 171.94 40.4913 171.933 40.5017 171.923C40.5121 171.914 40.5205 171.902 40.5264 171.889C40.5323 171.876 40.5356 171.862 40.5361 171.848C40.5367 171.834 40.5344 171.82 40.5294 171.806C40.5245 171.793 40.517 171.781 40.5073 171.771C40.4977 171.76 40.4861 171.752 40.4732 171.746C40.4603 171.74 40.4463 171.737 40.4321 171.736Z" fill="#263238"/>
<path d="M41.6681 172.504C39.9481 172.156 37.8361 172.396 36.5001 173.608C36.4481 173.652 36.5001 173.728 36.5721 173.708C38.2282 173.199 39.9338 172.868 41.6601 172.72C41.6742 172.721 41.6884 172.718 41.7017 172.713C41.715 172.708 41.7272 172.701 41.7376 172.691C41.748 172.682 41.7564 172.67 41.7623 172.657C41.7682 172.644 41.7715 172.63 41.7721 172.616C41.7726 172.602 41.7703 172.588 41.7654 172.574C41.7604 172.561 41.7529 172.549 41.7433 172.538C41.7336 172.528 41.722 172.52 41.7091 172.514C41.6962 172.508 41.6823 172.505 41.6681 172.504Z" fill="#263238"/>
<path d="M42.9042 173.268C41.1842 172.924 39.0722 173.16 37.7362 174.372C37.6842 174.42 37.7362 174.492 37.8082 174.476C39.4625 173.966 41.167 173.634 42.8922 173.488C42.9181 173.485 42.9421 173.472 42.96 173.453C42.9778 173.434 42.9884 173.409 42.9898 173.383C42.9912 173.357 42.9835 173.331 42.9678 173.31C42.9522 173.289 42.9296 173.274 42.9042 173.268Z" fill="#263238"/>
<path d="M47.3121 79.944C47.3121 79.944 46.9441 87.544 45.2081 93.544C45.0681 94.04 44.9161 94.532 44.7521 95C44.7521 95 44.9961 94.808 42.2321 96.5C42.2321 96.5 43.3001 126.692 43.3441 128.5C43.5001 135.24 38.6001 172 38.6001 172L19.8801 172.076C19.8801 172.076 26.5681 130.4 26.5441 127.924C26.5081 123.952 24.1441 106.696 24.8761 93.904C25.1902 89.0419 26.4842 84.2934 28.6801 79.944H47.3121Z" fill="#455A64"/>
<path d="M38.0642 168.668C35.2042 168.62 36.0242 168.592 33.1642 168.576C31.7642 168.576 22.5682 168.528 21.2602 168.752C21.2528 168.752 21.2456 168.755 21.2404 168.76C21.2351 168.765 21.2322 168.773 21.2322 168.78C21.2322 168.787 21.2351 168.795 21.2404 168.8C21.2456 168.805 21.2528 168.808 21.2602 168.808C22.5682 169.02 31.7642 168.9 33.1642 168.88C36.0242 168.84 35.2042 168.82 38.0642 168.748C38.0748 168.748 38.085 168.744 38.0925 168.736C38.1 168.729 38.1042 168.719 38.1042 168.708C38.1042 168.697 38.1 168.687 38.0925 168.68C38.085 168.672 38.0748 168.668 38.0642 168.668Z" fill="#263238"/>
<path d="M29.9002 81.076C27.5322 85.628 26.6482 90.808 26.4562 95.876C26.2482 101.392 26.9082 106.892 27.4882 112.368C28.1002 118.124 28.6282 123.892 28.1882 129.68C27.7482 135.468 26.7082 141.332 25.8682 147.132C25.0282 152.932 24.1482 158.732 23.4282 164.548C23.3362 165.284 23.2442 166.02 23.1602 166.756C23.1602 166.796 23.2122 166.812 23.2162 166.756C24.2442 161.024 25.0882 155.26 25.9642 149.504C26.8402 143.748 27.8202 138.036 28.4122 132.268C29.0042 126.5 28.7562 120.776 28.1762 115.024C27.6202 109.484 26.8882 103.948 26.8682 98.372C26.8682 93.172 27.3762 87.88 29.2122 82.992C29.4562 82.344 29.7202 81.696 30.0122 81.056C30.0322 80.984 29.9482 80.98 29.9002 81.076Z" fill="#263238"/>
<path d="M45.6361 94.552C43.7739 95.3275 41.983 96.2644 40.2841 97.352C40.2698 97.3594 40.259 97.3723 40.2541 97.3876C40.2492 97.403 40.2507 97.4197 40.2581 97.434C40.2655 97.4483 40.2783 97.4591 40.2937 97.464C40.3091 97.4689 40.3258 97.4674 40.3401 97.46C42.1441 96.584 43.9881 95.74 45.7441 94.764C45.7681 94.7475 45.7852 94.7229 45.7924 94.6947C45.7995 94.6665 45.7962 94.6366 45.783 94.6107C45.7698 94.5848 45.7476 94.5645 45.7206 94.5537C45.6936 94.5429 45.6635 94.5423 45.6361 94.552Z" fill="#263238"/>
<path d="M45.7402 88.112C45.6162 88.776 45.4561 89.436 45.3121 90.112C45.1681 90.788 45.0761 91.364 44.9121 91.98C44.7774 92.5733 44.4763 93.1158 44.0442 93.544C43.8002 93.768 43.5321 93.972 43.2721 94.176C43.1321 94.288 42.9801 94.396 42.8361 94.508C42.8361 94.42 42.8682 94.332 42.8842 94.24C42.9322 93.988 42.9721 93.736 43.0161 93.484C43.1081 92.924 43.2002 92.364 43.2842 91.8C43.4522 90.696 43.6082 89.58 43.8402 88.488C43.8402 88.444 43.7801 88.428 43.7721 88.488C43.4961 89.572 43.1922 90.64 42.9522 91.736C42.8362 92.272 42.4162 94.936 42.3962 95.104C42.3762 95.272 42.3602 95.504 42.3562 95.684C42.3281 95.8804 42.3281 96.0797 42.3562 96.276C42.3562 96.324 42.4242 96.316 42.4442 96.276C42.5247 96.0921 42.5812 95.8985 42.6121 95.7C42.6601 95.512 42.7041 95.32 42.7361 95.128C42.7361 95.06 42.7601 94.988 42.7681 94.916C43.0281 94.76 43.2721 94.548 43.5161 94.372C43.7601 94.196 44.0441 93.996 44.2921 93.788C44.7508 93.3997 45.0824 92.8828 45.2442 92.304C45.4041 91.6812 45.5085 91.0453 45.5562 90.404C45.6402 89.652 45.7001 88.896 45.8041 88.148C45.8161 88.084 45.7482 88.064 45.7402 88.112Z" fill="#263238"/>
<path d="M44.4841 58.4C44.7241 61.512 46.5681 68.84 50.6881 75.344C52.2881 77.852 58.6881 81.164 63.9281 83.308C65.8631 84.1352 67.8565 84.8184 69.8921 85.352C70.0992 85.401 70.3089 85.4384 70.5201 85.464C73.0201 85.764 74.7441 81.984 75.0201 79.156C75.0201 79.08 75.0201 79 75.0201 78.924V78.8C75.0841 77.644 74.8881 76.7 74.3841 76.332C74.2055 76.2069 74.0199 76.092 73.8281 75.988C72.3213 75.2117 70.7767 74.5108 69.2001 73.888C68.7401 73.696 68.2561 73.488 67.7681 73.304C63.1641 71.452 57.8801 69.464 57.3681 68.984C56.5681 68.244 51.6121 62.508 48.7561 57.564C46.6601 53.96 44.0841 53.228 44.4841 58.4Z" fill="#AD6359"/>
<path d="M63.9281 83.308C65.8631 84.1352 67.8565 84.8184 69.8921 85.352C72.4223 85.9885 75.0158 86.34 77.6241 86.4C79.2241 86.4 83.8241 85.924 83.9201 84.696C84.0161 83.468 82.6601 83.496 82.6601 83.496C82.6601 83.496 84.5721 83.004 84.5561 81.76C84.5561 80.74 83.1281 80.624 82.6161 80.612C82.6044 80.6057 82.5914 80.6024 82.5781 80.6024C82.5648 80.6024 82.5518 80.6057 82.5401 80.612H82.4321C82.4321 80.612 84.3601 79.964 84.2561 78.724C84.1641 77.616 82.4721 77.864 82.1161 77.924C82.4121 77.832 83.7921 77.328 83.3161 76.444C82.6961 75.244 79.5041 76.576 77.7161 76.48C77.6321 76.48 77.1881 76.424 76.5521 76.348C75.2401 75.352 73.6081 74.428 72.8841 74.256C71.6589 74.0463 70.4191 73.9326 69.1761 73.916C68.7161 73.724 68.2321 73.516 67.7441 73.332C66.7561 74.42 63.7921 78.172 63.9281 83.308Z" fill="#AD6359"/>
<path d="M69.6002 75.448L69.2242 80.828V80.848V80.968L68.9362 85.048C69.2462 85.1708 69.5643 85.2724 69.8882 85.352C72.4197 85.9888 75.0145 86.3403 77.6242 86.4C79.2242 86.4 83.8242 85.924 83.9202 84.696C84.0162 83.468 82.6602 83.496 82.6602 83.496C82.6602 83.496 84.5722 83.004 84.5562 81.76C84.5562 80.74 83.1282 80.624 82.6162 80.612H82.4322C82.4322 80.612 84.3602 79.964 84.2562 78.724C84.1642 77.616 82.4722 77.864 82.1162 77.924H82.0682H82.1042C82.4002 77.832 83.7802 77.328 83.3042 76.444C82.6842 75.244 79.4922 76.576 77.7042 76.48C77.6202 76.48 77.1762 76.424 76.5402 76.348L73.8322 76.016L69.6002 75.448Z" fill="#AD6359"/>
<path d="M76.0002 78.516C76.7366 78.7339 77.4899 78.8905 78.2522 78.984C79.6035 79.1222 80.96 78.7764 82.0801 78.008C82.1441 77.972 82.1522 77.928 82.1322 77.904C82.1178 77.8972 82.1021 77.8937 82.0861 77.8937C82.0702 77.8937 82.0545 77.8972 82.0402 77.904C80.9195 78.4203 79.702 78.693 78.4681 78.704C77.65 78.6819 76.8351 78.5909 76.0322 78.432C75.9562 78.432 75.9322 78.504 76.0002 78.516Z" fill="#263238"/>
<path d="M76.0881 81.2C78.6321 81.676 80.1361 81.84 82.5561 80.72C82.6321 80.688 82.6521 80.62 82.6161 80.592C82.6045 80.5857 82.5914 80.5824 82.5781 80.5824C82.5649 80.5824 82.5518 80.5857 82.5401 80.592C80.0201 81.372 78.7241 81.392 76.1161 81.136C76.0641 81.128 76.0521 81.2 76.0881 81.2Z" fill="#263238"/>
<path d="M82.4481 83.528C79.9441 84.112 78.5241 84.204 76.0201 83.62C76.0086 83.6187 75.997 83.6215 75.9875 83.628C75.9779 83.6346 75.971 83.6444 75.9681 83.6556C75.9652 83.6668 75.9664 83.6786 75.9716 83.689C75.9767 83.6994 75.9854 83.7076 75.9961 83.712C78.4881 84.556 80.2641 84.456 82.4561 83.608C82.6081 83.548 82.6041 83.492 82.4481 83.528Z" fill="#263238"/>
<path d="M70.2881 80.744C70.4233 80.7293 70.557 80.7039 70.6881 80.668L70.7961 80.636C72.8521 79.972 73.5961 76.904 73.5961 76.904C74.2909 77.0692 74.9991 77.1723 75.7121 77.212C76.7401 77.268 77.7841 77.184 78.3961 76.78C78.5594 76.6805 78.6966 76.5433 78.7961 76.38C78.8487 76.2916 78.8878 76.1959 78.9121 76.096C78.9121 76.096 78.9121 76.096 78.9121 76.068C79.0081 75.5 77.8401 74.832 76.4401 74.296C74.9001 73.708 73.0761 73.28 72.3321 73.32C71.0983 73.4654 69.8775 73.7047 68.6801 74.036C68.1721 74.168 67.8361 74.264 67.8361 74.264C67.8361 74.264 67.8521 81.02 70.2881 80.744Z" fill="#AD6359"/>
<path d="M78.6721 76.468C77.3121 77.628 75.2322 76.992 73.6442 76.744C73.5242 76.724 73.4681 76.812 73.4721 76.908C73.0081 78.38 71.9242 80.324 70.3682 80.808C70.3586 80.808 70.3494 80.8118 70.3427 80.8186C70.3359 80.8253 70.3322 80.8345 70.3322 80.844C70.3322 80.8536 70.3359 80.8627 70.3427 80.8695C70.3494 80.8762 70.3586 80.88 70.3682 80.88C72.1082 80.588 73.3282 78.764 73.7322 77.12C75.3562 77.404 77.4682 77.948 78.6682 76.48L78.6721 76.468Z" fill="#263238"/>
<path d="M46.2561 67.884L56.1921 66.768C56.1921 66.768 50.0361 57.656 47.4721 55.488C44.5841 53.048 43.9681 55.056 44.2361 58.644C44.5041 62.232 46.2561 67.884 46.2561 67.884Z" fill="#9F9070"/>
<path opacity="0.1" d="M46.2561 67.884L56.1921 66.768C56.1921 66.768 50.0361 57.656 47.4721 55.488C44.5841 53.048 43.9681 55.056 44.2361 58.644C44.5041 62.232 46.2561 67.884 46.2561 67.884Z" fill="black"/>
<path d="M54.2842 64.996C53.0002 64.996 49.1442 65.5 48.5042 65.58C48.1682 65.62 46.8322 65.844 46.5042 65.884C46.4642 65.884 46.4762 65.952 46.5042 65.948C47.1442 65.876 47.7962 65.868 48.4402 65.8C49.0842 65.732 53.0242 65.348 54.2842 65.048C54.2894 65.046 54.2938 65.0424 54.2969 65.0377C54.3001 65.0331 54.3018 65.0276 54.3018 65.022C54.3018 65.0164 54.3001 65.011 54.2969 65.0063C54.2938 65.0017 54.2894 64.9981 54.2842 64.996Z" fill="#263238"/>
<path d="M51.6001 67.284L46.2761 67.88C46.2761 67.88 44.5281 62.228 44.2761 58.64C44.0801 56.036 44.3521 54.26 45.6281 54.428L51.6001 67.284Z" fill="#263238"/>
<path d="M25.4601 87.276C25.5161 87.352 51.2401 89.984 51.5161 89.728C51.9161 89.368 49.4521 59.248 47.0121 55.328C46.4921 54.488 42.3201 53.328 40.4681 54.632C34.5201 58.8 25.2601 86.996 25.4601 87.276Z" fill="#9F9070"/>
<path opacity="0.1" d="M44.791 64.517L39.9068 64.0338L39.8284 64.8259L44.7126 65.3091L44.791 64.517Z" fill="black"/>
<path d="M62.0361 69.236C61.9041 69.42 58.8361 75.14 58.7081 75.788C58.5801 76.436 54.3081 92.152 54.5521 92.62C54.7961 93.088 61.5001 95.732 61.7961 95.732C62.0921 95.732 75.3961 92.768 76.1121 92.268C76.8281 91.768 77.0881 79.512 76.8201 78.268C76.5521 77.024 75.7481 74.744 75.7481 74.744L76.2441 74.056C76.2441 74.056 74.8761 68.28 74.6161 68.48C74.3561 68.68 62.3241 68.832 62.0361 69.236Z" fill="#9F9070"/>
<path opacity="0.1" d="M61.7922 95.736C61.5002 95.736 54.8042 93.088 54.5522 92.62C54.3002 92.152 58.6002 76.44 58.7082 75.792C58.8162 75.144 61.9082 69.424 62.0362 69.236C62.6082 70.436 63.0762 75.716 63.1482 76.4C63.2202 77.084 61.9242 94.324 61.7922 95.736Z" fill="black"/>
<path opacity="0.1" d="M75.7482 74.732C74.7322 74.892 73.7082 74.988 72.6842 75.088C71.6602 75.188 70.6322 75.272 69.6082 75.34C68.5842 75.408 67.5562 75.472 66.5282 75.524C65.5002 75.576 64.4722 75.604 63.4442 75.64C63.3906 75.63 63.3401 75.6073 63.297 75.5739C63.2539 75.5405 63.2193 75.4974 63.1962 75.448C63.155 75.3748 63.1228 75.2969 63.1002 75.216C63.0511 75.0644 63.0136 74.9093 62.9882 74.752C62.9316 74.4442 62.8968 74.1327 62.8842 73.82C62.9442 74.128 63.0082 74.432 63.0922 74.728C63.1306 74.8768 63.1801 75.0225 63.2402 75.164C63.2922 75.292 63.4002 75.444 63.4482 75.44C64.4722 75.352 65.4962 75.244 66.5202 75.168C67.5442 75.092 68.5722 75.02 69.6002 74.964C70.6282 74.908 71.6522 74.852 72.6802 74.82C73.7082 74.788 74.7202 74.756 75.7482 74.732Z" fill="black"/>
<path d="M72.4481 77.044L70.5401 77.064L69.3041 73.288L71.2121 73.272L72.4481 77.044Z" fill="white"/>
<g opacity="0.1">
<path d="M61.8481 70.572C61.6121 72.3 61.3361 74.02 61.0481 75.736C60.7601 77.452 60.4521 79.168 60.1521 80.884C59.8521 82.6 59.5121 84.304 59.1681 86.012L58.6481 88.572C58.4561 89.424 58.2841 90.276 58.0841 91.124C58.1961 90.26 58.3361 89.4 58.4601 88.54L58.8601 85.96C59.1441 84.24 59.4601 82.528 59.7561 80.812C60.0521 79.096 60.3961 77.392 60.7401 75.684C61.0841 73.976 61.4561 72.268 61.8481 70.572Z" fill="black"/>
<path d="M55.1121 92.356C56.0561 91.836 57.0321 91.38 58.0161 90.952L58.1361 90.9L58.2281 91.004C58.7641 91.612 59.2921 92.228 59.8041 92.864C60.3161 93.5 60.8041 94.148 61.2641 94.82C60.6641 94.264 60.0961 93.68 59.5481 93.084C59.0001 92.488 58.4681 91.884 57.9481 91.244L58.1601 91.296C57.1601 91.692 56.1481 92.056 55.1121 92.356Z" fill="black"/>
</g>
<path d="M38.0241 57.712C35.6241 64.188 31.1241 80.384 34.4241 82.452C39.8801 85.848 50.9841 86.88 54.3401 86.852C55.7881 86.852 57.4961 75.724 56.0001 75.32C54.2041 74.836 42.6761 74.48 42.4481 73.56C42.3201 73.036 42.7041 67.76 42.0481 61.936C41.2961 55.172 38.8441 55.496 38.0241 57.712Z" fill="#AD6359"/>
<path d="M51.0721 76.148C51.0721 76.148 54.7401 73.708 57.2161 72.224C58.5961 71.396 61.0881 70.188 62.3801 70.044C64.3121 69.832 72.5321 70.164 72.4921 72.16C72.4601 73.964 65.4321 72.78 65.4321 72.78C65.4321 72.78 72.6321 73.348 72.1881 75.516C71.7441 77.684 63.9841 75.288 63.9841 75.288C63.9841 75.288 71.3641 76.036 70.5561 78.2C69.9441 79.832 62.7961 78.064 62.7961 78.064C62.7961 78.064 69.1321 78.752 68.5761 80.464C67.9641 82.352 61.2601 81.132 61.2601 81.132C59.1161 85.232 56.5161 86.552 54.4081 86.848C53.9081 86.908 51.0721 76.148 51.0721 76.148Z" fill="#AD6359"/>
<path d="M62.9561 72.424C63.8041 72.46 64.6641 72.492 65.5041 72.604C66.3441 72.716 67.1841 72.856 68.0121 73.044C69.0984 73.2686 70.1549 73.6189 71.1601 74.088C69.3121 73.388 66.3081 72.944 65.4681 72.832C64.6281 72.72 63.7921 72.568 62.9521 72.456C62.9321 72.456 62.9361 72.424 62.9561 72.424Z" fill="#263238"/>
<path d="M62.5001 75.456C63.5801 75.548 64.6561 75.6 65.7321 75.744C66.8081 75.888 67.8081 76.108 68.8681 76.324C68.9481 76.324 68.9121 76.376 68.8321 76.364C67.7641 76.192 66.7641 76.116 65.6961 75.964C64.6281 75.812 63.5641 75.604 62.4961 75.484C62.4801 75.48 62.4841 75.456 62.5001 75.456Z" fill="#263238"/>
<path d="M61.6401 78C63.2994 78.096 64.9442 78.3641 66.5481 78.8C66.6281 78.82 66.5801 78.864 66.4961 78.848C64.8681 78.544 63.5961 78.296 61.6401 78.048C61.6001 78.04 61.6001 78 61.6401 78Z" fill="#263238"/>
<path d="M60.6081 70.484C59.0081 70.852 53.4841 74.316 52.8761 74.856C52.4361 74.808 50.5401 74.696 50.3281 74.728C50.3201 74.7307 50.3131 74.7358 50.3082 74.7426C50.3033 74.7494 50.3006 74.7576 50.3006 74.766C50.3006 74.7745 50.3033 74.7827 50.3082 74.7895C50.3131 74.7963 50.3201 74.8014 50.3281 74.804C50.5281 74.88 52.4121 75.152 52.8561 75.204C52.9321 75.204 59.3241 71.204 60.7081 70.544C60.7561 70.508 60.6641 70.472 60.6081 70.484Z" fill="#263238"/>
<path d="M43.1482 68.676L33.4202 70.984C33.4202 70.984 36.1362 60.328 37.8202 57.42C39.7162 54.148 40.9762 55.82 41.9322 59.296C42.8882 62.772 43.1482 68.676 43.1482 68.676Z" fill="#9F9070"/>
<path opacity="0.1" d="M43.1482 68.676L33.4202 70.984C33.4202 70.984 36.1362 60.328 37.8202 57.42C39.7162 54.148 40.9762 55.82 41.9322 59.296C42.8882 62.772 43.1482 68.676 43.1482 68.676Z" fill="black"/>
<path d="M42.4002 66.996C41.1242 67.124 37.3402 68.044 36.7162 68.196C36.3842 68.272 35.0802 68.636 34.7522 68.712C34.7082 68.712 34.7522 68.784 34.7722 68.776C35.4042 68.632 36.0482 68.556 36.6802 68.42C37.3122 68.284 41.2002 67.48 42.4002 67.048C42.4054 67.046 42.4098 67.0424 42.413 67.0377C42.4161 67.0331 42.4178 67.0276 42.4178 67.022C42.4178 67.0164 42.4161 67.011 42.413 67.0063C42.4098 67.0017 42.4054 66.9981 42.4002 66.996Z" fill="#263238"/>
<path d="M36.2001 61.532C36.2001 61.488 36.1441 61.476 36.1321 61.532C35.8001 62.404 35.4881 63.288 35.1921 64.176C35.2366 63.6877 35.325 63.2045 35.4561 62.732C35.4561 62.732 35.4321 62.704 35.4241 62.732C35.2526 63.2729 35.1504 63.8334 35.1201 64.4C34.9161 65.016 34.7201 65.64 34.5281 66.26C34.0401 67.86 33.5321 69.428 33.1361 71.04C33.1319 71.0595 33.1329 71.0797 33.1388 71.0987C33.1447 71.1176 33.1554 71.1348 33.1699 71.1484C33.1844 71.1621 33.2021 71.1718 33.2214 71.1766C33.2407 71.1815 33.2609 71.1813 33.2801 71.176C33.6161 71.084 33.9441 70.984 34.2761 70.868C34.3081 70.868 34.3041 70.8 34.2761 70.804C33.9881 70.836 33.7081 70.88 33.4241 70.928C33.9361 69.412 34.3681 67.868 34.8361 66.336C35.3041 64.804 35.7801 63.136 36.2001 61.532Z" fill="#263238"/>
<path d="M42.9681 64.4C42.9681 63.872 42.9881 63.344 42.9681 62.8C42.9681 62.8 42.9681 62.8 42.9481 62.8C42.9294 63.1867 42.9134 63.5747 42.9001 63.964C42.8001 63.196 42.6881 62.428 42.5401 61.672C42.5921 62.844 42.7121 64.012 42.7961 65.18C42.8801 66.348 42.9761 67.472 43.0801 68.62C42.8641 68.708 42.6521 68.788 42.4321 68.868C42.4236 68.8707 42.4165 68.8766 42.4124 68.8844C42.4083 68.8923 42.4074 68.9015 42.4101 68.91C42.4127 68.9185 42.4187 68.9256 42.4265 68.9297C42.4344 68.9338 42.4436 68.9347 42.4521 68.932C42.7001 68.888 42.9481 68.84 43.2001 68.804C43.2288 68.802 43.2557 68.7895 43.2757 68.7688C43.2956 68.7481 43.3072 68.7207 43.3081 68.692C43.2481 67.264 43.1401 65.82 42.9681 64.4Z" fill="#263238"/>
<path d="M45.0601 58.8C44.1481 58.848 41.6681 56.94 40.8441 55.064C40.7881 54.932 41.7281 50.064 41.8121 49.064C41.8121 48.864 47.8521 51.104 47.8521 51.104C47.394 52.3032 47.0838 53.5538 46.9281 54.828C46.9145 54.961 46.9145 55.095 46.9281 55.228C46.9301 55.2507 46.9301 55.2734 46.9281 55.296C46.9961 56.08 46.4001 58.716 45.0601 58.8Z" fill="#AD6359"/>
<path d="M42.2081 49.128C42.3081 50.64 42.8961 54.904 46.3001 55.28C46.5112 55.3041 46.7239 55.3108 46.9361 55.3C46.9382 55.2774 46.9382 55.2546 46.9361 55.232C46.9264 55.0988 46.9264 54.9651 46.9361 54.832C47.092 53.5565 47.4023 52.3047 47.8601 51.104C47.8601 51.104 43.5521 49.5 42.2081 49.128Z" fill="#263238"/>
<path d="M42.4681 40.748C41.3441 42.748 41.1281 49.2 42.3561 50.916C44.1321 53.4 47.7121 54.38 49.9961 52.092C52.2081 49.872 52.3401 41.464 50.9081 39.836C48.8001 37.44 44.1241 37.788 42.4681 40.748Z" fill="#AD6359"/>
<path d="M47.6001 45.8C47.6001 45.8 47.5681 45.8 47.5681 45.84C47.5681 46.272 47.4881 46.772 47.0881 46.9V46.924C47.5601 46.876 47.6561 46.212 47.6001 45.8Z" fill="#263238"/>
<path d="M47.2202 45.332C46.5242 45.252 46.4201 46.652 47.0601 46.724C47.7001 46.796 47.8042 45.4 47.2202 45.332Z" fill="#263238"/>
<path d="M50.0922 46.068C50.0922 46.068 50.1242 46.068 50.1202 46.108C50.0762 46.54 50.0922 47.044 50.4722 47.216C50.4722 47.216 50.4722 47.244 50.4722 47.24C50.0002 47.136 49.9762 46.468 50.0922 46.068Z" fill="#263238"/>
<path d="M50.5121 45.644C51.2121 45.644 51.1601 47.048 50.5121 47.044C49.8641 47.04 49.9241 45.644 50.5121 45.644Z" fill="#263238"/>
<path d="M46.7161 44.652C46.9041 44.6117 47.0898 44.5609 47.2721 44.5C47.4762 44.4763 47.6664 44.3848 47.8121 44.24C47.8489 44.1862 47.8669 44.1217 47.8633 44.0566C47.8597 43.9915 47.8346 43.9294 47.7921 43.88C47.6926 43.7954 47.5725 43.7385 47.4439 43.7154C47.3154 43.6922 47.1829 43.7034 47.0601 43.748C46.7981 43.7948 46.5628 43.9374 46.4001 44.148C46.3622 44.1997 46.3407 44.2616 46.3383 44.3256C46.336 44.3897 46.353 44.453 46.387 44.5073C46.4211 44.5616 46.4707 44.6044 46.5293 44.6302C46.588 44.656 46.6531 44.6636 46.7161 44.652Z" fill="#263238"/>
<path d="M51.1082 44.98C50.9235 44.9289 50.7419 44.8675 50.5641 44.796C50.3627 44.7555 50.18 44.6502 50.0441 44.496C50.0115 44.44 49.9981 44.3749 50.0061 44.3106C50.014 44.2463 50.0429 44.1864 50.0881 44.14C50.1935 44.0611 50.318 44.0117 50.4487 43.997C50.5795 43.9822 50.7119 44.0026 50.8321 44.056C51.09 44.1289 51.3121 44.294 51.4561 44.52C51.4855 44.5735 51.4987 44.6343 51.4943 44.6951C51.4899 44.7559 51.4679 44.8141 51.4312 44.8628C51.3944 44.9114 51.3443 44.9483 51.287 44.9691C51.2297 44.9899 51.1676 44.9937 51.1082 44.98Z" fill="#263238"/>
<path d="M46.8761 49.792C46.9721 49.9 47.0641 50.048 47.2201 50.072C47.3821 50.0822 47.5444 50.0576 47.6961 50C47.6961 50 47.7241 50 47.6961 50.024C47.6276 50.1044 47.5386 50.1647 47.4386 50.1985C47.3386 50.2323 47.2313 50.2384 47.1281 50.216C47.0432 50.1864 46.9685 50.1329 46.9132 50.062C46.8579 49.991 46.8242 49.9056 46.8161 49.816C46.8281 49.78 46.8641 49.776 46.8761 49.792Z" fill="#263238"/>
<path d="M47.4321 48.528C47.5285 48.7078 47.661 48.8657 47.8215 48.9917C47.9819 49.1176 48.1667 49.209 48.3641 49.26C48.5376 49.3065 48.7166 49.3293 48.8962 49.328H48.9962H49.0921C49.1159 49.3249 49.138 49.3143 49.1553 49.2978C49.1726 49.2812 49.1841 49.2596 49.1881 49.236V49.188V49.148C49.2241 48.816 49.2321 48.308 49.2321 48.308C49.3481 48.376 49.9481 48.708 49.9522 48.528C50.03 47.0215 49.9536 45.511 49.7241 44.02C49.7241 43.972 49.6441 43.98 49.6441 44.02C49.5641 45.412 49.7321 46.82 49.6721 48.208C49.4583 48.09 49.2296 48.0012 48.9921 47.944C48.9441 47.944 48.9921 48.928 48.9681 49.076C48.693 49.0826 48.4194 49.0335 48.1638 48.9318C47.9081 48.8301 47.6756 48.6778 47.4801 48.484C47.4441 48.464 47.4081 48.492 47.4321 48.528Z" fill="#263238"/>
<path d="M48.7121 49.144C48.51 49.3677 48.2538 49.5358 47.9681 49.632C47.8119 49.6811 47.6444 49.6811 47.4881 49.632C47.1481 49.516 47.1641 49.196 47.2481 48.928C47.2962 48.7883 47.3592 48.6542 47.4361 48.528C47.7856 48.8632 48.2323 49.0789 48.7121 49.144Z" fill="#263238"/>
<path d="M47.9681 49.632C47.8119 49.6812 47.6444 49.6812 47.4881 49.632C47.1481 49.516 47.1641 49.196 47.2481 48.928C47.4306 48.9451 47.6017 49.0244 47.7328 49.1525C47.8639 49.2807 47.9469 49.45 47.9681 49.632Z" fill="#FF9ABB"/>
<path d="M41.6761 46.628C42.8761 46.48 44.0281 42.764 44.0281 42.764C44.0281 42.764 43.7681 44.364 44.0761 44.364C44.3841 44.364 45.9641 42.364 46.3521 40.82C47.1529 41.5494 48.0459 42.1706 49.0081 42.668C50.3801 43.324 51.8321 43.432 51.8081 43.184C51.8081 42.42 51.6721 40.52 51.1881 39.94C50.5318 39.2048 49.6896 38.6597 48.7501 38.362C47.8105 38.0643 46.8081 38.0249 45.8481 38.248C43.3601 38.784 42.5121 40.196 41.9801 41.312C41.4481 42.428 41.2401 46.68 41.6761 46.628Z" fill="#263238"/>
<path d="M51.8441 41.508C51.2601 41.272 47.8681 40.868 46.2441 41.296C44.6201 41.724 41.6081 43.504 41.4441 43.596C41.2801 43.688 41.4441 38.02 46.0921 37.676C51.2001 37.304 51.8441 41.508 51.8441 41.508Z" fill="#9F9070"/>
<path d="M41.7561 43.408C41.7561 43.408 45.3281 39.916 47.1201 39.264C48.9121 38.612 52.7201 38.656 54.8481 40.012C56.5241 41.068 51.8081 42.72 51.8081 42.72C51.7947 42.5252 51.7364 42.3361 51.6379 42.1675C51.5394 41.9989 51.4032 41.8553 51.2401 41.748C50.1841 41.14 48.0121 41.164 46.7401 41.392C45.1401 41.676 41.7561 43.408 41.7561 43.408Z" fill="#9F9070"/>
<path opacity="0.2" d="M41.7561 43.408C41.7561 43.408 45.3281 39.916 47.1201 39.264C48.9121 38.612 52.7201 38.656 54.8481 40.012C56.5241 41.068 51.8081 42.72 51.8081 42.72C51.7947 42.5252 51.7364 42.3361 51.6379 42.1675C51.5394 41.9989 51.4032 41.8553 51.2401 41.748C50.1841 41.14 48.0121 41.164 46.7401 41.392C45.1401 41.676 41.7561 43.408 41.7561 43.408Z" fill="black"/>
<path d="M46.4241 48.34C46.07 48.2555 45.7467 48.0734 45.4908 47.8143C45.2349 47.5553 45.0567 47.2298 44.9765 46.8746C44.8962 46.5195 44.9171 46.1489 45.0368 45.8051C45.1565 45.4612 45.3701 45.1577 45.6535 44.9291C45.9369 44.7005 46.2787 44.5559 46.6401 44.5117C47.0015 44.4675 47.3681 44.5255 47.6982 44.6791C48.0283 44.8326 48.3088 45.0757 48.5078 45.3806C48.7069 45.6855 48.8164 46.04 48.8241 46.404C48.8311 46.6612 48.787 46.9172 48.6944 47.1572C48.6019 47.3972 48.4627 47.6165 48.2849 47.8025C48.1072 47.9884 47.8943 48.1373 47.6587 48.2406C47.4231 48.3438 47.1694 48.3994 46.9121 48.404C46.7474 48.404 46.5834 48.3824 46.4241 48.34ZM47.2522 44.796C47.1212 44.7649 46.9868 44.7501 46.8522 44.752C46.4219 44.7563 46.0096 44.9247 45.6994 45.2228C45.3891 45.5209 45.2044 45.9262 45.183 46.3559C45.1616 46.7856 45.305 47.2073 45.5841 47.5348C45.8631 47.8622 46.2567 48.0708 46.6843 48.1178C47.112 48.1649 47.5415 48.0469 47.885 47.7879C48.2286 47.5289 48.4603 47.1485 48.5328 46.7244C48.6053 46.3003 48.5131 45.8645 48.2751 45.5061C48.037 45.1477 47.6712 44.8937 47.2522 44.796Z" fill="#9F9070"/>
<path d="M50.8721 48.82C50.1481 48.652 49.6721 47.752 49.7761 46.744C49.821 46.2581 50.0184 45.7989 50.3401 45.432C50.4653 45.262 50.6332 45.128 50.8267 45.0436C51.0203 44.9592 51.2327 44.9274 51.4425 44.9513C51.6522 44.9753 51.852 45.0542 52.0216 45.18C52.1911 45.3058 52.3245 45.4742 52.4081 45.668C52.6355 46.0972 52.7249 46.5861 52.6641 47.068C52.5401 48.136 51.7961 48.932 51.0001 48.844C50.9568 48.8399 50.914 48.8319 50.8721 48.82ZM51.5081 45.244C51.4749 45.2398 51.4413 45.2398 51.4081 45.244C51.2406 45.2345 51.0733 45.2659 50.9206 45.3356C50.768 45.4053 50.6346 45.5112 50.5321 45.644C50.2504 45.9714 50.0771 46.3781 50.0361 46.808C49.9321 47.732 50.3721 48.548 51.0281 48.62C51.6841 48.692 52.2961 48 52.4041 47.076C52.4614 46.6481 52.3831 46.2131 52.1801 45.832C52.1172 45.6913 52.0245 45.5659 51.9085 45.4644C51.7925 45.3629 51.6559 45.2877 51.5081 45.244Z" fill="#9F9070"/>
<path d="M48.728 46.62L48.584 46.404C48.904 46.188 49.624 45.936 50.036 46.496L49.828 46.652C49.456 46.148 48.756 46.6 48.728 46.62Z" fill="#9F9070"/>
<path d="M40.0321 46.14L39.8161 45.996C39.8841 45.896 40.4961 45.008 41.0841 44.98C41.6721 44.952 45.0841 45.672 45.2161 45.704L45.1641 45.96C44.1801 45.752 41.5241 45.22 41.0961 45.24C40.6681 45.26 40.1961 45.896 40.0321 46.14Z" fill="#9F9070"/>
<path d="M42.6921 46.092C42.6921 46.092 41.6801 43.8 40.6681 44.124C39.6561 44.448 40.1401 47.572 41.1361 48.184C41.2583 48.2708 41.3967 48.332 41.5431 48.3639C41.6895 48.3959 41.8409 48.3979 41.9881 48.3699C42.1353 48.3418 42.2753 48.2844 42.3997 48.2009C42.5241 48.1174 42.6304 48.0096 42.7121 47.884L42.6921 46.092Z" fill="#AD6359"/>
<path d="M40.8322 45.016V45.044C41.5242 45.496 41.7801 46.272 41.9161 47.044C41.8867 46.9606 41.8397 46.8845 41.7782 46.8209C41.7167 46.7573 41.6423 46.7077 41.5599 46.6754C41.4776 46.6432 41.3892 46.629 41.3009 46.6339C41.2126 46.6389 41.1264 46.6628 41.0482 46.704C41.0242 46.704 41.0482 46.748 41.0482 46.748C41.191 46.7331 41.3348 46.7637 41.4591 46.8356C41.5834 46.9074 41.6818 47.0168 41.7402 47.148C41.8424 47.3602 41.9216 47.5828 41.9762 47.812C42.0002 47.888 42.1281 47.876 42.1161 47.812C42.3241 46.8 41.8402 45.316 40.8322 45.016Z" fill="#263238"/>
<path d="M146.876 153.396C159.312 153.396 166.512 162.032 166.512 172.196C166.512 182.36 159.84 190.8 147.712 190.8C134.292 190.8 127.884 180.128 127.884 172.104C127.884 164.08 134.292 153.396 146.876 153.396Z" fill="#37474F"/>
<path d="M144.964 153.396C156.784 153.396 163.632 162.032 163.632 172.196C163.632 182.36 157.288 190.8 145.76 190.8C133.004 190.8 126.912 180.128 126.912 172.104C126.912 164.08 133.004 153.396 144.964 153.396Z" fill="#263238"/>
<path d="M145.084 160.696C152.284 160.696 156.46 165.96 156.46 172.152C156.46 178.344 152.596 183.484 145.568 183.484C137.796 183.484 134.084 176.98 134.084 172.088C134.084 167.196 137.796 160.696 145.084 160.696Z" fill="#C7C7C7"/>
<path d="M56.7721 184C72.1081 184 77.2161 175.94 77.2161 166.232C77.2161 156.524 70.0881 148.264 56.1601 148.264C65.2521 148.264 70.5161 156.516 70.5161 166.232C70.5161 175.948 65.6361 184 56.7721 184Z" fill="#37474F"/>
<path d="M56.1601 148.276C65.2521 148.276 70.5161 156.532 70.5161 166.24C70.5161 175.948 65.6401 184 56.7721 184C46.9601 184 42.2761 173.8 42.2761 166.132C42.2761 158.464 46.9601 148.276 56.1601 148.276Z" fill="#263238"/>
<path d="M48.9801 166.144C48.9801 173.556 47.0961 183.344 55.8321 183.98H56.1401H56.4001H56.7721C65.6361 183.98 70.5161 175.92 70.5161 166.212C70.5161 156.504 65.2521 148.244 56.1601 148.244H55.6721H55.4481C55.3081 148.244 55.1641 148.264 55.0241 148.276C47.1361 149.156 48.9801 158.8 48.9801 166.144Z" fill="#263238"/>
<path d="M55.5122 155.256C60.5642 155.256 63.4922 160.288 63.4922 166.204C63.4922 172.12 60.7802 177.032 55.8522 177.032C50.3962 177.032 47.7922 170.816 47.7922 166.144C47.7922 161.472 50.4002 155.256 55.5122 155.256Z" fill="#C7C7C7"/>
<path d="M126.76 110.936H121.868L118.516 106.016H124.248L126.76 110.936Z" fill="#9F9070"/>
<path d="M118.516 106.016L120.48 108.896L121.868 110.936H126.76L125.436 108.344L124.244 106.016H118.516Z" fill="#9F9070"/>
<path opacity="0.1" d="M118.516 106.016L120.48 108.896L125.436 108.344L124.244 106.016H118.516Z" fill="black"/>
<path d="M138.648 147.652L133.884 148.748L129.516 144.7L135.1 143.42L138.648 147.652Z" fill="#9F9070"/>
<path d="M129.516 144.7L132.072 147.068L133.88 148.748L138.652 147.652L136.78 145.424L135.1 143.42L129.516 144.7Z" fill="#9F9070"/>
<path opacity="0.1" d="M129.516 144.7L132.072 147.068L136.78 145.424L135.1 143.42L129.516 144.7Z" fill="black"/>
<path d="M68.144 162.176L69.512 165.204C69.512 165.204 106.5 168.032 110.012 167.508C112.95 164.048 115.426 160.219 117.376 156.12H100.644C98.153 156.147 95.6892 155.6 93.444 154.52L91.284 154.16L87.392 156.104L83.14 162.16L71.32 161.944L68.144 162.176Z" fill="#455A64"/>
<path d="M87.384 156.12C87.384 156.12 96.856 161.944 115.32 159.968C116.004 158.8 116.7 157.516 117.376 156.12H100.644C98.153 156.147 95.6892 155.6 93.444 154.52L91.284 154.16L87.384 156.12Z" fill="#37474F"/>
<path d="M165.432 155.796L160.8 158.228C160.8 158.228 147.396 155.796 138.8 157.636C130.204 159.476 127.884 164.068 127.884 164.068H123.544C123.544 164.068 127.272 150.824 133.6 146C139.928 141.176 150.088 142.272 155.708 145.3C161.328 148.328 165.432 155.796 165.432 155.796Z" fill="#9F9070"/>
<path opacity="0.1" d="M160.316 157.312C159.421 156.375 158.449 155.513 157.412 154.736C156.384 153.938 155.299 153.217 154.164 152.58C151.962 151.36 149.549 150.569 147.052 150.248C142.164 149.648 137.052 151.072 133.452 154.828C131.428 156.956 129.988 159.564 128.62 162.204C128.62 162.244 128.656 162.276 128.676 162.236C129.835 159.918 131.299 157.766 133.028 155.836C134.694 154.017 136.768 152.618 139.08 151.756C143.692 150.064 148.7 150.712 153.116 152.756C154.383 153.334 155.606 154.002 156.776 154.756C157.976 155.556 159.112 156.448 160.236 157.356C160.243 157.363 160.253 157.367 160.263 157.369C160.273 157.37 160.283 157.368 160.292 157.363C160.301 157.358 160.308 157.351 160.312 157.341C160.317 157.332 160.318 157.322 160.316 157.312Z" fill="black"/>
<path d="M96.3561 130.608V128.972L54.5201 130.32V134C54.5201 134 42.4001 147.38 41.2001 161.288L83.1521 162.176L87.4041 156.12L91.2961 154.176L93.4561 154.536V153.6L91.8001 151.652L91.7281 145.884C91.0965 145.002 90.6471 144.003 90.406 142.945C90.165 141.888 90.1371 140.793 90.3241 139.724C90.7721 136.644 96.3561 130.608 96.3561 130.608Z" fill="#9F9070"/>
<path d="M79.224 160.228C78.788 161.028 72.424 162.176 60.36 162.5C49.5 162.792 41.388 162.552 40.74 161.852C40.092 161.152 41.712 148.772 49.064 142.068C56.416 135.364 66.844 134.4 73.708 138.4C79.744 141.908 84.248 150.824 79.224 160.228Z" fill="#9F9070"/>
<path opacity="0.1" d="M81.2721 148.508C80.6271 145.576 79.1394 142.897 76.9921 140.8C74.8383 138.643 72.1488 137.098 69.2001 136.324C65.9125 135.503 62.4692 135.541 59.2001 136.432C57.564 136.861 55.9819 137.474 54.4841 138.26C52.9032 139.111 51.4129 140.12 50.0361 141.272C49.6681 141.576 49.2961 141.88 48.9321 142.192C48.9001 142.216 48.9321 142.26 48.9801 142.236C50.3647 141.018 51.8636 139.937 53.4561 139.008C54.9092 138.178 56.4508 137.514 58.0521 137.028C61.2267 136.035 64.5981 135.845 67.8641 136.476C70.8158 137.069 73.5515 138.452 75.7801 140.476C77.9274 142.409 79.5068 144.892 80.3481 147.656C81.3481 151.024 81.0201 154.732 80.0241 158.056C79.8921 158.504 79.7521 158.944 79.6001 159.384C79.6001 159.432 79.6561 159.448 79.6721 159.404C81.0201 155.952 82.0241 152.232 81.2721 148.508Z" fill="black"/>
<path opacity="0.1" d="M87.3841 156.12L91.2761 154.176L93.4361 154.536V153.6L91.7801 151.656L91.7081 145.892C91.0755 145.011 90.6255 144.012 90.3844 142.954C90.1433 141.896 90.116 140.801 90.3041 139.732C90.7721 136.648 96.3561 130.612 96.3561 130.612H94.7361C94.7361 130.612 85.9361 135.152 83.9361 138.9C81.9361 142.648 81.3321 151.436 87.3841 156.12Z" fill="black"/>
<path d="M52.1961 163.776C44.9081 163.776 41.0521 163.552 39.0961 162.776L40.0041 160.492C42.2921 161.4 49.4561 161.384 60.9841 161.252C69.5001 161.152 75.7841 160.348 79.7041 158.852L80.5801 161.148C76.3401 162.748 69.9401 163.596 61.0121 163.7C57.6241 163.748 54.7041 163.776 52.1961 163.776Z" fill="#DBDBDB"/>
<path d="M109.456 108.288C109.384 108.452 99.724 110.232 99.724 110.232C99.724 110.232 98.124 109.152 99.112 107.784L108.8 105.692C109.173 105.997 109.439 106.414 109.557 106.882C109.675 107.349 109.64 107.842 109.456 108.288Z" fill="#263238"/>
<path d="M129.732 95.8001V107.26C129.732 107.26 123.544 106.72 121.896 106.664C120.248 106.608 112.924 107.556 112.924 107.556L112.356 104.988C112.356 104.988 118 103.016 120.4 101.476C122.8 99.9361 125.564 96.9921 127.048 96.3401C127.889 95.9556 128.808 95.7708 129.732 95.8001Z" fill="#9F9070"/>
<path d="M112.948 104.664C113.316 105.042 113.593 105.499 113.76 106C113.926 106.501 113.977 107.033 113.908 107.556C113.908 107.556 109.296 108.4 109.24 108.4C109.277 107.855 109.142 107.312 108.855 106.848C108.569 106.383 108.144 106.019 107.64 105.808L112.948 104.664Z" fill="#DBDBDB"/>
<path d="M129.792 107.26C131.467 107.26 132.824 104.696 132.824 101.532C132.824 98.3685 131.467 95.804 129.792 95.804C128.118 95.804 126.76 98.3685 126.76 101.532C126.76 104.696 128.118 107.26 129.792 107.26Z" fill="#DBDBDB"/>
<path d="M127.384 101.532C127.384 104.332 128.548 106.64 129.98 106.64C131.412 106.64 132.576 104.352 132.576 101.532C132.576 98.712 131.412 96.42 129.98 96.42C128.548 96.42 127.384 98.708 127.384 101.532Z" fill="white"/>
<path d="M96.3562 128.972C96.3562 128.972 96.4322 121.984 96.1602 121.712C95.8882 121.44 54.2522 121.584 53.0082 121.712C51.7642 121.84 51.8722 129.98 51.9802 130.36C52.0882 130.74 95.2762 129.064 96.3562 128.972Z" fill="#37474F"/>
<path d="M100.052 121.784C99.9281 121.676 94.6481 121.652 94.3601 121.652C94.0721 121.652 94.1761 129.1 94.3601 129.088C94.5441 129.076 100.088 129.044 100.268 128.88C100.448 128.716 100.324 122.02 100.052 121.784Z" fill="#455A64"/>
<path d="M70.88 121.384C70.7404 121.497 70.6453 121.656 70.612 121.832C70.5704 122.006 70.541 122.182 70.524 122.36C70.48 122.716 70.468 123.076 70.452 123.436C70.452 124.156 70.452 124.88 70.452 125.604C70.452 126.328 70.452 127.052 70.496 127.772C70.509 128.128 70.5505 128.483 70.62 128.832C70.6505 129.005 70.7072 129.172 70.788 129.328C70.8254 129.407 70.8812 129.477 70.9508 129.53C71.0203 129.584 71.1017 129.62 71.188 129.636C71.0923 129.64 70.9973 129.619 70.9119 129.575C70.8266 129.532 70.7536 129.467 70.7 129.388C70.5852 129.236 70.4948 129.068 70.432 128.888C70.3109 128.536 70.2264 128.173 70.18 127.804C70.0883 127.074 70.0442 126.339 70.048 125.604C70.0402 124.872 70.0763 124.14 70.156 123.412C70.1941 123.044 70.2582 122.679 70.348 122.32C70.3956 122.14 70.4571 121.963 70.532 121.792C70.5904 121.616 70.7153 121.469 70.88 121.384Z" fill="#455A64"/>
<path d="M49.4481 121.64H89.4441V96.776H49.4481V121.64Z" fill="#37474F"/>
<path d="M49.4481 121.64H78.3441V96.776H49.4481V121.64Z" fill="#263238"/>
<path d="M99.196 77.712H86.74L76.988 96.776H89.444L99.196 77.712Z" fill="#37474F"/>
<path d="M88.088 77.712H86.74L76.988 96.776H78.336L88.088 77.712Z" fill="#263238"/>
<path d="M55.1441 96.772H52.6681V121.648H55.1441V96.772Z" fill="#9F9070"/>
<path d="M73.3401 96.772H70.8641V121.648H73.3401V96.772Z" fill="#9F9070"/>
<path d="M56.3121 104.856V102.028C56.3121 101.958 56.3399 101.891 56.3894 101.841C56.4389 101.792 56.5061 101.764 56.5761 101.764H58.1441C58.209 101.772 58.2688 101.803 58.3121 101.852C58.3555 101.901 58.3794 101.965 58.3794 102.03C58.3794 102.095 58.3555 102.159 58.3121 102.208C58.2688 102.257 58.209 102.288 58.1441 102.296H56.8441V103.172H57.9601C58.0295 103.174 58.0954 103.203 58.1445 103.252C58.1936 103.301 58.2221 103.367 58.2241 103.436C58.2246 103.471 58.2182 103.506 58.2052 103.539C58.1922 103.572 58.1729 103.601 58.1484 103.627C58.1239 103.652 58.0947 103.672 58.0623 103.686C58.03 103.7 57.9953 103.708 57.9601 103.708H56.8441V104.856C56.843 104.926 56.8143 104.994 56.7642 105.043C56.714 105.092 56.6465 105.12 56.5761 105.12C56.5414 105.12 56.5071 105.113 56.475 105.1C56.443 105.087 56.4139 105.067 56.3894 105.043C56.3649 105.018 56.3454 104.989 56.3322 104.957C56.3189 104.925 56.3121 104.891 56.3121 104.856Z" fill="white"/>
<path d="M61.7681 102.18C62.0789 102.508 62.2523 102.942 62.2523 103.394C62.2523 103.846 62.0789 104.28 61.7681 104.608C61.6224 104.768 61.4452 104.896 61.2476 104.984C61.05 105.072 60.8364 105.118 60.6201 105.12C60.3995 105.119 60.1816 105.073 59.9794 104.985C59.7772 104.897 59.595 104.769 59.4441 104.608C59.1402 104.277 58.9716 103.844 58.9716 103.394C58.9716 102.944 59.1402 102.511 59.4441 102.18C59.5942 102.018 59.7761 101.889 59.9785 101.801C60.1809 101.713 60.3993 101.668 60.6201 101.668C60.8365 101.669 61.0504 101.715 61.2481 101.803C61.4457 101.891 61.6228 102.02 61.7681 102.18ZM61.7041 103.38C61.7047 103.069 61.5891 102.77 61.3801 102.54C61.2829 102.433 61.1644 102.347 61.0321 102.288C60.8999 102.23 60.7568 102.199 60.6121 102.199C60.4673 102.199 60.3242 102.23 60.192 102.288C60.0597 102.347 59.9412 102.433 59.8441 102.54C59.6322 102.768 59.5149 103.069 59.5161 103.38C59.5141 103.689 59.6316 103.987 59.8441 104.212C59.9398 104.322 60.0579 104.409 60.1903 104.47C60.3228 104.53 60.4666 104.561 60.6121 104.561C60.7575 104.561 60.9013 104.53 61.0338 104.47C61.1663 104.409 61.2843 104.322 61.3801 104.212C61.5873 103.991 61.703 103.699 61.7041 103.396V103.38Z" fill="white"/>
<path d="M65.8001 102.18C66.111 102.508 66.2843 102.942 66.2843 103.394C66.2843 103.846 66.111 104.28 65.8001 104.608C65.6544 104.768 65.4772 104.896 65.2797 104.984C65.0821 105.072 64.8684 105.118 64.6521 105.12C64.4316 105.119 64.2136 105.073 64.0114 104.985C63.8092 104.897 63.6271 104.769 63.4761 104.608C63.1722 104.277 63.0037 103.844 63.0037 103.394C63.0037 102.944 63.1722 102.511 63.4761 102.18C63.6262 102.018 63.8082 101.889 64.0105 101.801C64.2129 101.713 64.4314 101.668 64.6521 101.668C64.8685 101.669 65.0824 101.715 65.2801 101.803C65.4778 101.891 65.6549 102.02 65.8001 102.18ZM65.7361 103.38C65.7368 103.069 65.6212 102.77 65.4121 102.54C65.315 102.433 65.1965 102.347 65.0642 102.288C64.9319 102.23 64.7888 102.199 64.6441 102.199C64.4994 102.199 64.3563 102.23 64.224 102.288C64.0917 102.347 63.9732 102.433 63.8761 102.54C63.6642 102.768 63.5469 103.069 63.5481 103.38C63.5461 103.689 63.6636 103.987 63.8761 104.212C63.9718 104.322 64.0899 104.409 64.2224 104.47C64.3548 104.53 64.4986 104.561 64.6441 104.561C64.7896 104.561 64.9334 104.53 65.0658 104.47C65.1983 104.409 65.3164 104.322 65.4121 104.212C65.6193 103.991 65.735 103.699 65.7361 103.396V103.38Z" fill="white"/>
<path d="M67.088 104.856V102.028C67.0875 101.993 67.094 101.959 67.107 101.926C67.1201 101.894 67.1395 101.865 67.1642 101.84C67.1888 101.816 67.2181 101.796 67.2504 101.783C67.2827 101.77 67.3172 101.763 67.352 101.764H67.916C68.3469 101.785 68.7532 101.971 69.0507 102.283C69.3482 102.596 69.5141 103.011 69.5141 103.442C69.5141 103.873 69.3482 104.288 69.0507 104.601C68.7532 104.913 68.3469 105.099 67.916 105.12H67.352C67.282 105.12 67.2149 105.092 67.1654 105.043C67.1159 104.993 67.088 104.926 67.088 104.856ZM67.62 104.588H67.916C68.2083 104.571 68.4829 104.442 68.6837 104.229C68.8845 104.016 68.9963 103.735 68.9963 103.442C68.9963 103.149 68.8845 102.868 68.6837 102.655C68.4829 102.442 68.2083 102.313 67.916 102.296H67.62V104.588Z" fill="white"/>
<path d="M62.2561 107.236H61.7201V109.036C61.724 109.063 61.7221 109.09 61.7146 109.116C61.707 109.142 61.694 109.166 61.6763 109.186C61.6587 109.207 61.6368 109.223 61.6123 109.234C61.5877 109.246 61.5611 109.251 61.5341 109.251C61.5071 109.251 61.4804 109.246 61.4558 109.234C61.4313 109.223 61.4094 109.207 61.3918 109.186C61.3741 109.166 61.3611 109.142 61.3536 109.116C61.346 109.09 61.3441 109.063 61.3481 109.036V107.236H60.8001C60.7505 107.235 60.7033 107.215 60.6683 107.18C60.6332 107.145 60.6131 107.098 60.6121 107.048C60.6121 106.998 60.6319 106.95 60.6671 106.915C60.7024 106.88 60.7502 106.86 60.8001 106.86H62.2401C62.2892 106.861 62.336 106.881 62.3704 106.917C62.4048 106.952 62.4241 106.999 62.4241 107.048C62.4243 107.095 62.4073 107.14 62.3762 107.174C62.3452 107.209 62.3024 107.231 62.2561 107.236Z" fill="white"/>
<path d="M64.6721 107.156C64.8919 107.385 65.0139 107.691 65.0121 108.008C65.0161 108.326 64.8938 108.632 64.6721 108.86C64.5709 108.972 64.4477 109.063 64.31 109.125C64.1724 109.188 64.0233 109.222 63.8721 109.224C63.7166 109.223 63.5629 109.19 63.4206 109.127C63.2782 109.065 63.1501 108.974 63.0441 108.86C62.8253 108.631 62.706 108.325 62.7121 108.008C62.7094 107.692 62.8282 107.387 63.0441 107.156C63.1499 107.042 63.278 106.952 63.4205 106.89C63.563 106.828 63.7167 106.796 63.8721 106.796C64.0232 106.797 64.1725 106.829 64.3103 106.891C64.4481 106.953 64.5713 107.043 64.6721 107.156ZM64.6281 108.008C64.6293 107.79 64.5478 107.58 64.4001 107.42C64.3328 107.345 64.2507 107.286 64.1592 107.244C64.0676 107.203 63.9685 107.181 63.8681 107.18C63.7651 107.18 63.6631 107.201 63.5687 107.242C63.4744 107.284 63.3897 107.344 63.3201 107.42C63.1734 107.581 63.092 107.79 63.092 108.008C63.092 108.226 63.1734 108.435 63.3201 108.596C63.3897 108.672 63.4744 108.733 63.5687 108.774C63.6631 108.815 63.7651 108.836 63.8681 108.836C63.9685 108.835 64.0676 108.813 64.1592 108.772C64.2507 108.73 64.3328 108.671 64.4001 108.596C64.5504 108.434 64.6322 108.221 64.6281 108V108.008Z" fill="white"/>
<path d="M56.3201 113.508C56.5112 112.618 56.9963 111.819 57.6972 111.238C58.3982 110.658 59.2742 110.33 60.1841 110.308C60.8894 110.291 61.5751 110.541 62.1041 111.008C62.1499 111.056 62.1854 111.113 62.2085 111.175C62.2316 111.237 62.2418 111.304 62.2384 111.37C62.2351 111.436 62.2182 111.501 62.1889 111.56C62.1596 111.62 62.1185 111.673 62.0681 111.716C61.9824 111.822 61.8594 111.89 61.7245 111.907C61.5897 111.924 61.4534 111.889 61.3441 111.808C60.9715 111.485 60.4929 111.312 60.0001 111.32C59.3656 111.329 58.7542 111.56 58.2721 111.972C57.7884 112.365 57.4585 112.916 57.3401 113.528C57.2863 113.799 57.2944 114.078 57.3636 114.346C57.4329 114.613 57.5616 114.861 57.7401 115.072C57.9261 115.285 58.1571 115.455 58.4165 115.568C58.6758 115.682 58.9571 115.736 59.2401 115.728C59.6923 115.722 60.1354 115.601 60.5281 115.376L60.7481 114.152H59.4681C59.4055 114.154 59.3433 114.142 59.2865 114.115C59.2297 114.089 59.1798 114.05 59.1409 114.001C59.102 113.952 59.0752 113.894 59.0625 113.833C59.0498 113.772 59.0517 113.708 59.0681 113.648C59.0938 113.508 59.1671 113.381 59.2757 113.288C59.3843 113.196 59.5214 113.143 59.6641 113.14H61.4401C61.505 113.134 61.5705 113.143 61.6309 113.168C61.6913 113.193 61.7447 113.232 61.7866 113.282C61.8284 113.332 61.8573 113.391 61.8708 113.455C61.8843 113.519 61.882 113.585 61.8641 113.648L61.5121 115.648C61.501 115.694 61.4863 115.74 61.4681 115.784L61.4401 115.84C61.3923 115.925 61.3252 115.998 61.2441 116.052C60.6097 116.495 59.8577 116.739 59.0841 116.752C58.6714 116.778 58.2584 116.707 57.8778 116.545C57.4972 116.384 57.1594 116.136 56.8912 115.821C56.6231 115.506 56.4318 115.133 56.3327 114.732C56.2336 114.33 56.2292 113.911 56.3201 113.508Z" fill="white"/>
<path d="M64.0001 115.788C63.7639 115.467 63.5983 115.1 63.5142 114.71C63.4301 114.321 63.4294 113.918 63.5121 113.528C63.6785 112.651 64.1316 111.855 64.8001 111.264C65.4375 110.668 66.2718 110.328 67.1441 110.308C67.5287 110.301 67.9097 110.384 68.2568 110.55C68.6039 110.716 68.9077 110.96 69.1441 111.264C69.3754 111.588 69.5371 111.957 69.619 112.346C69.701 112.736 69.7013 113.138 69.6201 113.528C69.4623 114.405 69.0109 115.202 68.3401 115.788C67.7027 116.384 66.8683 116.724 65.9961 116.744C65.6116 116.753 65.2305 116.671 64.8837 116.505C64.5368 116.339 64.2341 116.093 64.0001 115.788ZM64.5321 113.528C64.4757 113.799 64.4761 114.078 64.5333 114.349C64.5904 114.619 64.7031 114.875 64.8641 115.1C65.0208 115.301 65.2219 115.462 65.4517 115.572C65.6814 115.682 65.9335 115.736 66.1881 115.732C66.7618 115.713 67.3095 115.489 67.7321 115.1C68.192 114.688 68.5028 114.135 68.6161 113.528C68.6738 113.259 68.674 112.98 68.6168 112.711C68.5596 112.441 68.4462 112.187 68.2841 111.964C68.1282 111.762 67.9273 111.6 67.6975 111.489C67.4676 111.379 67.2151 111.324 66.9601 111.328C66.3849 111.344 65.8354 111.57 65.4161 111.964C64.962 112.376 64.6557 112.925 64.5441 113.528H64.5321Z" fill="white"/>
<path d="M59.1481 107.928H56.3121V108.308H59.1481V107.928Z" fill="white"/>
<path d="M69.592 107.928H66.756V108.308H69.592V107.928Z" fill="white"/>
<path d="M130.768 110.936C131.776 112.412 135.812 132.484 136.604 133.492C137.396 134.5 138.912 134.572 138.912 134.572L141.6 141.2C141.6 141.2 134.972 143.292 131.292 146.316C126.516 150.228 122.12 163.2 122.12 163.2C121.4 163.704 112.464 167.38 110.012 167.524C110.012 167.524 121.408 155.012 122.336 137.696C122.696 130.984 118.572 121.54 118.3 116.86C118.012 111.852 119.524 110.952 122.192 110.952L130.768 110.936Z" fill="#9F9070"/>
<path d="M109.464 168.964L107.68 167.276C117.68 156.692 121.368 140.016 121.076 135.464C120.924 133.128 120.176 130.52 119.38 127.76C118.532 124.812 117.572 121.472 117.164 117.844C116.764 114.476 117.164 112.3 118.312 111C119.46 109.7 121.036 109.704 122.084 109.704H131.6V112.164H122.08C121.164 112.164 120.54 112.196 120.144 112.64C119.748 113.084 119.232 114.24 119.608 117.572C120.008 120.992 120.884 124.088 121.744 127.08C122.576 129.972 123.364 132.708 123.528 135.304C123.84 140.152 120 157.844 109.464 168.964Z" fill="#DBDBDB"/>
<path d="M136.652 138.984C137.212 141.044 138.976 142.36 140.596 141.92C142.216 141.48 143.068 139.452 142.504 137.392C141.94 135.332 140.18 134.012 138.56 134.452C136.94 134.892 136.088 136.92 136.652 138.984Z" fill="#DBDBDB"/>
<path d="M137.252 138.82C137.756 140.66 139.28 141.844 140.664 141.468C142.048 141.092 142.76 139.296 142.264 137.468C141.768 135.64 140.236 134.444 138.856 134.82C137.476 135.196 136.752 136.98 137.252 138.82Z" fill="white"/>
<path opacity="0.1" d="M129.576 138.648C129.132 136.576 128.652 134.508 128.236 132.428C127.82 130.348 127.436 128.264 127.112 126.172C126.796 124.224 126.456 122.256 126.332 120.284C126.208 118.224 126.332 116.144 127.332 114.284C127.334 114.28 127.336 114.276 127.336 114.272C127.337 114.268 127.336 114.264 127.335 114.26C127.334 114.255 127.332 114.252 127.33 114.248C127.327 114.245 127.324 114.242 127.32 114.24C127.316 114.238 127.312 114.237 127.308 114.236C127.304 114.236 127.3 114.236 127.296 114.237C127.292 114.238 127.288 114.24 127.284 114.243C127.281 114.245 127.278 114.248 127.276 114.252C126.248 115.752 125.912 117.552 125.856 119.34C125.861 121.313 126.035 123.281 126.376 125.224C126.96 129.487 127.761 133.718 128.776 137.9C129.356 140.264 130.104 142.588 130.904 144.884C130.907 144.891 130.912 144.898 130.919 144.901C130.926 144.904 130.935 144.905 130.942 144.902C130.95 144.899 130.956 144.894 130.959 144.887C130.962 144.88 130.963 144.871 130.96 144.864C130.483 142.8 130.021 140.728 129.576 138.648Z" fill="black"/>
</svg>
