<svg width="94" height="94" viewBox="0 0 94 94" fill="none" xmlns="http://www.w3.org/2000/svg">
<g opacity="0.4">
<path d="M47 10.2812C39.7377 10.2812 32.6385 12.4348 26.6001 16.4695C20.5618 20.5042 15.8554 26.2389 13.0763 32.9483C10.2971 39.6578 9.56998 47.0407 10.9868 54.1635C12.4036 61.2862 15.9007 67.8289 21.0359 72.9641C26.1711 78.0993 32.7138 81.5964 39.8365 83.0132C46.9593 84.43 54.3422 83.7029 61.0516 80.9237C67.7611 78.1446 73.4958 73.4382 77.5305 67.3998C81.5652 61.3615 83.7187 54.2623 83.7187 47C83.7081 37.2649 79.8361 27.9315 72.9523 21.0477C66.0685 14.1639 56.7351 10.2919 47 10.2812ZM47 80.7813C40.3187 80.7813 33.7874 78.8 28.2321 75.0881C22.6768 71.3762 18.347 66.1002 15.7902 59.9275C13.2334 53.7548 12.5644 46.9625 13.8678 40.4096C15.1713 33.8567 18.3886 27.8374 23.113 23.113C27.8374 18.3887 33.8567 15.1713 40.4096 13.8678C46.9625 12.5644 53.7548 13.2334 59.9275 15.7902C66.1002 18.347 71.3761 22.6768 75.0881 28.2321C78.8 33.7874 80.7812 40.3187 80.7812 47C80.7715 55.9564 77.2093 64.5431 70.8762 70.8762C64.5431 77.2093 55.9564 80.7715 47 80.7813ZM56.8516 45.9609C56.9882 46.0973 57.0965 46.2593 57.1704 46.4376C57.2444 46.6159 57.2824 46.807 57.2824 47C57.2824 47.193 57.2444 47.3841 57.1704 47.5625C57.0965 47.7408 56.9882 47.9027 56.8516 48.0391L42.1641 62.7266C41.8885 63.0022 41.5147 63.1571 41.125 63.1571C40.7352 63.1571 40.3614 63.0022 40.0858 62.7266C39.8102 62.451 39.6554 62.0773 39.6554 61.6875C39.6554 61.2978 39.8102 60.924 40.0858 60.6484L53.7342 47L40.0858 33.3516C39.8102 33.076 39.6554 32.7023 39.6554 32.3125C39.6554 31.9227 39.8102 31.549 40.0858 31.2734C40.3614 30.9978 40.7352 30.8429 41.125 30.8429C41.5147 30.8429 41.8885 30.9978 42.1641 31.2734L56.8516 45.9609Z" fill="#52483C"/>
</g>
</svg>
