<svg width="94" height="94" viewBox="0 0 94 94" fill="none" xmlns="http://www.w3.org/2000/svg">
<g opacity="0.4">
<path d="M47 83.7188C54.2623 83.7188 61.3615 81.5652 67.3998 77.5305C73.4382 73.4958 78.1445 67.7611 80.9237 61.0517C83.7028 54.3422 84.43 46.9593 83.0132 39.8365C81.5964 32.7138 78.0993 26.1711 72.9641 21.0359C67.8288 15.9007 61.2862 12.4036 54.1635 10.9868C47.0407 9.56998 39.6578 10.2971 32.9483 13.0763C26.2388 15.8554 20.5042 20.5618 16.4695 26.6002C12.4347 32.6385 10.2812 39.7377 10.2812 47C10.2919 56.7351 14.1639 66.0685 21.0477 72.9523C27.9315 79.8361 37.2648 83.7081 47 83.7188ZM47 13.2187C53.6813 13.2187 60.2125 15.2 65.7678 18.9119C71.3231 22.6238 75.653 27.8998 78.2098 34.0725C80.7666 40.2452 81.4356 47.0375 80.1321 53.5904C78.8287 60.1433 75.6113 66.1626 70.8869 70.887C66.1625 75.6113 60.1433 78.8287 53.5904 80.1322C47.0375 81.4356 40.2452 80.7666 34.0725 78.2098C27.8997 75.653 22.6238 71.3232 18.9119 65.7679C15.2 60.2126 13.2187 53.6813 13.2187 47C13.2284 38.0436 16.7907 29.4569 23.1238 23.1238C29.4569 16.7907 38.0436 13.2285 47 13.2187ZM37.1483 48.0391C37.0118 47.9027 36.9034 47.7407 36.8295 47.5624C36.7556 47.3841 36.7176 47.193 36.7176 47C36.7176 46.807 36.7556 46.6159 36.8295 46.4375C36.9034 46.2592 37.0118 46.0973 37.1483 45.9609L51.8358 31.2734C52.1114 30.9978 52.4852 30.8429 52.875 30.8429C53.2647 30.8429 53.6385 30.9978 53.9141 31.2734C54.1897 31.549 54.3445 31.9227 54.3445 32.3125C54.3445 32.7022 54.1897 33.076 53.9141 33.3516L40.2658 47L53.9141 60.6484C54.1897 60.924 54.3445 61.2977 54.3445 61.6875C54.3445 62.0773 54.1897 62.451 53.9141 62.7266C53.6385 63.0022 53.2647 63.1571 52.875 63.1571C52.4852 63.1571 52.1114 63.0022 51.8358 62.7266L37.1483 48.0391Z" fill="#52483C"/>
</g>
</svg>
