<svg width="94" height="94" viewBox="0 0 94 94" fill="none" xmlns="http://www.w3.org/2000/svg">
<g opacity="0.4">
<path d="M83.7191 47C83.7191 39.7377 81.5656 32.6385 77.5309 26.6002C73.4962 20.5618 67.7615 15.8555 61.052 13.0763C54.3425 10.2972 46.9596 9.57001 39.8369 10.9868C32.7141 12.4036 26.1715 15.9007 21.0363 21.0359C15.9011 26.1712 12.404 32.7138 10.9872 39.8365C9.57035 46.9593 10.2975 54.3422 13.0767 61.0517C15.8558 67.7612 20.5621 73.4958 26.6005 77.5305C32.6389 81.5653 39.7381 83.7188 47.0004 83.7188C56.7355 83.7081 66.0688 79.8361 72.9526 72.9523C79.8364 66.0685 83.7084 56.7352 83.7191 47ZM13.2191 47C13.2191 40.3187 15.2003 33.7875 18.9123 28.2322C22.6242 22.6769 27.9001 18.347 34.0728 15.7902C40.2456 13.2334 47.0378 12.5644 53.5908 13.8679C60.1437 15.1713 66.1629 18.3887 70.8873 23.1131C75.6117 27.8375 78.8291 33.8567 80.1325 40.4096C81.436 46.9625 80.767 53.7548 78.2102 59.9275C75.6533 66.1003 71.3235 71.3762 65.7682 75.0881C60.2129 78.8 53.6817 80.7813 47.0004 80.7813C38.044 80.7716 29.4573 77.2093 23.1241 70.8762C16.791 64.5431 13.2288 55.9564 13.2191 47ZM48.0395 56.8517C47.9031 56.9882 47.7411 57.0966 47.5628 57.1705C47.3845 57.2444 47.1934 57.2824 47.0004 57.2824C46.8073 57.2824 46.6162 57.2444 46.4379 57.1705C46.2596 57.0966 46.0976 56.9882 45.9612 56.8517L31.2737 42.1642C30.9981 41.8886 30.8433 41.5148 30.8433 41.125C30.8433 40.7353 30.9981 40.3615 31.2737 40.0859C31.5493 39.8103 31.9231 39.6555 32.3129 39.6555C32.7026 39.6555 33.0764 39.8103 33.352 40.0859L47.0004 53.7342L60.6487 40.0859C60.9243 39.8103 61.2981 39.6555 61.6879 39.6555C62.0776 39.6555 62.4514 39.8103 62.727 40.0859C63.0026 40.3615 63.1574 40.7353 63.1574 41.125C63.1574 41.5148 63.0026 41.8886 62.727 42.1642L48.0395 56.8517Z" fill="#52483C"/>
</g>
</svg>
