<svg width="32" height="32" viewBox="0 0 32 32" fill="none" xmlns="http://www.w3.org/2000/svg">
<path d="M27.7 7.29747C26.388 5.98812 24.6106 5.25192 22.7571 5.25005C20.9035 5.24817 19.1247 5.98077 17.81 7.28747L16 8.97247L14.19 7.28747C12.8764 5.97548 11.0953 5.23906 9.23871 5.24024C7.3821 5.24141 5.60199 5.98007 4.29 7.29372C2.97801 8.60737 2.2416 10.3884 2.24277 12.245C2.24394 14.1016 2.9826 15.8817 4.29625 17.1937L15.4663 28.5262C15.536 28.5969 15.6191 28.653 15.7107 28.6913C15.8024 28.7296 15.9007 28.7493 16 28.7493C16.0993 28.7493 16.1976 28.7296 16.2893 28.6913C16.3809 28.653 16.464 28.5969 16.5338 28.5262L27.7 17.1987C28.3503 16.5487 28.8661 15.7769 29.2181 14.9275C29.57 14.078 29.7511 13.1676 29.7511 12.2481C29.7511 11.3286 29.57 10.4182 29.2181 9.56874C28.8661 8.71929 28.3503 7.94751 27.7 7.29747ZM26.635 16.1412L16 26.9312L5.36125 16.1375C4.3358 15.1048 3.76141 13.7079 3.76389 12.2526C3.76637 10.7973 4.34552 9.40233 5.37449 8.3732C6.40345 7.34407 7.79834 6.7647 9.25363 6.76199C10.7089 6.75927 12.106 7.33344 13.1388 8.35872C13.1448 8.3652 13.1515 8.37106 13.1588 8.37622L15.4888 10.5462C15.6276 10.6756 15.8103 10.7475 16 10.7475C16.1897 10.7475 16.3724 10.6756 16.5113 10.5462L18.8412 8.37497C18.8485 8.36981 18.8552 8.36395 18.8612 8.35747C19.3716 7.84408 19.9783 7.43649 20.6465 7.15807C21.3147 6.87965 22.0313 6.73588 22.7552 6.73502C23.4791 6.73415 24.1961 6.87619 24.865 7.153C25.5339 7.42981 26.1415 7.83595 26.6531 8.34811C27.1647 8.86028 27.5702 9.46839 27.8462 10.1376C28.1223 10.8068 28.2635 11.5239 28.2618 12.2478C28.2601 12.9717 28.1156 13.6881 27.8364 14.3561C27.5572 15.024 27.149 15.6302 26.635 16.14V16.1412Z" fill="#52483C"/>
</svg>
