<svg width="48" height="48" viewBox="0 0 48 48" fill="none" xmlns="http://www.w3.org/2000/svg">
<g clip-path="url(#clip0_25_18018)">
<path d="M24.0013 0C17.4835 0 16.6655 0.0285005 14.1056 0.145C11.5506 0.262 9.8067 0.6665 8.28075 1.26C6.7023 1.873 5.36334 2.693 4.02938 4.0275C2.69442 5.3615 1.87444 6.7005 1.25946 8.2785C0.664479 9.805 0.259492 11.5495 0.144495 14.1035C0.0299989 16.6635 0 17.482 0 24C0 30.518 0.0289996 31.3335 0.144996 33.8935C0.262492 36.4485 0.66698 38.1925 1.25996 39.7185C1.87344 41.297 2.69342 42.636 4.02788 43.97C5.36134 45.305 6.70029 46.127 8.27775 46.74C9.8047 47.3335 11.5491 47.738 14.1036 47.855C16.6635 47.9715 17.481 48 23.9983 48C30.5166 48 31.332 47.9715 33.892 47.855C36.4469 47.738 38.1928 47.3335 39.7198 46.74C41.2977 46.127 42.6347 45.305 43.9682 43.97C45.3031 42.636 46.1231 41.297 46.7381 39.719C47.3281 38.1925 47.733 36.448 47.853 33.894C47.968 31.334 47.998 30.518 47.998 24C47.998 17.482 47.968 16.664 47.853 14.104C47.733 11.549 47.3281 9.805 46.7381 8.279C46.1231 6.7005 45.3031 5.3615 43.9682 4.0275C42.6332 2.6925 41.2982 1.8725 39.7183 1.26C38.1883 0.6665 36.4434 0.262 33.8885 0.145C31.3285 0.0285005 30.5136 0 23.9938 0H24.0013ZM21.8483 4.325C22.4873 4.324 23.2003 4.325 24.0013 4.325C30.4091 4.325 31.1685 4.348 33.699 4.463C36.0389 4.57 37.3089 4.961 38.1548 5.2895C39.2748 5.7245 40.0733 6.2445 40.9128 7.0845C41.7527 7.9245 42.2727 8.7245 42.7087 9.8445C43.0372 10.6895 43.4287 11.9595 43.5352 14.2995C43.6502 16.8295 43.6752 17.5895 43.6752 23.9945C43.6752 30.3995 43.6502 31.1595 43.5352 33.6895C43.4282 36.0295 43.0372 37.2995 42.7087 38.1445C42.2737 39.2645 41.7527 40.062 40.9128 40.9015C40.0728 41.7415 39.2753 42.2615 38.1548 42.6965C37.3099 43.0265 36.0389 43.4165 33.699 43.5235C31.169 43.6385 30.4091 43.6635 24.0013 43.6635C17.593 43.6635 16.8335 43.6385 14.3036 43.5235C11.9636 43.4155 10.6937 43.0245 9.8472 42.696C8.72723 42.261 7.92726 41.741 7.08728 40.901C6.24731 40.061 5.72732 39.263 5.29134 38.1425C4.96285 37.2975 4.57136 36.0275 4.46486 33.6875C4.34987 31.1575 4.32687 30.3975 4.32687 23.9885C4.32687 17.5795 4.34987 16.8235 4.46486 14.2935C4.57186 11.9535 4.96285 10.6835 5.29134 9.8375C5.72633 8.7175 6.24731 7.9175 7.08728 7.0775C7.92726 6.2375 8.72723 5.7175 9.8472 5.2815C10.6932 4.9515 11.9636 4.5615 14.3036 4.454C16.5175 4.354 17.3755 4.324 21.8483 4.319V4.325ZM36.8119 8.31C35.2219 8.31 33.932 9.5985 33.932 11.189C33.932 12.779 35.2219 14.069 36.8119 14.069C38.4018 14.069 39.6918 12.779 39.6918 11.189C39.6918 9.599 38.4018 8.309 36.8119 8.309V8.31ZM24.0013 11.675C17.195 11.675 11.6766 17.1935 11.6766 24C11.6766 30.8065 17.195 36.3225 24.0013 36.3225C30.8076 36.3225 36.3239 30.8065 36.3239 24C36.3239 17.1935 30.8071 11.675 24.0008 11.675H24.0013ZM24.0013 16C28.4191 16 32.001 19.5815 32.001 24C32.001 28.418 28.4191 32 24.0013 32C19.5829 32 16.0015 28.418 16.0015 24C16.0015 19.5815 19.5829 16 24.0013 16Z" fill="url(#paint0_radial_25_18018)"/>
<path d="M24.0013 0C17.4835 0 16.6656 0.0285005 14.1056 0.145C11.5507 0.262 9.80676 0.6665 8.28081 1.26C6.70236 1.873 5.3634 2.693 4.02944 4.0275C2.69448 5.3615 1.8745 6.7005 1.25952 8.2785C0.66454 9.805 0.259553 11.5495 0.144556 14.1035C0.0300599 16.6635 6.10352e-05 17.482 6.10352e-05 24C6.10352e-05 30.518 0.0290606 31.3335 0.145057 33.8935C0.262553 36.4485 0.667041 38.1925 1.26002 39.7185C1.8735 41.297 2.69348 42.636 4.02794 43.97C5.3614 45.305 6.70036 46.127 8.27781 46.74C9.80476 47.3335 11.5492 47.738 14.1036 47.855C16.6636 47.9715 17.481 48 23.9983 48C30.5166 48 31.3321 47.9715 33.892 47.855C36.4469 47.738 38.1929 47.3335 39.7198 46.74C41.2978 46.127 42.6348 45.305 43.9682 43.97C45.3032 42.636 46.1231 41.297 46.7381 39.719C47.3281 38.1925 47.7331 36.448 47.8531 33.894C47.9681 31.334 47.9981 30.518 47.9981 24C47.9981 17.482 47.9681 16.664 47.8531 14.104C47.7331 11.549 47.3281 9.805 46.7381 8.279C46.1231 6.7005 45.3032 5.3615 43.9682 4.0275C42.6333 2.6925 41.2983 1.8725 39.7183 1.26C38.1884 0.6665 36.4434 0.262 33.8885 0.145C31.3286 0.0285005 30.5136 0 23.9938 0H24.0013ZM21.8484 4.325C22.4874 4.324 23.2003 4.325 24.0013 4.325C30.4091 4.325 31.1686 4.348 33.699 4.463C36.039 4.57 37.3089 4.961 38.1549 5.2895C39.2749 5.7245 40.0733 6.2445 40.9128 7.0845C41.7528 7.9245 42.2728 8.7245 42.7088 9.8445C43.0372 10.6895 43.4287 11.9595 43.5352 14.2995C43.6502 16.8295 43.6752 17.5895 43.6752 23.9945C43.6752 30.3995 43.6502 31.1595 43.5352 33.6895C43.4282 36.0295 43.0372 37.2995 42.7088 38.1445C42.2738 39.2645 41.7528 40.062 40.9128 40.9015C40.0728 41.7415 39.2754 42.2615 38.1549 42.6965C37.3099 43.0265 36.039 43.4165 33.699 43.5235C31.1691 43.6385 30.4091 43.6635 24.0013 43.6635C17.593 43.6635 16.8335 43.6385 14.3036 43.5235C11.9637 43.4155 10.6937 43.0245 9.84726 42.696C8.72729 42.261 7.92732 41.741 7.08734 40.901C6.24737 40.061 5.72739 39.263 5.2914 38.1425C4.96291 37.2975 4.57142 36.0275 4.46492 33.6875C4.34993 31.1575 4.32693 30.3975 4.32693 23.9885C4.32693 17.5795 4.34993 16.8235 4.46492 14.2935C4.57192 11.9535 4.96291 10.6835 5.2914 9.8375C5.72639 8.7175 6.24737 7.9175 7.08734 7.0775C7.92732 6.2375 8.72729 5.7175 9.84726 5.2815C10.6932 4.9515 11.9637 4.5615 14.3036 4.454C16.5176 4.354 17.3755 4.324 21.8484 4.319V4.325ZM36.8119 8.31C35.222 8.31 33.932 9.5985 33.932 11.189C33.932 12.779 35.222 14.069 36.8119 14.069C38.4019 14.069 39.6918 12.779 39.6918 11.189C39.6918 9.599 38.4019 8.309 36.8119 8.309V8.31ZM24.0013 11.675C17.195 11.675 11.6767 17.1935 11.6767 24C11.6767 30.8065 17.195 36.3225 24.0013 36.3225C30.8076 36.3225 36.324 30.8065 36.324 24C36.324 17.1935 30.8071 11.675 24.0008 11.675H24.0013ZM24.0013 16C28.4192 16 32.0011 19.5815 32.0011 24C32.0011 28.418 28.4192 32 24.0013 32C19.583 32 16.0016 28.418 16.0016 24C16.0016 19.5815 19.583 16 24.0013 16Z" fill="url(#paint1_radial_25_18018)"/>
</g>
<defs>
<radialGradient id="paint0_radial_25_18018" cx="0" cy="0" r="1" gradientUnits="userSpaceOnUse" gradientTransform="translate(12.7495 51.697) rotate(-90) scale(47.5715 44.2435)">
<stop stop-color="#FFDD55"/>
<stop offset="0.1" stop-color="#FFDD55"/>
<stop offset="0.5" stop-color="#FF543E"/>
<stop offset="1" stop-color="#C837AB"/>
</radialGradient>
<radialGradient id="paint1_radial_25_18018" cx="0" cy="0" r="1" gradientUnits="userSpaceOnUse" gradientTransform="translate(-8.03986 3.45784) rotate(78.6811) scale(21.2646 87.6505)">
<stop stop-color="#3771C8"/>
<stop offset="0.128" stop-color="#3771C8"/>
<stop offset="1" stop-color="#6600FF" stop-opacity="0"/>
</radialGradient>
<clipPath id="clip0_25_18018">
<rect width="48" height="48" fill="white"/>
</clipPath>
</defs>
</svg>
