<svg width="40" height="41" viewBox="0 0 40 41" fill="none" xmlns="http://www.w3.org/2000/svg">
<path d="M26.265 26.2349L23.0538 23.0237C23.9695 21.9706 24.4406 20.6031 24.3677 19.2094C24.2949 17.8157 23.6837 16.5048 22.6631 15.553C21.6426 14.6011 20.2923 14.0827 18.8969 14.107C17.5016 14.1313 16.1702 14.6964 15.1834 15.6832C14.1966 16.6701 13.6314 18.0015 13.6071 19.3968C13.5828 20.7922 14.1013 22.1424 15.0531 23.163C16.0049 24.1836 17.3159 24.7947 18.7095 24.8676C20.1032 24.9405 21.4707 24.4694 22.5238 23.5537L25.735 26.7649C25.8061 26.8312 25.9002 26.8672 25.9973 26.8655C26.0945 26.8638 26.1871 26.8244 26.2559 26.7557C26.3246 26.687 26.3639 26.5943 26.3656 26.4972C26.3673 26.4 26.3313 26.306 26.265 26.2349ZM14.375 19.4999C14.375 18.5852 14.6463 17.691 15.1545 16.9304C15.6627 16.1698 16.385 15.577 17.2301 15.227C18.0752 14.8769 19.0052 14.7853 19.9023 14.9638C20.7995 15.1422 21.6236 15.5827 22.2704 16.2296C22.9172 16.8764 23.3577 17.7005 23.5362 18.5976C23.7146 19.4948 23.623 20.4247 23.273 21.2698C22.9229 22.1149 22.3301 22.8373 21.5696 23.3455C20.809 23.8537 19.9148 24.1249 19 24.1249C17.7739 24.1234 16.5984 23.6357 15.7313 22.7686C14.8643 21.9016 14.3765 20.7261 14.375 19.4999Z" fill="black"/>
</svg>
