<svg width="24" height="24" viewBox="0 0 24 24" fill="none" xmlns="http://www.w3.org/2000/svg">
<mask id="path-1-inside-1_83_50" fill="white">
<path d="M14.9062 8.71875L19.375 9.375C19.75 9.4375 20.0625 9.6875 20.1875 10.0625C20.3125 10.4062 20.2188 10.8125 19.9375 11.0625L16.6875 14.2812L17.4688 18.8438C17.5312 19.2188 17.375 19.5938 17.0625 19.8125C16.75 20.0625 16.3438 20.0625 16 19.9062L12 17.75L7.96875 19.9062C7.65625 20.0625 7.21875 20.0625 6.9375 19.8125C6.625 19.5938 6.46875 19.2188 6.53125 18.8438L7.28125 14.2812L4.03125 11.0625C3.75 10.8125 3.65625 10.4062 3.78125 10.0625C3.90625 9.6875 4.21875 9.4375 4.59375 9.375L9.09375 8.71875L11.0938 4.5625C11.25 4.21875 11.5938 4 12 4C12.375 4 12.7188 4.21875 12.875 4.5625L14.9062 8.71875Z"/>
</mask>
<path d="M14.9062 8.71875L14.0078 9.15784L14.2393 9.63153L14.761 9.70814L14.9062 8.71875ZM19.375 9.375L19.5394 8.38861L19.5299 8.38702L19.5203 8.38561L19.375 9.375ZM20.1875 10.0625L19.2388 10.3787L19.2431 10.3915L19.2477 10.4042L20.1875 10.0625ZM19.9375 11.0625L19.2731 10.3151L19.253 10.333L19.2338 10.352L19.9375 11.0625ZM16.6875 14.2812L15.9838 13.5707L15.614 13.937L15.7018 14.45L16.6875 14.2812ZM17.4688 18.8438L18.4552 18.6793L18.4544 18.675L17.4688 18.8438ZM17.0625 19.8125L16.489 18.9933L16.4628 19.0116L16.4378 19.0316L17.0625 19.8125ZM16 19.9062L15.5255 20.7865L15.5553 20.8026L15.5862 20.8166L16 19.9062ZM12 17.75L12.4745 16.8697L12.0018 16.615L11.5283 16.8682L12 17.75ZM7.96875 19.9062L8.41596 20.8007L8.42827 20.7945L8.4404 20.788L7.96875 19.9062ZM6.9375 19.8125L7.60186 19.0651L7.5585 19.0265L7.51096 18.9933L6.9375 19.8125ZM6.53125 18.8438L7.51765 19.0081L7.51801 19.006L6.53125 18.8438ZM7.28125 14.2812L8.26801 14.4435L8.35175 13.934L7.98493 13.5707L7.28125 14.2812ZM4.03125 11.0625L4.73493 10.352L4.71577 10.333L4.69561 10.3151L4.03125 11.0625ZM3.78125 10.0625L4.72104 10.4042L4.72566 10.3915L4.72993 10.3787L3.78125 10.0625ZM4.59375 9.375L4.44944 8.38547L4.43938 8.38693L4.42935 8.38861L4.59375 9.375ZM9.09375 8.71875L9.23806 9.70828L9.76427 9.63154L9.99485 9.15236L9.09375 8.71875ZM11.0938 4.5625L11.9948 4.99611L11.9996 4.98626L12.0041 4.9763L11.0938 4.5625ZM12.875 4.5625L11.9646 4.9763L11.9704 4.98903L11.9766 5.00159L12.875 4.5625ZM14.761 9.70814L19.2297 10.3644L19.5203 8.38561L15.0515 7.72936L14.761 9.70814ZM19.2106 10.3614C19.2199 10.3629 19.226 10.3652 19.2296 10.3668C19.2331 10.3684 19.2346 10.3696 19.2348 10.3698C19.2349 10.3699 19.2349 10.3698 19.235 10.37C19.235 10.37 19.2367 10.3724 19.2388 10.3787L21.1362 9.74627C20.888 9.00181 20.2606 8.50881 19.5394 8.38861L19.2106 10.3614ZM19.2477 10.4042C19.2399 10.3828 19.2415 10.3683 19.2434 10.3602C19.2457 10.351 19.2529 10.3331 19.2731 10.3151L20.6019 11.8099C21.199 11.2791 21.388 10.4376 21.1273 9.72076L19.2477 10.4042ZM19.2338 10.352L15.9838 13.5707L17.3912 14.9918L20.6412 11.773L19.2338 10.352ZM15.7018 14.45L16.4831 19.0125L18.4544 18.675L17.6732 14.1125L15.7018 14.45ZM16.4824 19.0081C16.4824 19.0084 16.4822 19.0074 16.4824 19.0057C16.4826 19.0041 16.4831 19.0024 16.4838 19.0006C16.4846 18.9988 16.4856 18.9971 16.4868 18.9956C16.488 18.994 16.4891 18.9933 16.489 18.9933L17.636 20.6317C18.2654 20.1911 18.5807 19.4328 18.4551 18.6794L16.4824 19.0081ZM16.4378 19.0316C16.4432 19.0273 16.452 19.022 16.4624 19.018C16.4723 19.0143 16.4787 19.0138 16.4793 19.0137C16.4794 19.0137 16.4734 19.0141 16.4612 19.0117C16.4489 19.0093 16.4326 19.0044 16.4138 18.9959L15.5862 20.8166C16.1828 21.0878 17.0105 21.1347 17.6872 20.5934L16.4378 19.0316ZM16.4745 19.026L12.4745 16.8697L11.5255 18.6303L15.5255 20.7865L16.4745 19.026ZM11.5283 16.8682L7.4971 19.0245L8.4404 20.788L12.4717 18.6318L11.5283 16.8682ZM7.52154 19.0118C7.52577 19.0097 7.52399 19.0111 7.51716 19.0125C7.51422 19.0131 7.51137 19.0135 7.50889 19.0137C7.50641 19.0138 7.50508 19.0137 7.50511 19.0137C7.50513 19.0138 7.50723 19.0139 7.51134 19.0147C7.51547 19.0156 7.52213 19.0173 7.53089 19.0207C7.54898 19.0276 7.57495 19.0412 7.60186 19.0651L6.27314 20.5599C6.9374 21.1504 7.84011 21.0886 8.41596 20.8007L7.52154 19.0118ZM7.51096 18.9933C7.51095 18.9933 7.51195 18.994 7.51323 18.9956C7.51443 18.9971 7.51544 18.9988 7.51619 19.0006C7.51694 19.0024 7.51738 19.0041 7.51756 19.0057C7.51777 19.0074 7.51761 19.0084 7.51764 19.0081L5.54486 18.6794C5.41928 19.4328 5.73458 20.1911 6.36404 20.6317L7.51096 18.9933ZM7.51801 19.006L8.26801 14.4435L6.29449 14.119L5.54449 18.6815L7.51801 19.006ZM7.98493 13.5707L4.73493 10.352L3.32757 11.773L6.57757 14.9918L7.98493 13.5707ZM4.69561 10.3151C4.71585 10.3331 4.72305 10.351 4.72531 10.3602C4.72728 10.3683 4.72886 10.3828 4.72104 10.4042L2.84146 9.72076C2.58079 10.4376 2.76978 11.2791 3.36689 11.8099L4.69561 10.3151ZM4.72993 10.3787C4.73204 10.3724 4.73372 10.37 4.73377 10.37C4.73388 10.3698 4.7338 10.3699 4.73393 10.3698C4.73415 10.3696 4.73564 10.3684 4.73918 10.3668C4.74273 10.3652 4.74889 10.3629 4.75815 10.3614L4.42935 8.38861C3.70815 8.50881 3.08072 9.00181 2.83257 9.74627L4.72993 10.3787ZM4.73806 10.3645L9.23806 9.70828L8.94944 7.72922L4.44944 8.38547L4.73806 10.3645ZM9.99485 9.15236L11.9948 4.99611L10.1927 4.12889L8.19265 8.28514L9.99485 9.15236ZM12.0041 4.9763C12.0024 4.98012 11.9994 4.98505 11.9951 4.98998C11.9908 4.99483 11.9865 4.99823 11.9831 5.00034C11.9798 5.00244 11.9784 5.00256 11.9803 5.00203C11.9821 5.00152 11.9884 5 12 5V3C11.2232 3 10.5107 3.42869 10.1834 4.1487L12.0041 4.9763ZM12 5C11.9923 5 11.9852 4.99767 11.9799 4.99422C11.9743 4.99062 11.9683 4.98442 11.9646 4.9763L13.7854 4.1487C13.4655 3.44501 12.7639 3 12 3V5ZM11.9766 5.00159L14.0078 9.15784L15.8047 8.27966L13.7734 4.12341L11.9766 5.00159Z" fill="#52483C" mask="url(#path-1-inside-1_83_50)"/>
</svg>
