<svg width="24" height="24" viewBox="0 0 24 24" fill="none" xmlns="http://www.w3.org/2000/svg">
<path d="M14.9062 8.71875L19.375 9.375C19.75 9.4375 20.0625 9.6875 20.1875 10.0625C20.3125 10.4062 20.2188 10.8125 19.9375 11.0625L16.6875 14.2812L17.4688 18.8438C17.5312 19.2188 17.375 19.5938 17.0625 19.8125C16.75 20.0625 16.3438 20.0625 16 19.9062L12 17.75L7.96875 19.9062C7.65625 20.0625 7.21875 20.0625 6.9375 19.8125C6.625 19.5938 6.46875 19.2188 6.53125 18.8438L7.28125 14.2812L4.03125 11.0625C3.75 10.8125 3.65625 10.4062 3.78125 10.0625C3.90625 9.6875 4.21875 9.4375 4.59375 9.375L9.09375 8.71875L11.0938 4.5625C11.25 4.21875 11.5938 4 12 4C12.375 4 12.7188 4.21875 12.875 4.5625L14.9062 8.71875Z" fill="#52483C"/>
</svg>
