<svg width="48" height="48" viewBox="0 0 48 48" fill="none" xmlns="http://www.w3.org/2000/svg">
<g clip-path="url(#clip0_25_18013)">
<path d="M0 16.1C0 10.4051 0 7.55764 1.12587 5.39026C2.07462 3.56382 3.56382 2.07462 5.39026 1.12587C7.55764 0 10.4051 0 16.1 0H31.9C37.5949 0 40.4424 0 42.6097 1.12587C44.4362 2.07462 45.9254 3.56382 46.8741 5.39026C48 7.55764 48 10.4051 48 16.1V31.9C48 37.5949 48 40.4424 46.8741 42.6097C45.9254 44.4362 44.4362 45.9254 42.6097 46.8741C40.4424 48 37.5949 48 31.9 48H16.1C10.4051 48 7.55764 48 5.39026 46.8741C3.56382 45.9254 2.07462 44.4362 1.12587 42.6097C0 40.4424 0 37.5949 0 31.9V16.1Z" fill="url(#paint0_linear_25_18013)"/>
<path d="M18.5 36.75C17.5281 36.75 17.6932 36.383 17.358 35.4576L14.5 26.0515L36.5 13" fill="#C8DAEA"/>
<path d="M18.5 36.7501C19.25 36.7501 19.5814 36.4071 20 36.0001L24 32.1106L19.0105 29.1018" fill="#A9C9DD"/>
<path d="M19.01 29.1024L31.1 38.0346C32.4796 38.7958 33.4754 38.4017 33.819 36.7537L38.7403 13.563C39.2441 11.5429 37.9702 10.6267 36.6504 11.2259L7.75291 22.3687C5.78039 23.1599 5.79189 24.2603 7.39336 24.7507L14.8091 27.0653L31.9774 16.234C32.7878 15.7425 33.5317 16.0068 32.9212 16.5486" fill="url(#paint1_linear_25_18013)"/>
</g>
<defs>
<linearGradient id="paint0_linear_25_18013" x1="32.0016" y1="8.0016" x2="20.0016" y2="36" gradientUnits="userSpaceOnUse">
<stop stop-color="#37AEE2"/>
<stop offset="1" stop-color="#1E96C8"/>
</linearGradient>
<linearGradient id="paint1_linear_25_18013" x1="27.7512" y1="22.9996" x2="32.446" y2="33.6828" gradientUnits="userSpaceOnUse">
<stop stop-color="#EFF7FC"/>
<stop offset="1" stop-color="white"/>
</linearGradient>
<clipPath id="clip0_25_18013">
<rect width="48" height="48" fill="white"/>
</clipPath>
</defs>
</svg>
