<svg width="32" height="32" viewBox="0 0 32 32" fill="none" xmlns="http://www.w3.org/2000/svg">
<path d="M28.6487 26.6251C26.6724 23.2101 23.5699 20.8139 19.9649 19.7976C21.7176 18.9067 23.1192 17.4514 23.9436 15.6665C24.768 13.8816 24.9672 11.871 24.5092 9.95896C24.0511 8.04694 22.9624 6.34491 21.4186 5.12732C19.8749 3.90974 17.9661 3.24756 15.9999 3.24756C14.0338 3.24756 12.125 3.90974 10.5812 5.12732C9.03749 6.34491 7.94881 8.04694 7.49074 9.95896C7.03266 11.871 7.23189 13.8816 8.05631 15.6665C8.88072 17.4514 10.2823 18.9067 12.0349 19.7976C8.42994 20.8126 5.32744 23.2089 3.35119 26.6251C3.29693 26.7105 3.26049 26.806 3.24407 26.9058C3.22766 27.0056 3.2316 27.1077 3.25567 27.2059C3.27973 27.3042 3.32342 27.3965 3.38411 27.4775C3.44479 27.5584 3.52122 27.6262 3.6088 27.6768C3.69637 27.7274 3.79328 27.7598 3.89369 27.772C3.99411 27.7842 4.09595 27.776 4.1931 27.7478C4.29024 27.7196 4.38068 27.6721 4.45898 27.608C4.53728 27.544 4.60181 27.4648 4.64869 27.3751C7.04994 23.2264 11.2924 20.7501 15.9999 20.7501C20.7074 20.7501 24.9499 23.2264 27.3512 27.3751C27.3981 27.4648 27.4626 27.544 27.5409 27.608C27.6192 27.6721 27.7096 27.7196 27.8068 27.7478C27.9039 27.776 28.0058 27.7842 28.1062 27.772C28.2066 27.7598 28.3035 27.7274 28.3911 27.6768C28.4787 27.6262 28.5551 27.5584 28.6158 27.4775C28.6765 27.3965 28.7202 27.3042 28.7442 27.2059C28.7683 27.1077 28.7722 27.0056 28.7558 26.9058C28.7394 26.806 28.703 26.7105 28.6487 26.6251ZM8.74994 12.0001C8.74994 10.5662 9.17515 9.16451 9.97179 7.97226C10.7684 6.78 11.9007 5.85075 13.2255 5.30201C14.5503 4.75328 16.008 4.6097 17.4143 4.88945C18.8207 5.16919 20.1125 5.85969 21.1265 6.87362C22.1404 7.88755 22.8309 9.17937 23.1106 10.5857C23.3904 11.9921 23.2468 13.4498 22.6981 14.7746C22.1493 16.0994 21.2201 17.2317 20.0278 18.0283C18.8356 18.8249 17.4339 19.2501 15.9999 19.2501C14.0778 19.2478 12.2351 18.4832 10.876 17.1241C9.51684 15.765 8.75226 13.9222 8.74994 12.0001Z" fill="#52483C"/>
</svg>
